<svg xmlns="http://www.w3.org/2000/svg" width="2500" height="4000"><path d="M340,4373L-419,4363L707,4414Z" fill="#f89b2d" stroke="#f89b2d" stroke-width="1.51"/><path d="M-628,-471L460,-430L1439,-585Z" fill="#f5ac2d" stroke="#f5ac2d" stroke-width="1.51"/><path d="M1938,4502L707,4414L2268,4565Z" fill="#f69521" stroke="#f69521" stroke-width="1.51"/><path d="M707,4414L-419,4363L2268,4565Z" fill="#f6a830" stroke="#f6a830" stroke-width="1.51"/><path d="M2718,4400L2268,4565L2948,4340Z" fill="#f57d0b" stroke="#f57d0b" stroke-width="1.51"/><path d="M2589,2515L2977,2794L3086,2241Z" fill="#f6881f" stroke="#f6881f" stroke-width="1.51"/><path d="M2845,1989L3086,2241L3107,1350Z" fill="#f99834" stroke="#f99834" stroke-width="1.51"/><path d="M2852,1564L2845,1989L3107,1350Z" fill="#f89b31" stroke="#f89b31" stroke-width="1.51"/><path d="M2500,-370L2917,-207L3121,-338Z" fill="#f58d18" stroke="#f58d18" stroke-width="1.51"/><path d="M2092,-580L2500,-370L3121,-338Z" fill="#f57b0f" stroke="#f57b0f" stroke-width="1.51"/><path d="M2917,-207L2820,205L3121,-338Z" fill="#f79121" stroke="#f79121" stroke-width="1.51"/><path d="M2960,3091L2640,3351L3133,3418Z" fill="#f47a09" stroke="#f47a09" stroke-width="1.51"/><path d="M3086,2241L2977,2794L3133,3418Z" fill="#f3930f" stroke="#f3930f" stroke-width="1.51"/><path d="M2977,2794L2960,3091L3133,3418Z" fill="#f3880a" stroke="#f3880a" stroke-width="1.51"/><path d="M3107,1350L3086,2241L3133,3418Z" fill="#f7992a" stroke="#f7992a" stroke-width="1.51"/><path d="M2851,4218L2948,4340L3142,3782Z" fill="#f5850c" stroke="#f5850c" stroke-width="1.51"/><path d="M3133,3418L2786,3654L3142,3782Z" fill="#f5760a" stroke="#f5760a" stroke-width="1.51"/><path d="M2786,3654L2851,4218L3142,3782Z" fill="#f5750b" stroke="#f5750b" stroke-width="1.51"/><path d="M2619,540L3021,994L3144,581Z" fill="#f89b2b" stroke="#f89b2b" stroke-width="1.51"/><path d="M2820,205L2619,540L3144,581Z" fill="#f98d2c" stroke="#f98d2c" stroke-width="1.51"/><path d="M3121,-338L2820,205L3144,581Z" fill="#f9942a" stroke="#f9942a" stroke-width="1.51"/><path d="M3021,994L3107,1350L3144,581Z" fill="#f5b02d" stroke="#f5b02d" stroke-width="1.51"/><path d="M3107,1350L3133,3418L3144,581Z" fill="#f8a335" stroke="#f8a335" stroke-width="1.51"/><path d="M3021,994L2536,1241L3107,1350Z" fill="#f6a629" stroke="#f6a629" stroke-width="1.51"/><path d="M2640,3351L2786,3654L3133,3418Z" fill="#f56f09" stroke="#f56f09" stroke-width="1.51"/><path d="M2536,1241L2852,1564L3107,1350Z" fill="#f79c2c" stroke="#f79c2c" stroke-width="1.51"/><path d="M2786,3654L2535,4011L2851,4218Z" fill="#f56a09" stroke="#f56a09" stroke-width="1.51"/><path d="M2589,2515L2681,2773L2977,2794Z" fill="#f57d14" stroke="#f57d14" stroke-width="1.51"/><path d="M2845,1989L2589,2515L3086,2241Z" fill="#f8872a" stroke="#f8872a" stroke-width="1.51"/><path d="M2500,2096L2589,2515L2845,1989Z" fill="#f9792a" stroke="#f9792a" stroke-width="1.51"/><path d="M2681,2773L2960,3091L2977,2794Z" fill="#f38509" stroke="#f38509" stroke-width="1.51"/><path d="M2619,540L2505,1121L3021,994Z" fill="#f89428" stroke="#f89428" stroke-width="1.51"/><path d="M2505,1121L2536,1241L3021,994Z" fill="#f79a26" stroke="#f79a26" stroke-width="1.51"/><path d="M2592,82L2820,205L2917,-207Z" fill="#f88424" stroke="#f88424" stroke-width="1.51"/><path d="M2681,2773L2472,2992L2960,3091Z" fill="#f47607" stroke="#f47607" stroke-width="1.51"/><path d="M2472,2992L2640,3351L2960,3091Z" fill="#f46e08" stroke="#f46e08" stroke-width="1.51"/><path d="M2460,1637L2845,1989L2852,1564Z" fill="#f9892f" stroke="#f9892f" stroke-width="1.51"/><path d="M2851,4218L2718,4400L2948,4340Z" fill="#f5850c" stroke="#f5850c" stroke-width="1.51"/><path d="M2607,233L2619,540L2820,205Z" fill="#fa7c2a" stroke="#fa7c2a" stroke-width="1.51"/><path d="M2500,-370L2592,82L2917,-207Z" fill="#f77f1c" stroke="#f77f1c" stroke-width="1.51"/><path d="M2460,1637L2500,2096L2845,1989Z" fill="#fb7a30" stroke="#fb7a30" stroke-width="1.51"/><path d="M2536,1241L2460,1637L2852,1564Z" fill="#f98b2a" stroke="#f98b2a" stroke-width="1.51"/><path d="M2535,4011L2718,4400L2851,4218Z" fill="#f5760a" stroke="#f5760a" stroke-width="1.51"/><path d="M2092,-580L2354,-374L2500,-370Z" fill="#f4800e" stroke="#f4800e" stroke-width="1.51"/><path d="M2500,2096L2438,2436L2589,2515Z" fill="#f86e23" stroke="#f86e23" stroke-width="1.51"/><path d="M2592,82L2607,233L2820,205Z" fill="#f97a27" stroke="#f97a27" stroke-width="1.51"/><path d="M2373,1533L2460,1637L2536,1241Z" fill="#f9872a" stroke="#f9872a" stroke-width="1.51"/><path d="M2640,3351L2328,3919L2786,3654Z" fill="#f55208" stroke="#f55208" stroke-width="1.51"/><path d="M2328,3919L2535,4011L2786,3654Z" fill="#f55408" stroke="#f55408" stroke-width="1.51"/><path d="M2196,959L2505,1121L2619,540Z" fill="#f88926" stroke="#f88926" stroke-width="1.51"/><path d="M2607,233L2445,388L2619,540Z" fill="#fa7528" stroke="#fa7528" stroke-width="1.51"/><path d="M2173,3835L2328,3919L2640,3351Z" fill="#f45107" stroke="#f45107" stroke-width="1.51"/><path d="M2535,4011L2268,4565L2718,4400Z" fill="#f56f09" stroke="#f56f09" stroke-width="1.51"/><path d="M2500,-370L2288,62L2592,82Z" fill="#f7741e" stroke="#f7741e" stroke-width="1.51"/><path d="M2304,3222L2173,3835L2640,3351Z" fill="#f45c07" stroke="#f45c07" stroke-width="1.51"/><path d="M2472,2992L2304,3222L2640,3351Z" fill="#f46107" stroke="#f46107" stroke-width="1.51"/><path d="M2589,2515L2298,2689L2681,2773Z" fill="#f56d15" stroke="#f56d15" stroke-width="1.51"/><path d="M2298,2689L2472,2992L2681,2773Z" fill="#f46d0a" stroke="#f46d0a" stroke-width="1.51"/><path d="M2354,-374L2288,62L2500,-370Z" fill="#f67b19" stroke="#f67b19" stroke-width="1.51"/><path d="M2445,388L2113,478L2619,540Z" fill="#f97b28" stroke="#f97b28" stroke-width="1.51"/><path d="M2113,478L2196,959L2619,540Z" fill="#f98627" stroke="#f98627" stroke-width="1.51"/><path d="M2460,1637L2114,1830L2500,2096Z" fill="#fa7d2f" stroke="#fa7d2f" stroke-width="1.51"/><path d="M2328,3919L2268,4565L2535,4011Z" fill="#f56b09" stroke="#f56b09" stroke-width="1.51"/><path d="M2438,2436L2298,2689L2589,2515Z" fill="#f6701a" stroke="#f6701a" stroke-width="1.51"/><path d="M2592,82L2288,62L2607,233Z" fill="#f97024" stroke="#f97024" stroke-width="1.51"/><path d="M2288,62L2445,388L2607,233Z" fill="#fa7027" stroke="#fa7027" stroke-width="1.51"/><path d="M2113,478L2050,829L2196,959Z" fill="#f79228" stroke="#f79228" stroke-width="1.51"/><path d="M2026,3733L2173,3835L2304,3222Z" fill="#f46106" stroke="#f46106" stroke-width="1.51"/><path d="M1940,3546L2026,3733L2304,3222Z" fill="#f46906" stroke="#f46906" stroke-width="1.51"/><path d="M1909,4224L2268,4565L2328,3919Z" fill="#f47a09" stroke="#f47a09" stroke-width="1.51"/><path d="M2114,1830L2097,1923L2500,2096Z" fill="#f97f30" stroke="#f97f30" stroke-width="1.51"/><path d="M2505,1121L2187,1196L2536,1241Z" fill="#f79225" stroke="#f79225" stroke-width="1.51"/><path d="M2187,1196L2373,1533L2536,1241Z" fill="#f79028" stroke="#f79028" stroke-width="1.51"/><path d="M2250,3066L2304,3222L2472,2992Z" fill="#f36b06" stroke="#f36b06" stroke-width="1.51"/><path d="M2298,2689L2250,3066L2472,2992Z" fill="#f37206" stroke="#f37206" stroke-width="1.51"/><path d="M1961,2295L2438,2436L2500,2096Z" fill="#f87927" stroke="#f87927" stroke-width="1.51"/><path d="M2097,1923L1961,2295L2500,2096Z" fill="#f87f2e" stroke="#f87f2e" stroke-width="1.51"/><path d="M2196,959L2187,1196L2505,1121Z" fill="#f79725" stroke="#f79725" stroke-width="1.51"/><path d="M1156,4292L707,4414L1938,4502Z" fill="#fa9435" stroke="#fa9435" stroke-width="1.51"/><path d="M2019,-170L2288,62L2354,-374Z" fill="#f6811b" stroke="#f6811b" stroke-width="1.51"/><path d="M2373,1533L2114,1830L2460,1637Z" fill="#f9862d" stroke="#f9862d" stroke-width="1.51"/><path d="M1714,4381L1156,4292L1938,4502Z" fill="#f69122" stroke="#f69122" stroke-width="1.51"/><path d="M2288,62L2113,478L2445,388Z" fill="#f97929" stroke="#f97929" stroke-width="1.51"/><path d="M1961,2295L2298,2689L2438,2436Z" fill="#f67b1e" stroke="#f67b1e" stroke-width="1.51"/><path d="M1909,4224L1938,4502L2268,4565Z" fill="#f3890a" stroke="#f3890a" stroke-width="1.51"/><path d="M2173,3835L1909,4224L2328,3919Z" fill="#f46e08" stroke="#f46e08" stroke-width="1.51"/><path d="M2010,1823L2114,1830L2373,1533Z" fill="#f88a2e" stroke="#f88a2e" stroke-width="1.51"/><path d="M2084,1208L2010,1823L2373,1533Z" fill="#f7922c" stroke="#f7922c" stroke-width="1.51"/><path d="M2187,1196L2084,1208L2373,1533Z" fill="#f69628" stroke="#f69628" stroke-width="1.51"/><path d="M2063,3138L1940,3546L2304,3222Z" fill="#f36f06" stroke="#f36f06" stroke-width="1.51"/><path d="M2092,-580L2019,-170L2354,-374Z" fill="#f48712" stroke="#f48712" stroke-width="1.51"/><path d="M1820,2761L2063,3138L2250,3066Z" fill="#f27d05" stroke="#f27d05" stroke-width="1.51"/><path d="M1820,2761L2250,3066L2298,2689Z" fill="#f27d08" stroke="#f27d08" stroke-width="1.51"/><path d="M1703,1515L2010,1823L2084,1208Z" fill="#f69c2d" stroke="#f69c2d" stroke-width="1.51"/><path d="M1783,353L2113,478L2288,62Z" fill="#f9832a" stroke="#f9832a" stroke-width="1.51"/><path d="M1961,2295L1820,2761L2298,2689Z" fill="#f48419" stroke="#f48419" stroke-width="1.51"/><path d="M2250,3066L2063,3138L2304,3222Z" fill="#f37006" stroke="#f37006" stroke-width="1.51"/><path d="M2019,-170L1783,353L2288,62Z" fill="#f78625" stroke="#f78625" stroke-width="1.51"/><path d="M460,-430L1192,-482L1439,-585Z" fill="#f7a334" stroke="#f7a334" stroke-width="1.51"/><path d="M1708,-33L1783,353L2019,-170Z" fill="#f78d27" stroke="#f78d27" stroke-width="1.51"/><path d="M2084,1208L2187,1196L2196,959Z" fill="#f59e26" stroke="#f59e26" stroke-width="1.51"/><path d="M1727,2664L1820,2761L1961,2295Z" fill="#f48a1e" stroke="#f48a1e" stroke-width="1.51"/><path d="M2026,3733L1909,4224L2173,3835Z" fill="#f46f07" stroke="#f46f07" stroke-width="1.51"/><path d="M2050,829L2084,1208L2196,959Z" fill="#f69c27" stroke="#f69c27" stroke-width="1.51"/><path d="M1819,517L2050,829L2113,478Z" fill="#f7922a" stroke="#f7922a" stroke-width="1.51"/><path d="M1642,4159L1909,4224L2026,3733Z" fill="#f47c0a" stroke="#f47c0a" stroke-width="1.51"/><path d="M2050,829L1644,951L2084,1208Z" fill="#f5a328" stroke="#f5a328" stroke-width="1.51"/><path d="M1439,-585L2019,-170L2092,-580Z" fill="#f39412" stroke="#f39412" stroke-width="1.51"/><path d="M2010,1823L1961,2295L2097,1923Z" fill="#f98731" stroke="#f98731" stroke-width="1.51"/><path d="M1783,353L1819,517L2113,478Z" fill="#f78f2b" stroke="#f78f2b" stroke-width="1.51"/><path d="M2010,1823L2097,1923L2114,1830Z" fill="#f98a30" stroke="#f98a30" stroke-width="1.51"/><path d="M1749,3641L1642,4159L2026,3733Z" fill="#f4720f" stroke="#f4720f" stroke-width="1.51"/><path d="M1571,3171L1940,3546L2063,3138Z" fill="#f37a09" stroke="#f37a09" stroke-width="1.51"/><path d="M1692,2374L1727,2664L1961,2295Z" fill="#f68b26" stroke="#f68b26" stroke-width="1.51"/><path d="M1544,1840L1961,2295L2010,1823Z" fill="#f98e35" stroke="#f98e35" stroke-width="1.51"/><path d="M1439,-585L1708,-33L2019,-170Z" fill="#f69324" stroke="#f69324" stroke-width="1.51"/><path d="M1571,3171L1617,3494L1940,3546Z" fill="#f47817" stroke="#f47817" stroke-width="1.51"/><path d="M1644,951L1703,1515L2084,1208Z" fill="#f5a82d" stroke="#f5a82d" stroke-width="1.51"/><path d="M1820,2761L1571,3171L2063,3138Z" fill="#f3840d" stroke="#f3840d" stroke-width="1.51"/><path d="M1544,1840L1692,2374L1961,2295Z" fill="#f98e35" stroke="#f98e35" stroke-width="1.51"/><path d="M1819,517L1644,951L2050,829Z" fill="#f69d2c" stroke="#f69d2c" stroke-width="1.51"/><path d="M1940,3546L1749,3641L2026,3733Z" fill="#f36d06" stroke="#f36d06" stroke-width="1.51"/><path d="M1703,1515L1544,1840L2010,1823Z" fill="#f89836" stroke="#f89836" stroke-width="1.51"/><path d="M1909,4224L1714,4381L1938,4502Z" fill="#f48d0d" stroke="#f48d0d" stroke-width="1.51"/><path d="M1644,951L1431,1260L1703,1515Z" fill="#f7a939" stroke="#f7a939" stroke-width="1.51"/><path d="M1617,3494L1749,3641L1940,3546Z" fill="#f47212" stroke="#f47212" stroke-width="1.51"/><path d="M1642,4159L1714,4381L1909,4224Z" fill="#f58916" stroke="#f58916" stroke-width="1.51"/><path d="M1439,-585L1255,-123L1708,-33Z" fill="#f89532" stroke="#f89532" stroke-width="1.51"/><path d="M1379,3643L1642,4159L1749,3641Z" fill="#f7721f" stroke="#f7721f" stroke-width="1.51"/><path d="M1708,-33L1475,349L1783,353Z" fill="#fa8d36" stroke="#fa8d36" stroke-width="1.51"/><path d="M1783,353L1511,511L1819,517Z" fill="#f99234" stroke="#f99234" stroke-width="1.51"/><path d="M1511,511L1644,951L1819,517Z" fill="#f99b35" stroke="#f99b35" stroke-width="1.51"/><path d="M1727,2664L1571,3171L1820,2761Z" fill="#f38918" stroke="#f38918" stroke-width="1.51"/><path d="M1174,2905L1571,3171L1727,2664Z" fill="#f68a26" stroke="#f68a26" stroke-width="1.51"/><path d="M1475,349L1511,511L1783,353Z" fill="#fb913a" stroke="#fb913a" stroke-width="1.51"/><path d="M1379,3643L1258,4081L1642,4159Z" fill="#f87c29" stroke="#f87c29" stroke-width="1.51"/><path d="M1544,1840L1292,1871L1692,2374Z" fill="#fd9043" stroke="#fd9043" stroke-width="1.51"/><path d="M1617,3494L1379,3643L1749,3641Z" fill="#f7721e" stroke="#f7721e" stroke-width="1.51"/><path d="M1511,511L1263,908L1644,951Z" fill="#faa13e" stroke="#faa13e" stroke-width="1.51"/><path d="M1292,1871L1123,2386L1692,2374Z" fill="#fd9044" stroke="#fd9044" stroke-width="1.51"/><path d="M1255,-123L1475,349L1708,-33Z" fill="#fb913a" stroke="#fb913a" stroke-width="1.51"/><path d="M1692,2374L1144,2665L1727,2664Z" fill="#f88d30" stroke="#f88d30" stroke-width="1.51"/><path d="M1144,2665L1174,2905L1727,2664Z" fill="#f88d33" stroke="#f88d33" stroke-width="1.51"/><path d="M1123,2386L1144,2665L1692,2374Z" fill="#fb8f3d" stroke="#fb8f3d" stroke-width="1.51"/><path d="M1642,4159L1156,4292L1714,4381Z" fill="#f88c27" stroke="#f88c27" stroke-width="1.51"/><path d="M1185,1702L1544,1840L1703,1515Z" fill="#fb9c42" stroke="#fb9c42" stroke-width="1.51"/><path d="M1431,1260L1171,1432L1703,1515Z" fill="#f9a542" stroke="#f9a542" stroke-width="1.51"/><path d="M1171,1432L1185,1702L1703,1515Z" fill="#fca147" stroke="#fca147" stroke-width="1.51"/><path d="M-628,-471L118,-366L460,-430Z" fill="#f99531" stroke="#f99531" stroke-width="1.51"/><path d="M1192,-482L1255,-123L1439,-585Z" fill="#f99837" stroke="#f99837" stroke-width="1.51"/><path d="M1571,3171L1134,3435L1617,3494Z" fill="#f77c27" stroke="#f77c27" stroke-width="1.51"/><path d="M1258,4081L1156,4292L1642,4159Z" fill="#f9882e" stroke="#f9882e" stroke-width="1.51"/><path d="M1263,908L1431,1260L1644,951Z" fill="#f9aa3f" stroke="#f9aa3f" stroke-width="1.51"/><path d="M1134,3435L1379,3643L1617,3494Z" fill="#f9762a" stroke="#f9762a" stroke-width="1.51"/><path d="M1255,-123L1224,369L1475,349Z" fill="#fe9044" stroke="#fe9044" stroke-width="1.51"/><path d="M1185,1702L1292,1871L1544,1840Z" fill="#fd9949" stroke="#fd9949" stroke-width="1.51"/><path d="M1174,2905L1134,3435L1571,3171Z" fill="#f9832f" stroke="#f9832f" stroke-width="1.51"/><path d="M1097,549L1263,908L1511,511Z" fill="#fd9e47" stroke="#fd9e47" stroke-width="1.51"/><path d="M1475,349L1224,369L1511,511Z" fill="#fd9342" stroke="#fd9342" stroke-width="1.51"/><path d="M1224,369L1097,549L1511,511Z" fill="#fe9748" stroke="#fe9748" stroke-width="1.51"/><path d="M987,147L1224,369L1255,-123Z" fill="#fe9644" stroke="#fe9644" stroke-width="1.51"/><path d="M949,2183L1123,2386L1292,1871Z" fill="#fd9849" stroke="#fd9849" stroke-width="1.51"/><path d="M896,3870L1258,4081L1379,3643Z" fill="#fb7c30" stroke="#fb7c30" stroke-width="1.51"/><path d="M1263,908L1004,1357L1431,1260Z" fill="#faaf49" stroke="#faaf49" stroke-width="1.51"/><path d="M1004,1357L1171,1432L1431,1260Z" fill="#fbaa4a" stroke="#fbaa4a" stroke-width="1.51"/><path d="M1024,2921L1134,3435L1174,2905Z" fill="#f88d2f" stroke="#f88d2f" stroke-width="1.51"/><path d="M1134,3435L896,3870L1379,3643Z" fill="#fa792e" stroke="#fa792e" stroke-width="1.51"/><path d="M1024,2921L791,3321L1134,3435Z" fill="#f88e2d" stroke="#f88e2d" stroke-width="1.51"/><path d="M460,-430L813,-316L1192,-482Z" fill="#f6ac32" stroke="#f6ac32" stroke-width="1.51"/><path d="M1192,-482L813,-316L1255,-123Z" fill="#f99e39" stroke="#f99e39" stroke-width="1.51"/><path d="M1097,549L1009,592L1263,908Z" fill="#fca547" stroke="#fca547" stroke-width="1.51"/><path d="M1009,592L936,890L1263,908Z" fill="#fbac47" stroke="#fbac47" stroke-width="1.51"/><path d="M936,890L1004,1357L1263,908Z" fill="#f9b447" stroke="#f9b447" stroke-width="1.51"/><path d="M1185,1702L949,2183L1292,1871Z" fill="#fe9b4e" stroke="#fe9b4e" stroke-width="1.51"/><path d="M832,4173L1156,4292L1258,4081Z" fill="#f99131" stroke="#f99131" stroke-width="1.51"/><path d="M896,3870L832,4173L1258,4081Z" fill="#f98e2e" stroke="#f98e2e" stroke-width="1.51"/><path d="M789,21L987,147L1255,-123Z" fill="#fb9e40" stroke="#fb9e40" stroke-width="1.51"/><path d="M813,-316L789,21L1255,-123Z" fill="#f9a33b" stroke="#f9a33b" stroke-width="1.51"/><path d="M1144,2665L1024,2921L1174,2905Z" fill="#f89332" stroke="#f89332" stroke-width="1.51"/><path d="M816,2161L949,2183L1185,1702Z" fill="#fd9f4c" stroke="#fd9f4c" stroke-width="1.51"/><path d="M889,1553L816,2161L1185,1702Z" fill="#fca74b" stroke="#fca74b" stroke-width="1.51"/><path d="M1171,1432L889,1553L1185,1702Z" fill="#fca94a" stroke="#fca94a" stroke-width="1.51"/><path d="M987,147L1097,549L1224,369Z" fill="#fe9a47" stroke="#fe9a47" stroke-width="1.51"/><path d="M703,3724L896,3870L1134,3435Z" fill="#f9832a" stroke="#f9832a" stroke-width="1.51"/><path d="M1123,2386L825,2650L1144,2665Z" fill="#f99a3b" stroke="#f99a3b" stroke-width="1.51"/><path d="M1004,1357L889,1553L1171,1432Z" fill="#fab049" stroke="#fab049" stroke-width="1.51"/><path d="M987,147L1009,592L1097,549Z" fill="#fda046" stroke="#fda046" stroke-width="1.51"/><path d="M832,4173L707,4414L1156,4292Z" fill="#f89e2f" stroke="#f89e2f" stroke-width="1.51"/><path d="M735,4265L707,4414L832,4173Z" fill="#f6a42c" stroke="#f6a42c" stroke-width="1.51"/><path d="M791,3321L703,3724L1134,3435Z" fill="#f88b2a" stroke="#f88b2a" stroke-width="1.51"/><path d="M825,2650L1024,2921L1144,2665Z" fill="#f79a33" stroke="#f79a33" stroke-width="1.51"/><path d="M936,890L666,1188L1004,1357Z" fill="#f6c044" stroke="#f6c044" stroke-width="1.51"/><path d="M949,2183L825,2650L1123,2386Z" fill="#fa9e3f" stroke="#fa9e3f" stroke-width="1.51"/><path d="M622,3440L703,3724L791,3321Z" fill="#f79327" stroke="#f79327" stroke-width="1.51"/><path d="M493,2022L816,2161L889,1553Z" fill="#faad49" stroke="#faad49" stroke-width="1.51"/><path d="M816,2161L825,2650L949,2183Z" fill="#faa240" stroke="#faa240" stroke-width="1.51"/><path d="M789,21L491,200L987,147Z" fill="#faa83f" stroke="#faa83f" stroke-width="1.51"/><path d="M987,147L491,200L1009,592Z" fill="#fca444" stroke="#fca444" stroke-width="1.51"/><path d="M491,200L663,748L1009,592Z" fill="#f9b043" stroke="#f9b043" stroke-width="1.51"/><path d="M663,748L936,890L1009,592Z" fill="#fab244" stroke="#fab244" stroke-width="1.51"/><path d="M825,2650L608,2973L1024,2921Z" fill="#f5a12c" stroke="#f5a12c" stroke-width="1.51"/><path d="M608,2973L791,3321L1024,2921Z" fill="#f69b2a" stroke="#f69b2a" stroke-width="1.51"/><path d="M666,1188L889,1553L1004,1357Z" fill="#f8b946" stroke="#f8b946" stroke-width="1.51"/><path d="M582,1498L493,2022L889,1553Z" fill="#f8b846" stroke="#f8b846" stroke-width="1.51"/><path d="M619,-90L789,21L813,-316Z" fill="#f8ac39" stroke="#f8ac39" stroke-width="1.51"/><path d="M816,2161L455,2262L825,2650Z" fill="#f8a93d" stroke="#f8a93d" stroke-width="1.51"/><path d="M666,1188L582,1498L889,1553Z" fill="#f7be45" stroke="#f7be45" stroke-width="1.51"/><path d="M618,4088L832,4173L896,3870Z" fill="#f8982b" stroke="#f8982b" stroke-width="1.51"/><path d="M663,748L666,1188L936,890Z" fill="#f7be43" stroke="#f7be43" stroke-width="1.51"/><path d="M663,748L529,816L666,1188Z" fill="#f5c341" stroke="#f5c341" stroke-width="1.51"/><path d="M703,3724L618,4088L896,3870Z" fill="#f89229" stroke="#f89229" stroke-width="1.51"/><path d="M428,2849L608,2973L825,2650Z" fill="#f4aa29" stroke="#f4aa29" stroke-width="1.51"/><path d="M455,2262L428,2849L825,2650Z" fill="#f6a933" stroke="#f6a933" stroke-width="1.51"/><path d="M618,4088L735,4265L832,4173Z" fill="#f7a02a" stroke="#f7a02a" stroke-width="1.51"/><path d="M608,2973L622,3440L791,3321Z" fill="#f69b27" stroke="#f69b27" stroke-width="1.51"/><path d="M493,2022L455,2262L816,2161Z" fill="#f9ad44" stroke="#f9ad44" stroke-width="1.51"/><path d="M460,-430L619,-90L813,-316Z" fill="#f5b233" stroke="#f5b233" stroke-width="1.51"/><path d="M619,-90L491,200L789,21Z" fill="#f8ae3b" stroke="#f8ae3b" stroke-width="1.51"/><path d="M491,200L208,280L529,816Z" fill="#fba842" stroke="#fba842" stroke-width="1.51"/><path d="M208,280L144,669L529,816Z" fill="#fba842" stroke="#fba842" stroke-width="1.51"/><path d="M379,2013L493,2022L582,1498Z" fill="#faae48" stroke="#faae48" stroke-width="1.51"/><path d="M491,200L529,816L663,748Z" fill="#f8b541" stroke="#f8b541" stroke-width="1.51"/><path d="M301,3806L618,4088L703,3724Z" fill="#f89326" stroke="#f89326" stroke-width="1.51"/><path d="M340,4373L707,4414L735,4265Z" fill="#f6ad2a" stroke="#f6ad2a" stroke-width="1.51"/><path d="M618,4088L340,4373L735,4265Z" fill="#f6a629" stroke="#f6a629" stroke-width="1.51"/><path d="M374,2264L428,2849L455,2262Z" fill="#f8a239" stroke="#f8a239" stroke-width="1.51"/><path d="M292,1490L379,2013L582,1498Z" fill="#fab046" stroke="#fab046" stroke-width="1.51"/><path d="M608,2973L155,3123L622,3440Z" fill="#f69827" stroke="#f69827" stroke-width="1.51"/><path d="M622,3440L301,3806L703,3724Z" fill="#f88e25" stroke="#f88e25" stroke-width="1.51"/><path d="M529,816L204,1039L666,1188Z" fill="#f6bf41" stroke="#f6bf41" stroke-width="1.51"/><path d="M155,3123L182,3406L622,3440Z" fill="#f88d27" stroke="#f88d27" stroke-width="1.51"/><path d="M292,1490L582,1498L666,1188Z" fill="#f7bd43" stroke="#f7bd43" stroke-width="1.51"/><path d="M172,1216L292,1490L666,1188Z" fill="#f8ba42" stroke="#f8ba42" stroke-width="1.51"/><path d="M204,1039L172,1216L666,1188Z" fill="#f6bd41" stroke="#f6bd41" stroke-width="1.51"/><path d="M428,2849L155,3123L608,2973Z" fill="#f69b28" stroke="#f69b28" stroke-width="1.51"/><path d="M144,4197L340,4373L618,4088Z" fill="#f89b2a" stroke="#f89b2a" stroke-width="1.51"/><path d="M185,-72L491,200L619,-90Z" fill="#faa63b" stroke="#faa63b" stroke-width="1.51"/><path d="M460,-430L185,-72L619,-90Z" fill="#f8a836" stroke="#f8a836" stroke-width="1.51"/><path d="M182,3406L301,3806L622,3440Z" fill="#f88826" stroke="#f88826" stroke-width="1.51"/><path d="M301,3806L144,4197L618,4088Z" fill="#f89129" stroke="#f89129" stroke-width="1.51"/><path d="M374,2264L118,2851L428,2849Z" fill="#f89c32" stroke="#f89c32" stroke-width="1.51"/><path d="M-227,4258L-419,4363L340,4373Z" fill="#f98e2a" stroke="#f98e2a" stroke-width="1.51"/><path d="M-64,2510L118,2851L374,2264Z" fill="#fa9437" stroke="#fa9437" stroke-width="1.51"/><path d="M379,2013L374,2264L455,2262Z" fill="#faa443" stroke="#faa443" stroke-width="1.51"/><path d="M118,-366L185,-72L460,-430Z" fill="#f8a134" stroke="#f8a134" stroke-width="1.51"/><path d="M379,2013L455,2262L493,2022Z" fill="#faa645" stroke="#faa645" stroke-width="1.51"/><path d="M144,669L204,1039L529,816Z" fill="#f9b141" stroke="#f9b141" stroke-width="1.51"/><path d="M292,1490L-78,1752L379,2013Z" fill="#fca347" stroke="#fca347" stroke-width="1.51"/><path d="M185,-72L208,280L491,200Z" fill="#fc9e3e" stroke="#fc9e3e" stroke-width="1.51"/><path d="M118,2851L155,3123L428,2849Z" fill="#f6952a" stroke="#f6952a" stroke-width="1.51"/><path d="M144,669L18,812L204,1039Z" fill="#fba842" stroke="#fba842" stroke-width="1.51"/><path d="M6,3845L144,4197L301,3806Z" fill="#fa8229" stroke="#fa8229" stroke-width="1.51"/><path d="M144,4197L-227,4258L340,4373Z" fill="#fa902d" stroke="#fa902d" stroke-width="1.51"/><path d="M-201,2025L374,2264L379,2013Z" fill="#fd9a46" stroke="#fd9a46" stroke-width="1.51"/><path d="M-78,1752L-201,2025L379,2013Z" fill="#fe9548" stroke="#fe9548" stroke-width="1.51"/><path d="M-5,412L144,669L208,280Z" fill="#fd9a42" stroke="#fd9a42" stroke-width="1.51"/><path d="M-201,2025L-64,2510L374,2264Z" fill="#fd9140" stroke="#fd9140" stroke-width="1.51"/><path d="M182,3406L6,3845L301,3806Z" fill="#fa7828" stroke="#fa7828" stroke-width="1.51"/><path d="M155,3123L42,3237L182,3406Z" fill="#f98529" stroke="#f98529" stroke-width="1.51"/><path d="M172,1216L-78,1752L292,1490Z" fill="#fba844" stroke="#fba844" stroke-width="1.51"/><path d="M-154,1149L-380,1349L-78,1752Z" fill="#faa63e" stroke="#faa63e" stroke-width="1.51"/><path d="M-291,-225L-40,-248L118,-366Z" fill="#fa9533" stroke="#fa9533" stroke-width="1.51"/><path d="M-628,-471L-291,-225L118,-366Z" fill="#f79929" stroke="#f79929" stroke-width="1.51"/><path d="M-154,1149L-78,1752L172,1216Z" fill="#fca544" stroke="#fca544" stroke-width="1.51"/><path d="M-425,236L-5,412L185,-72Z" fill="#fe8e3e" stroke="#fe8e3e" stroke-width="1.51"/><path d="M-40,-248L-425,236L185,-72Z" fill="#fc9239" stroke="#fc9239" stroke-width="1.51"/><path d="M118,-366L-40,-248L185,-72Z" fill="#fa9836" stroke="#fa9836" stroke-width="1.51"/><path d="M-154,1149L172,1216L204,1039Z" fill="#f9b041" stroke="#f9b041" stroke-width="1.51"/><path d="M185,-72L-5,412L208,280Z" fill="#fe9540" stroke="#fe9540" stroke-width="1.51"/><path d="M42,3237L6,3845L182,3406Z" fill="#fa7a29" stroke="#fa7a29" stroke-width="1.51"/><path d="M18,812L-154,1149L204,1039Z" fill="#fba942" stroke="#fba942" stroke-width="1.51"/><path d="M-291,-225L-425,236L-40,-248Z" fill="#fa9532" stroke="#fa9532" stroke-width="1.51"/><path d="M6,3845L-201,4178L144,4197Z" fill="#fa802b" stroke="#fa802b" stroke-width="1.51"/><path d="M118,2851L-234,2926L155,3123Z" fill="#f9882b" stroke="#f9882b" stroke-width="1.51"/><path d="M-353,3189L6,3845L42,3237Z" fill="#f97926" stroke="#f97926" stroke-width="1.51"/><path d="M-64,2510L-236,2728L118,2851Z" fill="#f98c30" stroke="#f98c30" stroke-width="1.51"/><path d="M-234,2926L42,3237L155,3123Z" fill="#f9822a" stroke="#f9822a" stroke-width="1.51"/><path d="M-201,4178L-227,4258L144,4197Z" fill="#f98829" stroke="#f98829" stroke-width="1.51"/><path d="M-5,412L-220,552L144,669Z" fill="#fe9642" stroke="#fe9642" stroke-width="1.51"/><path d="M-220,552L18,812L144,669Z" fill="#fd9b42" stroke="#fd9b42" stroke-width="1.51"/><path d="M-470,3243L-630,3634L-353,3189Z" fill="#f48312" stroke="#f48312" stroke-width="1.51"/><path d="M-353,3189L-630,3634L6,3845Z" fill="#f7791c" stroke="#f7791c" stroke-width="1.51"/><path d="M-236,2728L-234,2926L118,2851Z" fill="#f78c28" stroke="#f78c28" stroke-width="1.51"/><path d="M-399,908L-154,1149L18,812Z" fill="#f9a83c" stroke="#f9a83c" stroke-width="1.51"/><path d="M-234,2926L-353,3189L42,3237Z" fill="#f78523" stroke="#f78523" stroke-width="1.51"/><path d="M-220,552L-399,908L18,812Z" fill="#faa23b" stroke="#faa23b" stroke-width="1.51"/><path d="M-380,1349L-482,1648L-78,1752Z" fill="#f9a33c" stroke="#f9a33c" stroke-width="1.51"/><path d="M-425,236L-220,552L-5,412Z" fill="#fc943c" stroke="#fc943c" stroke-width="1.51"/><path d="M-624,3981L-201,4178L6,3845Z" fill="#f78120" stroke="#f78120" stroke-width="1.51"/><path d="M-630,3634L-624,3981L6,3845Z" fill="#f67a17" stroke="#f67a17" stroke-width="1.51"/><path d="M-201,2025L-603,2237L-64,2510Z" fill="#fa9338" stroke="#fa9338" stroke-width="1.51"/><path d="M-512,-83L-425,236L-291,-225Z" fill="#f8972d" stroke="#f8972d" stroke-width="1.51"/><path d="M-603,2237L-236,2728L-64,2510Z" fill="#f8922f" stroke="#f8922f" stroke-width="1.51"/><path d="M-482,1648L-201,2025L-78,1752Z" fill="#fc9b3f" stroke="#fc9b3f" stroke-width="1.51"/><path d="M-603,2237L-617,2687L-236,2728Z" fill="#f59525" stroke="#f59525" stroke-width="1.51"/><path d="M-399,908L-380,1349L-154,1149Z" fill="#f6b137" stroke="#f6b137" stroke-width="1.51"/><path d="M-569,664L-399,908L-220,552Z" fill="#f8a335" stroke="#f8a335" stroke-width="1.51"/><path d="M-419,4363L-227,4258L-201,4178Z" fill="#f78f21" stroke="#f78f21" stroke-width="1.51"/><path d="M-624,3981L-419,4363L-201,4178Z" fill="#f68c1a" stroke="#f68c1a" stroke-width="1.51"/><path d="M-482,1648L-604,2064L-201,2025Z" fill="#fa9a3b" stroke="#fa9a3b" stroke-width="1.51"/><path d="M-604,2064L-603,2237L-201,2025Z" fill="#f99737" stroke="#f99737" stroke-width="1.51"/><path d="M-236,2728L-617,2687L-234,2926Z" fill="#f59120" stroke="#f59120" stroke-width="1.51"/><path d="M-425,236L-569,664L-220,552Z" fill="#fa9b35" stroke="#fa9b35" stroke-width="1.51"/><path d="M-617,2687L-353,3189L-234,2926Z" fill="#f48f18" stroke="#f48f18" stroke-width="1.51"/><path d="M-617,2687L-470,3243L-353,3189Z" fill="#f38d14" stroke="#f38d14" stroke-width="1.51"/><path d="M-628,-471L-512,-83L-291,-225Z" fill="#f59b23" stroke="#f59b23" stroke-width="1.51"/><path d="M-399,908L-569,664L-380,1349Z" fill="#f6ad32" stroke="#f6ad32" stroke-width="1.51"/><path d="M-569,664L-482,1648L-380,1349Z" fill="#f5b131" stroke="#f5b131" stroke-width="1.51"/><path d="M-512,-83L-569,664L-425,236Z" fill="#fa9532" stroke="#fa9532" stroke-width="1.51"/><path d="M-569,664L-604,2064L-482,1648Z" fill="#f5ab32" stroke="#f5ab32" stroke-width="1.51"/><path d="M-617,2687L-630,3634L-470,3243Z" fill="#f38a0c" stroke="#f38a0c" stroke-width="1.51"/><path d="M-628,-471L-569,664L-512,-83Z" fill="#f79928" stroke="#f79928" stroke-width="1.51"/><path d="M-628,-471L-604,2064L-569,664Z" fill="#f6a72c" stroke="#f6a72c" stroke-width="1.51"/><path d="M-604,2064L-617,2687L-603,2237Z" fill="#f69829" stroke="#f69829" stroke-width="1.51"/></svg>