<svg xmlns="http://www.w3.org/2000/svg" width="2500" height="800"><path d="M-191,-473L436,-344L896,-344Z" fill="#e9f8f5" stroke="#e9f8f5" stroke-width="1.51"/><path d="M-191,-473L896,-344L1714,-493Z" fill="#cbe8e7" stroke="#cbe8e7" stroke-width="1.51"/><path d="M1774,1212L584,1354L2316,1272Z" fill="#c1d6d7" stroke="#c1d6d7" stroke-width="1.51"/><path d="M-191,-473L1714,-493L2493,-527Z" fill="#aed8d8" stroke="#aed8d8" stroke-width="1.51"/><path d="M2735,432L2658,500L2819,821Z" fill="#bed1d2" stroke="#bed1d2" stroke-width="1.51"/><path d="M2735,432L2819,821L2883,200Z" fill="#bad4d6" stroke="#bad4d6" stroke-width="1.51"/><path d="M2649,-193L2883,200L2970,4Z" fill="#e5eeed" stroke="#e5eeed" stroke-width="1.51"/><path d="M2799,-492L2649,-193L2970,4Z" fill="#e9f1f0" stroke="#e9f1f0" stroke-width="1.51"/><path d="M2883,200L2819,821L2970,4Z" fill="#bedadc" stroke="#bedadc" stroke-width="1.51"/><path d="M2658,500L2582,722L2819,821Z" fill="#c2cfd0" stroke="#c2cfd0" stroke-width="1.51"/><path d="M2522,1106L2738,1181L2819,821Z" fill="#d7d9d8" stroke="#d7d9d8" stroke-width="1.51"/><path d="M2518,257L2735,432L2883,200Z" fill="#bed7d9" stroke="#bed7d9" stroke-width="1.51"/><path d="M2649,-193L2518,257L2883,200Z" fill="#d6e3e4" stroke="#d6e3e4" stroke-width="1.51"/><path d="M1714,-493L2124,-404L2493,-527Z" fill="#cad7d5" stroke="#cad7d5" stroke-width="1.51"/><path d="M2493,-527L2649,-193L2799,-492Z" fill="#deeae8" stroke="#deeae8" stroke-width="1.51"/><path d="M2582,722L2522,1106L2819,821Z" fill="#cccdcd" stroke="#cccdcd" stroke-width="1.51"/><path d="M2522,1106L2316,1272L2738,1181Z" fill="#dadddc" stroke="#dadddc" stroke-width="1.51"/><path d="M2518,257L2658,500L2735,432Z" fill="#b0ced0" stroke="#b0ced0" stroke-width="1.51"/><path d="M2493,-527L2124,-404L2649,-193Z" fill="#d7e3e0" stroke="#d7e3e0" stroke-width="1.51"/><path d="M2201,31L2518,257L2649,-193Z" fill="#d5dfdf" stroke="#d5dfdf" stroke-width="1.51"/><path d="M2255,561L2582,722L2658,500Z" fill="#b6c9ca" stroke="#b6c9ca" stroke-width="1.51"/><path d="M2518,257L2255,561L2658,500Z" fill="#adc8ca" stroke="#adc8ca" stroke-width="1.51"/><path d="M2250,360L2255,561L2518,257Z" fill="#a7c4c7" stroke="#a7c4c7" stroke-width="1.51"/><path d="M2161,874L2522,1106L2582,722Z" fill="#c5c6c6" stroke="#c5c6c6" stroke-width="1.51"/><path d="M2124,-404L2201,31L2649,-193Z" fill="#dae0df" stroke="#dae0df" stroke-width="1.51"/><path d="M2255,561L2161,874L2582,722Z" fill="#b9c3c3" stroke="#b9c3c3" stroke-width="1.51"/><path d="M1345,1125L584,1354L1774,1212Z" fill="#b5d4d6" stroke="#b5d4d6" stroke-width="1.51"/><path d="M2201,31L2250,360L2518,257Z" fill="#bbcfcf" stroke="#bbcfcf" stroke-width="1.51"/><path d="M2161,874L2316,1272L2522,1106Z" fill="#cecfcf" stroke="#cecfcf" stroke-width="1.51"/><path d="M2124,-404L1984,-64L2201,31Z" fill="#d4dad9" stroke="#d4dad9" stroke-width="1.51"/><path d="M2201,31L1989,328L2250,360Z" fill="#b2c7c8" stroke="#b2c7c8" stroke-width="1.51"/><path d="M2161,874L1774,1212L2316,1272Z" fill="#c8caca" stroke="#c8caca" stroke-width="1.51"/><path d="M1891,615L2161,874L2255,561Z" fill="#afbcbd" stroke="#afbcbd" stroke-width="1.51"/><path d="M2250,360L1989,328L2255,561Z" fill="#a1bdc0" stroke="#a1bdc0" stroke-width="1.51"/><path d="M1989,328L1891,615L2255,561Z" fill="#a3bcbe" stroke="#a3bcbe" stroke-width="1.51"/><path d="M1891,615L1855,791L2161,874Z" fill="#afbcbd" stroke="#afbcbd" stroke-width="1.51"/><path d="M1855,791L1774,1212L2161,874Z" fill="#bac1c1" stroke="#bac1c1" stroke-width="1.51"/><path d="M1984,-64L1989,328L2201,31Z" fill="#c0cfd0" stroke="#c0cfd0" stroke-width="1.51"/><path d="M1748,-308L1984,-64L2124,-404Z" fill="#ccd9d9" stroke="#ccd9d9" stroke-width="1.51"/><path d="M1714,-493L1748,-308L2124,-404Z" fill="#c4d8d7" stroke="#c4d8d7" stroke-width="1.51"/><path d="M1642,1060L1774,1212L1855,791Z" fill="#b8c5c5" stroke="#b8c5c5" stroke-width="1.51"/><path d="M1503,517L1891,615L1989,328Z" fill="#99bdc0" stroke="#99bdc0" stroke-width="1.51"/><path d="M1609,44L1503,517L1989,328Z" fill="#9dc3c6" stroke="#9dc3c6" stroke-width="1.51"/><path d="M1984,-64L1609,44L1989,328Z" fill="#b9cfd0" stroke="#b9cfd0" stroke-width="1.51"/><path d="M1748,-308L1609,44L1984,-64Z" fill="#cbdbdb" stroke="#cbdbdb" stroke-width="1.51"/><path d="M1416,373L1503,517L1609,44Z" fill="#94c2c7" stroke="#94c2c7" stroke-width="1.51"/><path d="M1609,730L1855,791L1891,615Z" fill="#a7bcbe" stroke="#a7bcbe" stroke-width="1.51"/><path d="M1503,517L1609,730L1891,615Z" fill="#9dbcbf" stroke="#9dbcbf" stroke-width="1.51"/><path d="M1609,730L1642,1060L1855,791Z" fill="#adbcbd" stroke="#adbcbd" stroke-width="1.51"/><path d="M896,-344L1284,-245L1714,-493Z" fill="#b2d9db" stroke="#b2d9db" stroke-width="1.51"/><path d="M1284,-245L1609,44L1748,-308Z" fill="#c1dbdb" stroke="#c1dbdb" stroke-width="1.51"/><path d="M1642,1060L1345,1125L1774,1212Z" fill="#b9cccd" stroke="#b9cccd" stroke-width="1.51"/><path d="M1714,-493L1284,-245L1748,-308Z" fill="#bcd9d9" stroke="#bcd9d9" stroke-width="1.51"/><path d="M1609,730L1346,998L1642,1060Z" fill="#abbfc1" stroke="#abbfc1" stroke-width="1.51"/><path d="M816,1125L584,1354L1345,1125Z" fill="#c8dddd" stroke="#c8dddd" stroke-width="1.51"/><path d="M1307,30L1416,373L1609,44Z" fill="#a5cdd0" stroke="#a5cdd0" stroke-width="1.51"/><path d="M1284,-245L1307,30L1609,44Z" fill="#bcdadc" stroke="#bcdadc" stroke-width="1.51"/><path d="M1346,998L1345,1125L1642,1060Z" fill="#b0c8c9" stroke="#b0c8c9" stroke-width="1.51"/><path d="M1503,517L1308,639L1609,730Z" fill="#97bdc0" stroke="#97bdc0" stroke-width="1.51"/><path d="M1308,639L1346,998L1609,730Z" fill="#9fbdbf" stroke="#9fbdbf" stroke-width="1.51"/><path d="M1416,373L1376,397L1503,517Z" fill="#87bdc2" stroke="#87bdc2" stroke-width="1.51"/><path d="M1376,397L1308,639L1503,517Z" fill="#8dbdc2" stroke="#8dbdc2" stroke-width="1.51"/><path d="M1308,639L1019,876L1346,998Z" fill="#9ebdc0" stroke="#9ebdc0" stroke-width="1.51"/><path d="M1307,30L899,285L1376,397Z" fill="#97c9cd" stroke="#97c9cd" stroke-width="1.51"/><path d="M1307,30L1376,397L1416,373Z" fill="#94c5ca" stroke="#94c5ca" stroke-width="1.51"/><path d="M436,-344L585,-311L896,-344Z" fill="#daeeed" stroke="#daeeed" stroke-width="1.51"/><path d="M899,285L1056,551L1376,397Z" fill="#89c2c7" stroke="#89c2c7" stroke-width="1.51"/><path d="M1056,551L1308,639L1376,397Z" fill="#88bdc2" stroke="#88bdc2" stroke-width="1.51"/><path d="M1284,-245L1037,-184L1307,30Z" fill="#bbdcde" stroke="#bbdcde" stroke-width="1.51"/><path d="M1019,876L1345,1125L1346,998Z" fill="#a7c4c7" stroke="#a7c4c7" stroke-width="1.51"/><path d="M1019,876L816,1125L1345,1125Z" fill="#b5cdcf" stroke="#b5cdcf" stroke-width="1.51"/><path d="M896,-344L1037,-184L1284,-245Z" fill="#c0e0e1" stroke="#c0e0e1" stroke-width="1.51"/><path d="M1037,-184L899,285L1307,30Z" fill="#b6d9dc" stroke="#b6d9dc" stroke-width="1.51"/><path d="M1056,551L1019,876L1308,639Z" fill="#9bc1c4" stroke="#9bc1c4" stroke-width="1.51"/><path d="M171,1164L-109,1127L584,1354Z" fill="#e9f0ee" stroke="#e9f0ee" stroke-width="1.51"/><path d="M-109,1127L-472,1159L584,1354Z" fill="#e5eeed" stroke="#e5eeed" stroke-width="1.51"/><path d="M710,-226L636,223L899,285Z" fill="#c6e2e3" stroke="#c6e2e3" stroke-width="1.51"/><path d="M710,-226L899,285L1037,-184Z" fill="#cee5e7" stroke="#cee5e7" stroke-width="1.51"/><path d="M514,703L1019,876L1056,551Z" fill="#adcacc" stroke="#adcacc" stroke-width="1.51"/><path d="M899,285L514,703L1056,551Z" fill="#a3cbcf" stroke="#a3cbcf" stroke-width="1.51"/><path d="M896,-344L710,-226L1037,-184Z" fill="#cde7e7" stroke="#cde7e7" stroke-width="1.51"/><path d="M533,934L816,1125L1019,876Z" fill="#c2d3d3" stroke="#c2d3d3" stroke-width="1.51"/><path d="M514,703L533,934L1019,876Z" fill="#c0cfd0" stroke="#c0cfd0" stroke-width="1.51"/><path d="M585,-311L710,-226L896,-344Z" fill="#d5eceb" stroke="#d5eceb" stroke-width="1.51"/><path d="M636,223L514,703L899,285Z" fill="#a6d0d4" stroke="#a6d0d4" stroke-width="1.51"/><path d="M363,-96L636,223L710,-226Z" fill="#e2f0f0" stroke="#e2f0f0" stroke-width="1.51"/><path d="M533,934L584,1354L816,1125Z" fill="#d5e2e2" stroke="#d5e2e2" stroke-width="1.51"/><path d="M300,338L514,703L636,223Z" fill="#b4d7da" stroke="#b4d7da" stroke-width="1.51"/><path d="M585,-311L363,-96L710,-226Z" fill="#e3f2f2" stroke="#e3f2f2" stroke-width="1.51"/><path d="M533,934L171,1164L584,1354Z" fill="#e4eae9" stroke="#e4eae9" stroke-width="1.51"/><path d="M436,-344L363,-96L585,-311Z" fill="#e8f6f4" stroke="#e8f6f4" stroke-width="1.51"/><path d="M363,-96L300,338L636,223Z" fill="#d4e9e9" stroke="#d4e9e9" stroke-width="1.51"/><path d="M514,703L329,882L533,934Z" fill="#cfd7d7" stroke="#cfd7d7" stroke-width="1.51"/><path d="M329,882L171,1164L533,934Z" fill="#dee2e1" stroke="#dee2e1" stroke-width="1.51"/><path d="M300,338L174,449L514,703Z" fill="#c0dbdc" stroke="#c0dbdc" stroke-width="1.51"/><path d="M-191,-473L-72,-290L436,-344Z" fill="#e4f7f3" stroke="#e4f7f3" stroke-width="1.51"/><path d="M174,449L329,882L514,703Z" fill="#cbdbdb" stroke="#cbdbdb" stroke-width="1.51"/><path d="M174,449L92,815L329,882Z" fill="#cbdada" stroke="#cbdada" stroke-width="1.51"/><path d="M-39,154L300,338L363,-96Z" fill="#d8ecec" stroke="#d8ecec" stroke-width="1.51"/><path d="M-72,-290L363,-96L436,-344Z" fill="#ecf9f6" stroke="#ecf9f6" stroke-width="1.51"/><path d="M-10,598L92,815L174,449Z" fill="#c2dada" stroke="#c2dada" stroke-width="1.51"/><path d="M-112,-231L-39,154L363,-96Z" fill="#ecf8f5" stroke="#ecf8f5" stroke-width="1.51"/><path d="M-72,-290L-112,-231L363,-96Z" fill="#eaf8f5" stroke="#eaf8f5" stroke-width="1.51"/><path d="M92,815L171,1164L329,882Z" fill="#d9dedd" stroke="#d9dedd" stroke-width="1.51"/><path d="M-39,154L174,449L300,338Z" fill="#c0e0e1" stroke="#c0e0e1" stroke-width="1.51"/><path d="M92,815L-109,1127L171,1164Z" fill="#dbe3e2" stroke="#dbe3e2" stroke-width="1.51"/><path d="M-39,154L-10,598L174,449Z" fill="#b4dadc" stroke="#b4dadc" stroke-width="1.51"/><path d="M-39,154L-277,340L-10,598Z" fill="#b5dcdd" stroke="#b5dcdd" stroke-width="1.51"/><path d="M-10,598L-292,870L92,815Z" fill="#c9d9d8" stroke="#c9d9d8" stroke-width="1.51"/><path d="M-292,870L-109,1127L92,815Z" fill="#d2dcda" stroke="#d2dcda" stroke-width="1.51"/><path d="M-112,-231L-346,-87L-39,154Z" fill="#e7f7f4" stroke="#e7f7f4" stroke-width="1.51"/><path d="M-277,340L-441,606L-10,598Z" fill="#b6d9d9" stroke="#b6d9d9" stroke-width="1.51"/><path d="M-441,606L-292,870L-10,598Z" fill="#c1d8d7" stroke="#c1d8d7" stroke-width="1.51"/><path d="M-346,-87L-277,340L-39,154Z" fill="#cfe9e9" stroke="#cfe9e9" stroke-width="1.51"/><path d="M-191,-473L-112,-231L-72,-290Z" fill="#e3f6f3" stroke="#e3f6f3" stroke-width="1.51"/><path d="M-191,-473L-346,-87L-112,-231Z" fill="#e3f6f3" stroke="#e3f6f3" stroke-width="1.51"/><path d="M-292,870L-472,1159L-109,1127Z" fill="#d6e3e1" stroke="#d6e3e1" stroke-width="1.51"/><path d="M-346,-87L-441,606L-277,340Z" fill="#badfe0" stroke="#badfe0" stroke-width="1.51"/><path d="M-441,606L-472,1159L-292,870Z" fill="#c9d7d5" stroke="#c9d7d5" stroke-width="1.51"/></svg>