<svg xmlns="http://www.w3.org/2000/svg" width="2500" height="4000"><path d="M340,4373L-419,4363L707,4414Z" fill="#cc7c50" stroke="#cc7c50" stroke-width="1.51"/><path d="M-628,-471L460,-430L1439,-585Z" fill="#ffe599" stroke="#ffe599" stroke-width="1.51"/><path d="M1938,4502L707,4414L2268,4565Z" fill="#c2342b" stroke="#c2342b" stroke-width="1.51"/><path d="M707,4414L-419,4363L2268,4565Z" fill="#c66138" stroke="#c66138" stroke-width="1.51"/><path d="M2718,4400L2268,4565L2948,4340Z" fill="#a60126" stroke="#a60126" stroke-width="1.51"/><path d="M2589,2515L2977,2794L3086,2241Z" fill="#ce372b" stroke="#ce372b" stroke-width="1.51"/><path d="M2845,1989L3086,2241L3107,1350Z" fill="#c75533" stroke="#c75533" stroke-width="1.51"/><path d="M2852,1564L2845,1989L3107,1350Z" fill="#cd5e36" stroke="#cd5e36" stroke-width="1.51"/><path d="M2500,-370L2917,-207L3121,-338Z" fill="#da8c6a" stroke="#da8c6a" stroke-width="1.51"/><path d="M2092,-580L2500,-370L3121,-338Z" fill="#ec946d" stroke="#ec946d" stroke-width="1.51"/><path d="M2917,-207L2820,205L3121,-338Z" fill="#d28764" stroke="#d28764" stroke-width="1.51"/><path d="M2960,3091L2640,3351L3133,3418Z" fill="#c00d22" stroke="#c00d22" stroke-width="1.51"/><path d="M3086,2241L2977,2794L3133,3418Z" fill="#be2528" stroke="#be2528" stroke-width="1.51"/><path d="M2977,2794L2960,3091L3133,3418Z" fill="#bc1925" stroke="#bc1925" stroke-width="1.51"/><path d="M3107,1350L3086,2241L3133,3418Z" fill="#c03e2e" stroke="#c03e2e" stroke-width="1.51"/><path d="M2851,4218L2948,4340L3142,3782Z" fill="#a00026" stroke="#a00026" stroke-width="1.51"/><path d="M3133,3418L2786,3654L3142,3782Z" fill="#b00525" stroke="#b00525" stroke-width="1.51"/><path d="M2786,3654L2851,4218L3142,3782Z" fill="#ae0126" stroke="#ae0126" stroke-width="1.51"/><path d="M2619,540L3021,994L3144,581Z" fill="#d07b4c" stroke="#d07b4c" stroke-width="1.51"/><path d="M2820,205L2619,540L3144,581Z" fill="#d68153" stroke="#d68153" stroke-width="1.51"/><path d="M3121,-338L2820,205L3144,581Z" fill="#cb815c" stroke="#cb815c" stroke-width="1.51"/><path d="M3021,994L3107,1350L3144,581Z" fill="#c46f45" stroke="#c46f45" stroke-width="1.51"/><path d="M3107,1350L3133,3418L3144,581Z" fill="#bf5635" stroke="#bf5635" stroke-width="1.51"/><path d="M3021,994L2536,1241L3107,1350Z" fill="#d16d3d" stroke="#d16d3d" stroke-width="1.51"/><path d="M2640,3351L2786,3654L3133,3418Z" fill="#be0923" stroke="#be0923" stroke-width="1.51"/><path d="M2536,1241L2852,1564L3107,1350Z" fill="#d46838" stroke="#d46838" stroke-width="1.51"/><path d="M2786,3654L2535,4011L2851,4218Z" fill="#b80026" stroke="#b80026" stroke-width="1.51"/><path d="M2589,2515L2681,2773L2977,2794Z" fill="#d62d28" stroke="#d62d28" stroke-width="1.51"/><path d="M2845,1989L2589,2515L3086,2241Z" fill="#d2472e" stroke="#d2472e" stroke-width="1.51"/><path d="M2500,2096L2589,2515L2845,1989Z" fill="#de4d2e" stroke="#de4d2e" stroke-width="1.51"/><path d="M2681,2773L2960,3091L2977,2794Z" fill="#ca2427" stroke="#ca2427" stroke-width="1.51"/><path d="M2619,540L2505,1121L3021,994Z" fill="#df7a46" stroke="#df7a46" stroke-width="1.51"/><path d="M2505,1121L2536,1241L3021,994Z" fill="#e0743f" stroke="#e0743f" stroke-width="1.51"/><path d="M2592,82L2820,205L2917,-207Z" fill="#de8960" stroke="#de8960" stroke-width="1.51"/><path d="M2681,2773L2472,2992L2960,3091Z" fill="#d42325" stroke="#d42325" stroke-width="1.51"/><path d="M2472,2992L2640,3351L2960,3091Z" fill="#d21923" stroke="#d21923" stroke-width="1.51"/><path d="M2460,1637L2845,1989L2852,1564Z" fill="#dc5f34" stroke="#dc5f34" stroke-width="1.51"/><path d="M2851,4218L2718,4400L2948,4340Z" fill="#a00026" stroke="#a00026" stroke-width="1.51"/><path d="M2607,233L2619,540L2820,205Z" fill="#e48757" stroke="#e48757" stroke-width="1.51"/><path d="M2500,-370L2592,82L2917,-207Z" fill="#e68e66" stroke="#e68e66" stroke-width="1.51"/><path d="M2460,1637L2500,2096L2845,1989Z" fill="#e15b31" stroke="#e15b31" stroke-width="1.51"/><path d="M2536,1241L2460,1637L2852,1564Z" fill="#e26936" stroke="#e26936" stroke-width="1.51"/><path d="M2535,4011L2718,4400L2851,4218Z" fill="#ae0026" stroke="#ae0026" stroke-width="1.51"/><path d="M2092,-580L2354,-374L2500,-370Z" fill="#f7996c" stroke="#f7996c" stroke-width="1.51"/><path d="M2500,2096L2438,2436L2589,2515Z" fill="#e4472a" stroke="#e4472a" stroke-width="1.51"/><path d="M2592,82L2607,233L2820,205Z" fill="#e5895c" stroke="#e5895c" stroke-width="1.51"/><path d="M2373,1533L2460,1637L2536,1241Z" fill="#e86c34" stroke="#e86c34" stroke-width="1.51"/><path d="M2640,3351L2328,3919L2786,3654Z" fill="#c90924" stroke="#c90924" stroke-width="1.51"/><path d="M2328,3919L2535,4011L2786,3654Z" fill="#c40525" stroke="#c40525" stroke-width="1.51"/><path d="M2196,959L2505,1121L2619,540Z" fill="#ec8044" stroke="#ec8044" stroke-width="1.51"/><path d="M2607,233L2445,388L2619,540Z" fill="#e98854" stroke="#e98854" stroke-width="1.51"/><path d="M2173,3835L2328,3919L2640,3351Z" fill="#cf0e22" stroke="#cf0e22" stroke-width="1.51"/><path d="M2535,4011L2268,4565L2718,4400Z" fill="#b10425" stroke="#b10425" stroke-width="1.51"/><path d="M2500,-370L2288,62L2592,82Z" fill="#ef9161" stroke="#ef9161" stroke-width="1.51"/><path d="M2304,3222L2173,3835L2640,3351Z" fill="#d71320" stroke="#d71320" stroke-width="1.51"/><path d="M2472,2992L2304,3222L2640,3351Z" fill="#da1b20" stroke="#da1b20" stroke-width="1.51"/><path d="M2589,2515L2298,2689L2681,2773Z" fill="#e23227" stroke="#e23227" stroke-width="1.51"/><path d="M2298,2689L2472,2992L2681,2773Z" fill="#e02d25" stroke="#e02d25" stroke-width="1.51"/><path d="M2354,-374L2288,62L2500,-370Z" fill="#f39566" stroke="#f39566" stroke-width="1.51"/><path d="M2445,388L2113,478L2619,540Z" fill="#ef8a50" stroke="#ef8a50" stroke-width="1.51"/><path d="M2113,478L2196,959L2619,540Z" fill="#f28849" stroke="#f28849" stroke-width="1.51"/><path d="M2460,1637L2114,1830L2500,2096Z" fill="#eb622f" stroke="#eb622f" stroke-width="1.51"/><path d="M2328,3919L2268,4565L2535,4011Z" fill="#be0823" stroke="#be0823" stroke-width="1.51"/><path d="M2438,2436L2298,2689L2589,2515Z" fill="#e53c27" stroke="#e53c27" stroke-width="1.51"/><path d="M2592,82L2288,62L2607,233Z" fill="#ec8e5c" stroke="#ec8e5c" stroke-width="1.51"/><path d="M2288,62L2445,388L2607,233Z" fill="#ee8d58" stroke="#ee8d58" stroke-width="1.51"/><path d="M2113,478L2050,829L2196,959Z" fill="#f88b46" stroke="#f88b46" stroke-width="1.51"/><path d="M2026,3733L2173,3835L2304,3222Z" fill="#db181f" stroke="#db181f" stroke-width="1.51"/><path d="M1940,3546L2026,3733L2304,3222Z" fill="#e02020" stroke="#e02020" stroke-width="1.51"/><path d="M1909,4224L2268,4565L2328,3919Z" fill="#c31023" stroke="#c31023" stroke-width="1.51"/><path d="M2114,1830L2097,1923L2500,2096Z" fill="#f0602c" stroke="#f0602c" stroke-width="1.51"/><path d="M2505,1121L2187,1196L2536,1241Z" fill="#eb763a" stroke="#eb763a" stroke-width="1.51"/><path d="M2187,1196L2373,1533L2536,1241Z" fill="#ed7335" stroke="#ed7335" stroke-width="1.51"/><path d="M2250,3066L2304,3222L2472,2992Z" fill="#e12220" stroke="#e12220" stroke-width="1.51"/><path d="M2298,2689L2250,3066L2472,2992Z" fill="#e52b22" stroke="#e52b22" stroke-width="1.51"/><path d="M1961,2295L2438,2436L2500,2096Z" fill="#ec4f29" stroke="#ec4f29" stroke-width="1.51"/><path d="M2097,1923L1961,2295L2500,2096Z" fill="#f15a2a" stroke="#f15a2a" stroke-width="1.51"/><path d="M2196,959L2187,1196L2505,1121Z" fill="#f17c3c" stroke="#f17c3c" stroke-width="1.51"/><path d="M1156,4292L707,4414L1938,4502Z" fill="#c65032" stroke="#c65032" stroke-width="1.51"/><path d="M2019,-170L2288,62L2354,-374Z" fill="#fa9762" stroke="#fa9762" stroke-width="1.51"/><path d="M2373,1533L2114,1830L2460,1637Z" fill="#ee6830" stroke="#ee6830" stroke-width="1.51"/><path d="M1714,4381L1156,4292L1938,4502Z" fill="#c6382b" stroke="#c6382b" stroke-width="1.51"/><path d="M2288,62L2113,478L2445,388Z" fill="#f58e54" stroke="#f58e54" stroke-width="1.51"/><path d="M1961,2295L2298,2689L2438,2436Z" fill="#ef4326" stroke="#ef4326" stroke-width="1.51"/><path d="M1909,4224L1938,4502L2268,4565Z" fill="#bc1a25" stroke="#bc1a25" stroke-width="1.51"/><path d="M2173,3835L1909,4224L2328,3919Z" fill="#cf1523" stroke="#cf1523" stroke-width="1.51"/><path d="M2010,1823L2114,1830L2373,1533Z" fill="#f36a2f" stroke="#f36a2f" stroke-width="1.51"/><path d="M2084,1208L2010,1823L2373,1533Z" fill="#f47131" stroke="#f47131" stroke-width="1.51"/><path d="M2187,1196L2084,1208L2373,1533Z" fill="#f37534" stroke="#f37534" stroke-width="1.51"/><path d="M2063,3138L1940,3546L2304,3222Z" fill="#e6221d" stroke="#e6221d" stroke-width="1.51"/><path d="M2092,-580L2019,-170L2354,-374Z" fill="#fd9c6a" stroke="#fd9c6a" stroke-width="1.51"/><path d="M1820,2761L2063,3138L2250,3066Z" fill="#ed3321" stroke="#ed3321" stroke-width="1.51"/><path d="M1820,2761L2250,3066L2298,2689Z" fill="#ee3522" stroke="#ee3522" stroke-width="1.51"/><path d="M1703,1515L2010,1823L2084,1208Z" fill="#f97935" stroke="#f97935" stroke-width="1.51"/><path d="M1783,353L2113,478L2288,62Z" fill="#fc9556" stroke="#fc9556" stroke-width="1.51"/><path d="M1961,2295L1820,2761L2298,2689Z" fill="#f44526" stroke="#f44526" stroke-width="1.51"/><path d="M2250,3066L2063,3138L2304,3222Z" fill="#e6231d" stroke="#e6231d" stroke-width="1.51"/><path d="M2019,-170L1783,353L2288,62Z" fill="#fd995d" stroke="#fd995d" stroke-width="1.51"/><path d="M460,-430L1192,-482L1439,-585Z" fill="#ffce85" stroke="#ffce85" stroke-width="1.51"/><path d="M1708,-33L1783,353L2019,-170Z" fill="#ffa062" stroke="#ffa062" stroke-width="1.51"/><path d="M2084,1208L2187,1196L2196,959Z" fill="#f57e3a" stroke="#f57e3a" stroke-width="1.51"/><path d="M1727,2664L1820,2761L1961,2295Z" fill="#f94e29" stroke="#f94e29" stroke-width="1.51"/><path d="M2026,3733L1909,4224L2173,3835Z" fill="#d51d24" stroke="#d51d24" stroke-width="1.51"/><path d="M2050,829L2084,1208L2196,959Z" fill="#f7833f" stroke="#f7833f" stroke-width="1.51"/><path d="M1819,517L2050,829L2113,478Z" fill="#fc934d" stroke="#fc934d" stroke-width="1.51"/><path d="M1642,4159L1909,4224L2026,3733Z" fill="#d42827" stroke="#d42827" stroke-width="1.51"/><path d="M2050,829L1644,951L2084,1208Z" fill="#fc8a42" stroke="#fc8a42" stroke-width="1.51"/><path d="M1439,-585L2019,-170L2092,-580Z" fill="#ffa771" stroke="#ffa771" stroke-width="1.51"/><path d="M2010,1823L1961,2295L2097,1923Z" fill="#f5652e" stroke="#f5652e" stroke-width="1.51"/><path d="M1783,353L1819,517L2113,478Z" fill="#ff9854" stroke="#ff9854" stroke-width="1.51"/><path d="M2010,1823L2097,1923L2114,1830Z" fill="#f5682f" stroke="#f5682f" stroke-width="1.51"/><path d="M1749,3641L1642,4159L2026,3733Z" fill="#dd2d27" stroke="#dd2d27" stroke-width="1.51"/><path d="M1571,3171L1940,3546L2063,3138Z" fill="#ec3121" stroke="#ec3121" stroke-width="1.51"/><path d="M1692,2374L1727,2664L1961,2295Z" fill="#fb572b" stroke="#fb572b" stroke-width="1.51"/><path d="M1544,1840L1961,2295L2010,1823Z" fill="#fa6d31" stroke="#fa6d31" stroke-width="1.51"/><path d="M1439,-585L1708,-33L2019,-170Z" fill="#ffa96e" stroke="#ffa96e" stroke-width="1.51"/><path d="M1571,3171L1617,3494L1940,3546Z" fill="#ec3824" stroke="#ec3824" stroke-width="1.51"/><path d="M1644,951L1703,1515L2084,1208Z" fill="#fd863c" stroke="#fd863c" stroke-width="1.51"/><path d="M1820,2761L1571,3171L2063,3138Z" fill="#f23d24" stroke="#f23d24" stroke-width="1.51"/><path d="M1544,1840L1692,2374L1961,2295Z" fill="#fd6730" stroke="#fd6730" stroke-width="1.51"/><path d="M1819,517L1644,951L2050,829Z" fill="#fe944b" stroke="#fe944b" stroke-width="1.51"/><path d="M1940,3546L1749,3641L2026,3733Z" fill="#e12a24" stroke="#e12a24" stroke-width="1.51"/><path d="M1703,1515L1544,1840L2010,1823Z" fill="#fe7835" stroke="#fe7835" stroke-width="1.51"/><path d="M1909,4224L1714,4381L1938,4502Z" fill="#c42627" stroke="#c42627" stroke-width="1.51"/><path d="M1644,951L1431,1260L1703,1515Z" fill="#ff9040" stroke="#ff9040" stroke-width="1.51"/><path d="M1617,3494L1749,3641L1940,3546Z" fill="#e63225" stroke="#e63225" stroke-width="1.51"/><path d="M1642,4159L1714,4381L1909,4224Z" fill="#cc2c29" stroke="#cc2c29" stroke-width="1.51"/><path d="M1439,-585L1255,-123L1708,-33Z" fill="#ffb673" stroke="#ffb673" stroke-width="1.51"/><path d="M1379,3643L1642,4159L1749,3641Z" fill="#e03e2a" stroke="#e03e2a" stroke-width="1.51"/><path d="M1708,-33L1475,349L1783,353Z" fill="#ffa55f" stroke="#ffa55f" stroke-width="1.51"/><path d="M1783,353L1511,511L1819,517Z" fill="#ff9f57" stroke="#ff9f57" stroke-width="1.51"/><path d="M1511,511L1644,951L1819,517Z" fill="#ff9e51" stroke="#ff9e51" stroke-width="1.51"/><path d="M1727,2664L1571,3171L1820,2761Z" fill="#f84928" stroke="#f84928" stroke-width="1.51"/><path d="M1174,2905L1571,3171L1727,2664Z" fill="#f8582b" stroke="#f8582b" stroke-width="1.51"/><path d="M1475,349L1511,511L1783,353Z" fill="#ffa65b" stroke="#ffa65b" stroke-width="1.51"/><path d="M1379,3643L1258,4081L1642,4159Z" fill="#dc4a2e" stroke="#dc4a2e" stroke-width="1.51"/><path d="M1544,1840L1292,1871L1692,2374Z" fill="#fd7c36" stroke="#fd7c36" stroke-width="1.51"/><path d="M1617,3494L1379,3643L1749,3641Z" fill="#e74228" stroke="#e74228" stroke-width="1.51"/><path d="M1511,511L1263,908L1644,951Z" fill="#ffa551" stroke="#ffa551" stroke-width="1.51"/><path d="M1292,1871L1123,2386L1692,2374Z" fill="#fd7d36" stroke="#fd7d36" stroke-width="1.51"/><path d="M1255,-123L1475,349L1708,-33Z" fill="#ffb169" stroke="#ffb169" stroke-width="1.51"/><path d="M1692,2374L1144,2665L1727,2664Z" fill="#fd622e" stroke="#fd622e" stroke-width="1.51"/><path d="M1144,2665L1174,2905L1727,2664Z" fill="#fb6730" stroke="#fb6730" stroke-width="1.51"/><path d="M1123,2386L1144,2665L1692,2374Z" fill="#fd7434" stroke="#fd7434" stroke-width="1.51"/><path d="M1642,4159L1156,4292L1714,4381Z" fill="#cc412d" stroke="#cc412d" stroke-width="1.51"/><path d="M1185,1702L1544,1840L1703,1515Z" fill="#fe893b" stroke="#fe893b" stroke-width="1.51"/><path d="M1431,1260L1171,1432L1703,1515Z" fill="#fe9440" stroke="#fe9440" stroke-width="1.51"/><path d="M1171,1432L1185,1702L1703,1515Z" fill="#fe943f" stroke="#fe943f" stroke-width="1.51"/><path d="M-628,-471L118,-366L460,-430Z" fill="#fff0aa" stroke="#fff0aa" stroke-width="1.51"/><path d="M1192,-482L1255,-123L1439,-585Z" fill="#ffc27c" stroke="#ffc27c" stroke-width="1.51"/><path d="M1571,3171L1134,3435L1617,3494Z" fill="#ef5028" stroke="#ef5028" stroke-width="1.51"/><path d="M1258,4081L1156,4292L1642,4159Z" fill="#d14d30" stroke="#d14d30" stroke-width="1.51"/><path d="M1263,908L1431,1260L1644,951Z" fill="#ff9f4a" stroke="#ff9f4a" stroke-width="1.51"/><path d="M1134,3435L1379,3643L1617,3494Z" fill="#ea532b" stroke="#ea532b" stroke-width="1.51"/><path d="M1255,-123L1224,369L1475,349Z" fill="#ffb868" stroke="#ffb868" stroke-width="1.51"/><path d="M1185,1702L1292,1871L1544,1840Z" fill="#fe8d3c" stroke="#fe8d3c" stroke-width="1.51"/><path d="M1174,2905L1134,3435L1571,3171Z" fill="#f35f2c" stroke="#f35f2c" stroke-width="1.51"/><path d="M1097,549L1263,908L1511,511Z" fill="#ffb259" stroke="#ffb259" stroke-width="1.51"/><path d="M1475,349L1224,369L1511,511Z" fill="#ffb05f" stroke="#ffb05f" stroke-width="1.51"/><path d="M1224,369L1097,549L1511,511Z" fill="#ffb660" stroke="#ffb660" stroke-width="1.51"/><path d="M987,147L1224,369L1255,-123Z" fill="#ffc16d" stroke="#ffc16d" stroke-width="1.51"/><path d="M949,2183L1123,2386L1292,1871Z" fill="#fe8c3c" stroke="#fe8c3c" stroke-width="1.51"/><path d="M896,3870L1258,4081L1379,3643Z" fill="#e05b31" stroke="#e05b31" stroke-width="1.51"/><path d="M1263,908L1004,1357L1431,1260Z" fill="#ffa64a" stroke="#ffa64a" stroke-width="1.51"/><path d="M1004,1357L1171,1432L1431,1260Z" fill="#fea245" stroke="#fea245" stroke-width="1.51"/><path d="M1024,2921L1134,3435L1174,2905Z" fill="#f66b30" stroke="#f66b30" stroke-width="1.51"/><path d="M1134,3435L896,3870L1379,3643Z" fill="#e76030" stroke="#e76030" stroke-width="1.51"/><path d="M1024,2921L791,3321L1134,3435Z" fill="#f46d30" stroke="#f46d30" stroke-width="1.51"/><path d="M460,-430L813,-316L1192,-482Z" fill="#ffd485" stroke="#ffd485" stroke-width="1.51"/><path d="M1192,-482L813,-316L1255,-123Z" fill="#ffc97d" stroke="#ffc97d" stroke-width="1.51"/><path d="M1097,549L1009,592L1263,908Z" fill="#ffb95c" stroke="#ffb95c" stroke-width="1.51"/><path d="M1009,592L936,890L1263,908Z" fill="#ffb859" stroke="#ffb859" stroke-width="1.51"/><path d="M936,890L1004,1357L1263,908Z" fill="#ffb051" stroke="#ffb051" stroke-width="1.51"/><path d="M1185,1702L949,2183L1292,1871Z" fill="#fd943f" stroke="#fd943f" stroke-width="1.51"/><path d="M832,4173L1156,4292L1258,4081Z" fill="#d25b34" stroke="#d25b34" stroke-width="1.51"/><path d="M896,3870L832,4173L1258,4081Z" fill="#da6135" stroke="#da6135" stroke-width="1.51"/><path d="M789,21L987,147L1255,-123Z" fill="#ffc774" stroke="#ffc774" stroke-width="1.51"/><path d="M813,-316L789,21L1255,-123Z" fill="#ffcc7a" stroke="#ffcc7a" stroke-width="1.51"/><path d="M1144,2665L1024,2921L1174,2905Z" fill="#fb7232" stroke="#fb7232" stroke-width="1.51"/><path d="M816,2161L949,2183L1185,1702Z" fill="#fe9740" stroke="#fe9740" stroke-width="1.51"/><path d="M889,1553L816,2161L1185,1702Z" fill="#fe9e43" stroke="#fe9e43" stroke-width="1.51"/><path d="M1171,1432L889,1553L1185,1702Z" fill="#fea044" stroke="#fea044" stroke-width="1.51"/><path d="M987,147L1097,549L1224,369Z" fill="#ffbf67" stroke="#ffbf67" stroke-width="1.51"/><path d="M703,3724L896,3870L1134,3435Z" fill="#e76a34" stroke="#e76a34" stroke-width="1.51"/><path d="M1123,2386L825,2650L1144,2665Z" fill="#fe7d37" stroke="#fe7d37" stroke-width="1.51"/><path d="M1004,1357L889,1553L1171,1432Z" fill="#fea647" stroke="#fea647" stroke-width="1.51"/><path d="M987,147L1009,592L1097,549Z" fill="#ffc066" stroke="#ffc066" stroke-width="1.51"/><path d="M832,4173L707,4414L1156,4292Z" fill="#cd6237" stroke="#cd6237" stroke-width="1.51"/><path d="M735,4265L707,4414L832,4173Z" fill="#ce683a" stroke="#ce683a" stroke-width="1.51"/><path d="M791,3321L703,3724L1134,3435Z" fill="#ed6d33" stroke="#ed6d33" stroke-width="1.51"/><path d="M825,2650L1024,2921L1144,2665Z" fill="#fc7935" stroke="#fc7935" stroke-width="1.51"/><path d="M936,890L666,1188L1004,1357Z" fill="#ffb552" stroke="#ffb552" stroke-width="1.51"/><path d="M949,2183L825,2650L1123,2386Z" fill="#fe873a" stroke="#fe873a" stroke-width="1.51"/><path d="M622,3440L703,3724L791,3321Z" fill="#ed7537" stroke="#ed7537" stroke-width="1.51"/><path d="M493,2022L816,2161L889,1553Z" fill="#fea447" stroke="#fea447" stroke-width="1.51"/><path d="M816,2161L825,2650L949,2183Z" fill="#fe8f3d" stroke="#fe8f3d" stroke-width="1.51"/><path d="M789,21L491,200L987,147Z" fill="#ffd075" stroke="#ffd075" stroke-width="1.51"/><path d="M987,147L491,200L1009,592Z" fill="#ffca6d" stroke="#ffca6d" stroke-width="1.51"/><path d="M491,200L663,748L1009,592Z" fill="#ffcb6a" stroke="#ffcb6a" stroke-width="1.51"/><path d="M663,748L936,890L1009,592Z" fill="#ffc15f" stroke="#ffc15f" stroke-width="1.51"/><path d="M825,2650L608,2973L1024,2921Z" fill="#fb7e38" stroke="#fb7e38" stroke-width="1.51"/><path d="M608,2973L791,3321L1024,2921Z" fill="#f77935" stroke="#f77935" stroke-width="1.51"/><path d="M666,1188L889,1553L1004,1357Z" fill="#feaf4a" stroke="#feaf4a" stroke-width="1.51"/><path d="M582,1498L493,2022L889,1553Z" fill="#feae4d" stroke="#feae4d" stroke-width="1.51"/><path d="M619,-90L789,21L813,-316Z" fill="#ffd37e" stroke="#ffd37e" stroke-width="1.51"/><path d="M816,2161L455,2262L825,2650Z" fill="#ff9442" stroke="#ff9442" stroke-width="1.51"/><path d="M666,1188L582,1498L889,1553Z" fill="#feb34e" stroke="#feb34e" stroke-width="1.51"/><path d="M618,4088L832,4173L896,3870Z" fill="#da6b38" stroke="#da6b38" stroke-width="1.51"/><path d="M663,748L666,1188L936,890Z" fill="#ffc05b" stroke="#ffc05b" stroke-width="1.51"/><path d="M663,748L529,816L666,1188Z" fill="#ffc661" stroke="#ffc661" stroke-width="1.51"/><path d="M703,3724L618,4088L896,3870Z" fill="#e16f39" stroke="#e16f39" stroke-width="1.51"/><path d="M428,2849L608,2973L825,2650Z" fill="#fd883f" stroke="#fd883f" stroke-width="1.51"/><path d="M455,2262L428,2849L825,2650Z" fill="#ff9144" stroke="#ff9144" stroke-width="1.51"/><path d="M618,4088L735,4265L832,4173Z" fill="#d46b3a" stroke="#d46b3a" stroke-width="1.51"/><path d="M608,2973L622,3440L791,3321Z" fill="#f57a37" stroke="#f57a37" stroke-width="1.51"/><path d="M493,2022L455,2262L816,2161Z" fill="#ffa24a" stroke="#ffa24a" stroke-width="1.51"/><path d="M460,-430L619,-90L813,-316Z" fill="#ffda88" stroke="#ffda88" stroke-width="1.51"/><path d="M619,-90L491,200L789,21Z" fill="#ffd57d" stroke="#ffd57d" stroke-width="1.51"/><path d="M491,200L208,280L529,816Z" fill="#ffd87a" stroke="#ffd87a" stroke-width="1.51"/><path d="M208,280L144,669L529,816Z" fill="#fedb7b" stroke="#fedb7b" stroke-width="1.51"/><path d="M379,2013L493,2022L582,1498Z" fill="#ffb053" stroke="#ffb053" stroke-width="1.51"/><path d="M491,200L529,816L663,748Z" fill="#ffd16f" stroke="#ffd16f" stroke-width="1.51"/><path d="M301,3806L618,4088L703,3724Z" fill="#e37741" stroke="#e37741" stroke-width="1.51"/><path d="M340,4373L707,4414L735,4265Z" fill="#cc6e40" stroke="#cc6e40" stroke-width="1.51"/><path d="M618,4088L340,4373L735,4265Z" fill="#d27141" stroke="#d27141" stroke-width="1.51"/><path d="M374,2264L428,2849L455,2262Z" fill="#ff9c4d" stroke="#ff9c4d" stroke-width="1.51"/><path d="M292,1490L379,2013L582,1498Z" fill="#ffb858" stroke="#ffb858" stroke-width="1.51"/><path d="M608,2973L155,3123L622,3440Z" fill="#f78641" stroke="#f78641" stroke-width="1.51"/><path d="M622,3440L301,3806L703,3724Z" fill="#ea7a3f" stroke="#ea7a3f" stroke-width="1.51"/><path d="M529,816L204,1039L666,1188Z" fill="#ffca65" stroke="#ffca65" stroke-width="1.51"/><path d="M155,3123L182,3406L622,3440Z" fill="#f58846" stroke="#f58846" stroke-width="1.51"/><path d="M292,1490L582,1498L666,1188Z" fill="#ffbc57" stroke="#ffbc57" stroke-width="1.51"/><path d="M172,1216L292,1490L666,1188Z" fill="#fec460" stroke="#fec460" stroke-width="1.51"/><path d="M204,1039L172,1216L666,1188Z" fill="#ffca66" stroke="#ffca66" stroke-width="1.51"/><path d="M428,2849L155,3123L608,2973Z" fill="#fb8d47" stroke="#fb8d47" stroke-width="1.51"/><path d="M144,4197L340,4373L618,4088Z" fill="#d37a49" stroke="#d37a49" stroke-width="1.51"/><path d="M185,-72L491,200L619,-90Z" fill="#ffde87" stroke="#ffde87" stroke-width="1.51"/><path d="M460,-430L185,-72L619,-90Z" fill="#ffe18e" stroke="#ffe18e" stroke-width="1.51"/><path d="M182,3406L301,3806L622,3440Z" fill="#ee8446" stroke="#ee8446" stroke-width="1.51"/><path d="M301,3806L144,4197L618,4088Z" fill="#dd7e49" stroke="#dd7e49" stroke-width="1.51"/><path d="M374,2264L118,2851L428,2849Z" fill="#ff9a4f" stroke="#ff9a4f" stroke-width="1.51"/><path d="M-227,4258L-419,4363L340,4373Z" fill="#d0835c" stroke="#d0835c" stroke-width="1.51"/><path d="M-64,2510L118,2851L374,2264Z" fill="#ffa257" stroke="#ffa257" stroke-width="1.51"/><path d="M379,2013L374,2264L455,2262Z" fill="#ffa852" stroke="#ffa852" stroke-width="1.51"/><path d="M118,-366L185,-72L460,-430Z" fill="#ffe999" stroke="#ffe999" stroke-width="1.51"/><path d="M379,2013L455,2262L493,2022Z" fill="#ffaa51" stroke="#ffaa51" stroke-width="1.51"/><path d="M144,669L204,1039L529,816Z" fill="#fed572" stroke="#fed572" stroke-width="1.51"/><path d="M292,1490L-78,1752L379,2013Z" fill="#ffbd60" stroke="#ffbd60" stroke-width="1.51"/><path d="M185,-72L208,280L491,200Z" fill="#ffe289" stroke="#ffe289" stroke-width="1.51"/><path d="M118,2851L155,3123L428,2849Z" fill="#fd944e" stroke="#fd944e" stroke-width="1.51"/><path d="M144,669L18,812L204,1039Z" fill="#ffd97a" stroke="#ffd97a" stroke-width="1.51"/><path d="M6,3845L144,4197L301,3806Z" fill="#e38451" stroke="#e38451" stroke-width="1.51"/><path d="M144,4197L-227,4258L340,4373Z" fill="#d28054" stroke="#d28054" stroke-width="1.51"/><path d="M-201,2025L374,2264L379,2013Z" fill="#ffb25c" stroke="#ffb25c" stroke-width="1.51"/><path d="M-78,1752L-201,2025L379,2013Z" fill="#ffbb66" stroke="#ffbb66" stroke-width="1.51"/><path d="M-5,412L144,669L208,280Z" fill="#ffe187" stroke="#ffe187" stroke-width="1.51"/><path d="M-201,2025L-64,2510L374,2264Z" fill="#ffaf60" stroke="#ffaf60" stroke-width="1.51"/><path d="M182,3406L6,3845L301,3806Z" fill="#eb884f" stroke="#eb884f" stroke-width="1.51"/><path d="M155,3123L42,3237L182,3406Z" fill="#f88e4f" stroke="#f88e4f" stroke-width="1.51"/><path d="M172,1216L-78,1752L292,1490Z" fill="#ffc667" stroke="#ffc667" stroke-width="1.51"/><path d="M-154,1149L-380,1349L-78,1752Z" fill="#ffce77" stroke="#ffce77" stroke-width="1.51"/><path d="M-291,-225L-40,-248L118,-366Z" fill="#ffefa7" stroke="#ffefa7" stroke-width="1.51"/><path d="M-628,-471L-291,-225L118,-366Z" fill="#fff4b3" stroke="#fff4b3" stroke-width="1.51"/><path d="M-154,1149L-78,1752L172,1216Z" fill="#ffcc70" stroke="#ffcc70" stroke-width="1.51"/><path d="M-425,236L-5,412L185,-72Z" fill="#ffe998" stroke="#ffe998" stroke-width="1.51"/><path d="M-40,-248L-425,236L185,-72Z" fill="#ffeca0" stroke="#ffeca0" stroke-width="1.51"/><path d="M118,-366L-40,-248L185,-72Z" fill="#ffeb9f" stroke="#ffeb9f" stroke-width="1.51"/><path d="M-154,1149L172,1216L204,1039Z" fill="#ffd172" stroke="#ffd172" stroke-width="1.51"/><path d="M185,-72L-5,412L208,280Z" fill="#ffe48e" stroke="#ffe48e" stroke-width="1.51"/><path d="M42,3237L6,3845L182,3406Z" fill="#f28c52" stroke="#f28c52" stroke-width="1.51"/><path d="M18,812L-154,1149L204,1039Z" fill="#ffd679" stroke="#ffd679" stroke-width="1.51"/><path d="M-291,-225L-425,236L-40,-248Z" fill="#fff0a8" stroke="#fff0a8" stroke-width="1.51"/><path d="M6,3845L-201,4178L144,4197Z" fill="#dd8558" stroke="#dd8558" stroke-width="1.51"/><path d="M118,2851L-234,2926L155,3123Z" fill="#fe9857" stroke="#fe9857" stroke-width="1.51"/><path d="M-353,3189L6,3845L42,3237Z" fill="#f59159" stroke="#f59159" stroke-width="1.51"/><path d="M-64,2510L-236,2728L118,2851Z" fill="#ffa05e" stroke="#ffa05e" stroke-width="1.51"/><path d="M-234,2926L42,3237L155,3123Z" fill="#fc9657" stroke="#fc9657" stroke-width="1.51"/><path d="M-201,4178L-227,4258L144,4197Z" fill="#d6855c" stroke="#d6855c" stroke-width="1.51"/><path d="M-5,412L-220,552L144,669Z" fill="#ffe28a" stroke="#ffe28a" stroke-width="1.51"/><path d="M-220,552L18,812L144,669Z" fill="#ffe085" stroke="#ffe085" stroke-width="1.51"/><path d="M-470,3243L-630,3634L-353,3189Z" fill="#fa9969" stroke="#fa9969" stroke-width="1.51"/><path d="M-353,3189L-630,3634L6,3845Z" fill="#f29463" stroke="#f29463" stroke-width="1.51"/><path d="M-236,2728L-234,2926L118,2851Z" fill="#ff9f5e" stroke="#ff9f5e" stroke-width="1.51"/><path d="M-399,908L-154,1149L18,812Z" fill="#ffdb83" stroke="#ffdb83" stroke-width="1.51"/><path d="M-234,2926L-353,3189L42,3237Z" fill="#fd985e" stroke="#fd985e" stroke-width="1.51"/><path d="M-220,552L-399,908L18,812Z" fill="#ffe28b" stroke="#ffe28b" stroke-width="1.51"/><path d="M-380,1349L-482,1648L-78,1752Z" fill="#ffcc7a" stroke="#ffcc7a" stroke-width="1.51"/><path d="M-425,236L-220,552L-5,412Z" fill="#ffe897" stroke="#ffe897" stroke-width="1.51"/><path d="M-624,3981L-201,4178L6,3845Z" fill="#e28c63" stroke="#e28c63" stroke-width="1.51"/><path d="M-630,3634L-624,3981L6,3845Z" fill="#ea9169" stroke="#ea9169" stroke-width="1.51"/><path d="M-201,2025L-603,2237L-64,2510Z" fill="#ffb56f" stroke="#ffb56f" stroke-width="1.51"/><path d="M-512,-83L-425,236L-291,-225Z" fill="#fff2ae" stroke="#fff2ae" stroke-width="1.51"/><path d="M-603,2237L-236,2728L-64,2510Z" fill="#ffad6c" stroke="#ffad6c" stroke-width="1.51"/><path d="M-482,1648L-201,2025L-78,1752Z" fill="#ffc474" stroke="#ffc474" stroke-width="1.51"/><path d="M-603,2237L-617,2687L-236,2728Z" fill="#ffae73" stroke="#ffae73" stroke-width="1.51"/><path d="M-399,908L-380,1349L-154,1149Z" fill="#ffd884" stroke="#ffd884" stroke-width="1.51"/><path d="M-569,664L-399,908L-220,552Z" fill="#ffe796" stroke="#ffe796" stroke-width="1.51"/><path d="M-419,4363L-227,4258L-201,4178Z" fill="#d58863" stroke="#d58863" stroke-width="1.51"/><path d="M-624,3981L-419,4363L-201,4178Z" fill="#da8c69" stroke="#da8c69" stroke-width="1.51"/><path d="M-482,1648L-604,2064L-201,2025Z" fill="#ffc57b" stroke="#ffc57b" stroke-width="1.51"/><path d="M-604,2064L-603,2237L-201,2025Z" fill="#ffbf79" stroke="#ffbf79" stroke-width="1.51"/><path d="M-236,2728L-617,2687L-234,2926Z" fill="#ffa46a" stroke="#ffa46a" stroke-width="1.51"/><path d="M-425,236L-569,664L-220,552Z" fill="#ffeb9d" stroke="#ffeb9d" stroke-width="1.51"/><path d="M-617,2687L-353,3189L-234,2926Z" fill="#ffa26a" stroke="#ffa26a" stroke-width="1.51"/><path d="M-617,2687L-470,3243L-353,3189Z" fill="#ffa06b" stroke="#ffa06b" stroke-width="1.51"/><path d="M-628,-471L-512,-83L-291,-225Z" fill="#fff7b9" stroke="#fff7b9" stroke-width="1.51"/><path d="M-399,908L-569,664L-380,1349Z" fill="#ffe090" stroke="#ffe090" stroke-width="1.51"/><path d="M-569,664L-482,1648L-380,1349Z" fill="#ffd989" stroke="#ffd989" stroke-width="1.51"/><path d="M-512,-83L-569,664L-425,236Z" fill="#ffefa8" stroke="#ffefa8" stroke-width="1.51"/><path d="M-569,664L-604,2064L-482,1648Z" fill="#ffd386" stroke="#ffd386" stroke-width="1.51"/><path d="M-617,2687L-630,3634L-470,3243Z" fill="#fe9e6e" stroke="#fe9e6e" stroke-width="1.51"/><path d="M-628,-471L-569,664L-512,-83Z" fill="#fff5b4" stroke="#fff5b4" stroke-width="1.51"/><path d="M-628,-471L-604,2064L-569,664Z" fill="#ffe99e" stroke="#ffe99e" stroke-width="1.51"/><path d="M-604,2064L-617,2687L-603,2237Z" fill="#ffb97c" stroke="#ffb97c" stroke-width="1.51"/></svg>