<svg xmlns="http://www.w3.org/2000/svg" width="2500" height="4000"><path d="M340,4373L-419,4363L707,4414Z" fill="#759e67" stroke="#759e67" stroke-width="1.51"/><path d="M-628,-471L460,-430L1439,-585Z" fill="#e6f5be" stroke="#e6f5be" stroke-width="1.51"/><path d="M1938,4502L707,4414L2268,4565Z" fill="#287b46" stroke="#287b46" stroke-width="1.51"/><path d="M707,4414L-419,4363L2268,4565Z" fill="#579059" stroke="#579059" stroke-width="1.51"/><path d="M2718,4400L2268,4565L2948,4340Z" fill="#015b32" stroke="#015b32" stroke-width="1.51"/><path d="M2589,2515L2977,2794L3086,2241Z" fill="#2a8349" stroke="#2a8349" stroke-width="1.51"/><path d="M2845,1989L3086,2241L3107,1350Z" fill="#478b53" stroke="#478b53" stroke-width="1.51"/><path d="M2852,1564L2845,1989L3107,1350Z" fill="#519158" stroke="#519158" stroke-width="1.51"/><path d="M2500,-370L2917,-207L3121,-338Z" fill="#86aa7d" stroke="#86aa7d" stroke-width="1.51"/><path d="M2092,-580L2500,-370L3121,-338Z" fill="#8cb586" stroke="#8cb586" stroke-width="1.51"/><path d="M2917,-207L2820,205L3121,-338Z" fill="#82a576" stroke="#82a576" stroke-width="1.51"/><path d="M2960,3091L2640,3351L3133,3418Z" fill="#136d39" stroke="#136d39" stroke-width="1.51"/><path d="M3086,2241L2977,2794L3133,3418Z" fill="#1e7540" stroke="#1e7540" stroke-width="1.51"/><path d="M2977,2794L2960,3091L3133,3418Z" fill="#176e3c" stroke="#176e3c" stroke-width="1.51"/><path d="M3107,1350L3086,2241L3133,3418Z" fill="#317e49" stroke="#317e49" stroke-width="1.51"/><path d="M2851,4218L2948,4340L3142,3782Z" fill="#005730" stroke="#005730" stroke-width="1.51"/><path d="M3133,3418L2786,3654L3142,3782Z" fill="#096235" stroke="#096235" stroke-width="1.51"/><path d="M2786,3654L2851,4218L3142,3782Z" fill="#015f34" stroke="#015f34" stroke-width="1.51"/><path d="M2619,540L3021,994L3144,581Z" fill="#73a066" stroke="#73a066" stroke-width="1.51"/><path d="M2820,205L2619,540L3144,581Z" fill="#7aa56b" stroke="#7aa56b" stroke-width="1.51"/><path d="M3121,-338L2820,205L3144,581Z" fill="#7ea16d" stroke="#7ea16d" stroke-width="1.51"/><path d="M3021,994L3107,1350L3144,581Z" fill="#689560" stroke="#689560" stroke-width="1.51"/><path d="M3107,1350L3133,3418L3144,581Z" fill="#488753" stroke="#488753" stroke-width="1.51"/><path d="M3021,994L2536,1241L3107,1350Z" fill="#639b60" stroke="#639b60" stroke-width="1.51"/><path d="M2640,3351L2786,3654L3133,3418Z" fill="#0e6b39" stroke="#0e6b39" stroke-width="1.51"/><path d="M2536,1241L2852,1564L3107,1350Z" fill="#5d9a5e" stroke="#5d9a5e" stroke-width="1.51"/><path d="M2786,3654L2535,4011L2851,4218Z" fill="#006536" stroke="#006536" stroke-width="1.51"/><path d="M2589,2515L2681,2773L2977,2794Z" fill="#238448" stroke="#238448" stroke-width="1.51"/><path d="M2845,1989L2589,2515L3086,2241Z" fill="#388a4f" stroke="#388a4f" stroke-width="1.51"/><path d="M2500,2096L2589,2515L2845,1989Z" fill="#3c9353" stroke="#3c9353" stroke-width="1.51"/><path d="M2681,2773L2960,3091L2977,2794Z" fill="#1e7a42" stroke="#1e7a42" stroke-width="1.51"/><path d="M2619,540L2505,1121L3021,994Z" fill="#71a667" stroke="#71a667" stroke-width="1.51"/><path d="M2505,1121L2536,1241L3021,994Z" fill="#69a464" stroke="#69a464" stroke-width="1.51"/><path d="M2592,82L2820,205L2917,-207Z" fill="#85ac74" stroke="#85ac74" stroke-width="1.51"/><path d="M2681,2773L2472,2992L2960,3091Z" fill="#1d7f43" stroke="#1d7f43" stroke-width="1.51"/><path d="M2472,2992L2640,3351L2960,3091Z" fill="#187a3f" stroke="#187a3f" stroke-width="1.51"/><path d="M2460,1637L2845,1989L2852,1564Z" fill="#51995b" stroke="#51995b" stroke-width="1.51"/><path d="M2851,4218L2718,4400L2948,4340Z" fill="#005730" stroke="#005730" stroke-width="1.51"/><path d="M2607,233L2619,540L2820,205Z" fill="#80ad71" stroke="#80ad71" stroke-width="1.51"/><path d="M2500,-370L2592,82L2917,-207Z" fill="#88b17c" stroke="#88b17c" stroke-width="1.51"/><path d="M2460,1637L2500,2096L2845,1989Z" fill="#4b9959" stroke="#4b9959" stroke-width="1.51"/><path d="M2536,1241L2460,1637L2852,1564Z" fill="#5da05f" stroke="#5da05f" stroke-width="1.51"/><path d="M2535,4011L2718,4400L2851,4218Z" fill="#005f33" stroke="#005f33" stroke-width="1.51"/><path d="M2092,-580L2354,-374L2500,-370Z" fill="#92bd8a" stroke="#92bd8a" stroke-width="1.51"/><path d="M2500,2096L2438,2436L2589,2515Z" fill="#399452" stroke="#399452" stroke-width="1.51"/><path d="M2592,82L2607,233L2820,205Z" fill="#84af73" stroke="#84af73" stroke-width="1.51"/><path d="M2373,1533L2460,1637L2536,1241Z" fill="#62a662" stroke="#62a662" stroke-width="1.51"/><path d="M2640,3351L2328,3919L2786,3654Z" fill="#0e713b" stroke="#0e713b" stroke-width="1.51"/><path d="M2328,3919L2535,4011L2786,3654Z" fill="#086d39" stroke="#086d39" stroke-width="1.51"/><path d="M2196,959L2505,1121L2619,540Z" fill="#78af6c" stroke="#78af6c" stroke-width="1.51"/><path d="M2607,233L2445,388L2619,540Z" fill="#82b171" stroke="#82b171" stroke-width="1.51"/><path d="M2173,3835L2328,3919L2640,3351Z" fill="#14753c" stroke="#14753c" stroke-width="1.51"/><path d="M2535,4011L2268,4565L2718,4400Z" fill="#076235" stroke="#076235" stroke-width="1.51"/><path d="M2500,-370L2288,62L2592,82Z" fill="#8db77c" stroke="#8db77c" stroke-width="1.51"/><path d="M2304,3222L2173,3835L2640,3351Z" fill="#1a7b3f" stroke="#1a7b3f" stroke-width="1.51"/><path d="M2472,2992L2304,3222L2640,3351Z" fill="#1e7f41" stroke="#1e7f41" stroke-width="1.51"/><path d="M2589,2515L2298,2689L2681,2773Z" fill="#298d4c" stroke="#298d4c" stroke-width="1.51"/><path d="M2298,2689L2472,2992L2681,2773Z" fill="#268a49" stroke="#268a49" stroke-width="1.51"/><path d="M2354,-374L2288,62L2500,-370Z" fill="#90ba82" stroke="#90ba82" stroke-width="1.51"/><path d="M2445,388L2113,478L2619,540Z" fill="#84b572" stroke="#84b572" stroke-width="1.51"/><path d="M2113,478L2196,959L2619,540Z" fill="#81b671" stroke="#81b671" stroke-width="1.51"/><path d="M2460,1637L2114,1830L2500,2096Z" fill="#53a25e" stroke="#53a25e" stroke-width="1.51"/><path d="M2328,3919L2268,4565L2535,4011Z" fill="#0c6a38" stroke="#0c6a38" stroke-width="1.51"/><path d="M2438,2436L2298,2689L2589,2515Z" fill="#31924f" stroke="#31924f" stroke-width="1.51"/><path d="M2592,82L2288,62L2607,233Z" fill="#89b576" stroke="#89b576" stroke-width="1.51"/><path d="M2288,62L2445,388L2607,233Z" fill="#88b675" stroke="#88b675" stroke-width="1.51"/><path d="M2113,478L2050,829L2196,959Z" fill="#84bc73" stroke="#84bc73" stroke-width="1.51"/><path d="M2026,3733L2173,3835L2304,3222Z" fill="#1d7e41" stroke="#1d7e41" stroke-width="1.51"/><path d="M1940,3546L2026,3733L2304,3222Z" fill="#228444" stroke="#228444" stroke-width="1.51"/><path d="M1909,4224L2268,4565L2328,3919Z" fill="#146f3b" stroke="#146f3b" stroke-width="1.51"/><path d="M2114,1830L2097,1923L2500,2096Z" fill="#51a45e" stroke="#51a45e" stroke-width="1.51"/><path d="M2505,1121L2187,1196L2536,1241Z" fill="#6dab67" stroke="#6dab67" stroke-width="1.51"/><path d="M2187,1196L2373,1533L2536,1241Z" fill="#69ab66" stroke="#69ab66" stroke-width="1.51"/><path d="M2250,3066L2304,3222L2472,2992Z" fill="#248545" stroke="#248545" stroke-width="1.51"/><path d="M2298,2689L2250,3066L2472,2992Z" fill="#288b48" stroke="#288b48" stroke-width="1.51"/><path d="M1961,2295L2438,2436L2500,2096Z" fill="#429c56" stroke="#429c56" stroke-width="1.51"/><path d="M2097,1923L1961,2295L2500,2096Z" fill="#4ca35c" stroke="#4ca35c" stroke-width="1.51"/><path d="M2196,959L2187,1196L2505,1121Z" fill="#73b16a" stroke="#73b16a" stroke-width="1.51"/><path d="M1156,4292L707,4414L1938,4502Z" fill="#3f8851" stroke="#3f8851" stroke-width="1.51"/><path d="M2019,-170L2288,62L2354,-374Z" fill="#93bf82" stroke="#93bf82" stroke-width="1.51"/><path d="M2373,1533L2114,1830L2460,1637Z" fill="#5ca761" stroke="#5ca761" stroke-width="1.51"/><path d="M1714,4381L1156,4292L1938,4502Z" fill="#2b7f48" stroke="#2b7f48" stroke-width="1.51"/><path d="M2288,62L2113,478L2445,388Z" fill="#8aba76" stroke="#8aba76" stroke-width="1.51"/><path d="M1961,2295L2298,2689L2438,2436Z" fill="#3a9a53" stroke="#3a9a53" stroke-width="1.51"/><path d="M1909,4224L1938,4502L2268,4565Z" fill="#186e3c" stroke="#186e3c" stroke-width="1.51"/><path d="M2173,3835L1909,4224L2328,3919Z" fill="#16773e" stroke="#16773e" stroke-width="1.51"/><path d="M2010,1823L2114,1830L2373,1533Z" fill="#5dab63" stroke="#5dab63" stroke-width="1.51"/><path d="M2084,1208L2010,1823L2373,1533Z" fill="#67ae66" stroke="#67ae66" stroke-width="1.51"/><path d="M2187,1196L2084,1208L2373,1533Z" fill="#6eb068" stroke="#6eb068" stroke-width="1.51"/><path d="M2063,3138L1940,3546L2304,3222Z" fill="#268845" stroke="#268845" stroke-width="1.51"/><path d="M2092,-580L2019,-170L2354,-374Z" fill="#97c38b" stroke="#97c38b" stroke-width="1.51"/><path d="M1820,2761L2063,3138L2250,3066Z" fill="#2f934d" stroke="#2f934d" stroke-width="1.51"/><path d="M1820,2761L2250,3066L2298,2689Z" fill="#30944e" stroke="#30944e" stroke-width="1.51"/><path d="M1703,1515L2010,1823L2084,1208Z" fill="#6db86c" stroke="#6db86c" stroke-width="1.51"/><path d="M1783,353L2113,478L2288,62Z" fill="#91c37c" stroke="#91c37c" stroke-width="1.51"/><path d="M1961,2295L1820,2761L2298,2689Z" fill="#3ba056" stroke="#3ba056" stroke-width="1.51"/><path d="M2250,3066L2063,3138L2304,3222Z" fill="#278846" stroke="#278846" stroke-width="1.51"/><path d="M2019,-170L1783,353L2288,62Z" fill="#97c780" stroke="#97c780" stroke-width="1.51"/><path d="M460,-430L1192,-482L1439,-585Z" fill="#c8e8b0" stroke="#c8e8b0" stroke-width="1.51"/><path d="M1708,-33L1783,353L2019,-170Z" fill="#9ecf87" stroke="#9ecf87" stroke-width="1.51"/><path d="M2084,1208L2187,1196L2196,959Z" fill="#76b56c" stroke="#76b56c" stroke-width="1.51"/><path d="M1727,2664L1820,2761L1961,2295Z" fill="#41a85b" stroke="#41a85b" stroke-width="1.51"/><path d="M2026,3733L1909,4224L2173,3835Z" fill="#1b7c41" stroke="#1b7c41" stroke-width="1.51"/><path d="M2050,829L2084,1208L2196,959Z" fill="#7cb86f" stroke="#7cb86f" stroke-width="1.51"/><path d="M1819,517L2050,829L2113,478Z" fill="#8cc379" stroke="#8cc379" stroke-width="1.51"/><path d="M1642,4159L1909,4224L2026,3733Z" fill="#208145" stroke="#208145" stroke-width="1.51"/><path d="M2050,829L1644,951L2084,1208Z" fill="#81c175" stroke="#81c175" stroke-width="1.51"/><path d="M1439,-585L2019,-170L2092,-580Z" fill="#a0cf97" stroke="#a0cf97" stroke-width="1.51"/><path d="M2010,1823L1961,2295L2097,1923Z" fill="#55ab62" stroke="#55ab62" stroke-width="1.51"/><path d="M1783,353L1819,517L2113,478Z" fill="#92c87e" stroke="#92c87e" stroke-width="1.51"/><path d="M2010,1823L2097,1923L2114,1830Z" fill="#5aac63" stroke="#5aac63" stroke-width="1.51"/><path d="M1749,3641L1642,4159L2026,3733Z" fill="#258748" stroke="#258748" stroke-width="1.51"/><path d="M1571,3171L1940,3546L2063,3138Z" fill="#2e924c" stroke="#2e924c" stroke-width="1.51"/><path d="M1692,2374L1727,2664L1961,2295Z" fill="#49ac5f" stroke="#49ac5f" stroke-width="1.51"/><path d="M1544,1840L1961,2295L2010,1823Z" fill="#5bb468" stroke="#5bb468" stroke-width="1.51"/><path d="M1439,-585L1708,-33L2019,-170Z" fill="#a3d495" stroke="#a3d495" stroke-width="1.51"/><path d="M1571,3171L1617,3494L1940,3546Z" fill="#31954f" stroke="#31954f" stroke-width="1.51"/><path d="M1644,951L1703,1515L2084,1208Z" fill="#7dc274" stroke="#7dc274" stroke-width="1.51"/><path d="M1820,2761L1571,3171L2063,3138Z" fill="#369b53" stroke="#369b53" stroke-width="1.51"/><path d="M1544,1840L1692,2374L1961,2295Z" fill="#57b467" stroke="#57b467" stroke-width="1.51"/><path d="M1819,517L1644,951L2050,829Z" fill="#8cc87b" stroke="#8cc87b" stroke-width="1.51"/><path d="M1940,3546L1749,3641L2026,3733Z" fill="#268848" stroke="#268848" stroke-width="1.51"/><path d="M1703,1515L1544,1840L2010,1823Z" fill="#6abc6e" stroke="#6abc6e" stroke-width="1.51"/><path d="M1909,4224L1714,4381L1938,4502Z" fill="#1e7742" stroke="#1e7742" stroke-width="1.51"/><path d="M1644,951L1431,1260L1703,1515Z" fill="#86c97b" stroke="#86c97b" stroke-width="1.51"/><path d="M1617,3494L1749,3641L1940,3546Z" fill="#2b8f4c" stroke="#2b8f4c" stroke-width="1.51"/><path d="M1642,4159L1714,4381L1909,4224Z" fill="#227e45" stroke="#227e45" stroke-width="1.51"/><path d="M1439,-585L1255,-123L1708,-33Z" fill="#b0dc9c" stroke="#b0dc9c" stroke-width="1.51"/><path d="M1379,3643L1642,4159L1749,3641Z" fill="#328f4e" stroke="#328f4e" stroke-width="1.51"/><path d="M1708,-33L1475,349L1783,353Z" fill="#a1d489" stroke="#a1d489" stroke-width="1.51"/><path d="M1783,353L1511,511L1819,517Z" fill="#99d184" stroke="#99d184" stroke-width="1.51"/><path d="M1511,511L1644,951L1819,517Z" fill="#96d082" stroke="#96d082" stroke-width="1.51"/><path d="M1727,2664L1571,3171L1820,2761Z" fill="#3da559" stroke="#3da559" stroke-width="1.51"/><path d="M1174,2905L1571,3171L1727,2664Z" fill="#4aa95e" stroke="#4aa95e" stroke-width="1.51"/><path d="M1475,349L1511,511L1783,353Z" fill="#a0d588" stroke="#a0d588" stroke-width="1.51"/><path d="M1379,3643L1258,4081L1642,4159Z" fill="#3a9052" stroke="#3a9052" stroke-width="1.51"/><path d="M1544,1840L1292,1871L1692,2374Z" fill="#69be71" stroke="#69be71" stroke-width="1.51"/><path d="M1617,3494L1379,3643L1749,3641Z" fill="#369451" stroke="#369451" stroke-width="1.51"/><path d="M1511,511L1263,908L1644,951Z" fill="#9bd486" stroke="#9bd486" stroke-width="1.51"/><path d="M1292,1871L1123,2386L1692,2374Z" fill="#69be71" stroke="#69be71" stroke-width="1.51"/><path d="M1255,-123L1475,349L1708,-33Z" fill="#aedb91" stroke="#aedb91" stroke-width="1.51"/><path d="M1692,2374L1144,2665L1727,2664Z" fill="#52b264" stroke="#52b264" stroke-width="1.51"/><path d="M1144,2665L1174,2905L1727,2664Z" fill="#56b266" stroke="#56b266" stroke-width="1.51"/><path d="M1123,2386L1144,2665L1692,2374Z" fill="#61ba6c" stroke="#61ba6c" stroke-width="1.51"/><path d="M1642,4159L1156,4292L1714,4381Z" fill="#32854c" stroke="#32854c" stroke-width="1.51"/><path d="M1185,1702L1544,1840L1703,1515Z" fill="#79c577" stroke="#79c577" stroke-width="1.51"/><path d="M1431,1260L1171,1432L1703,1515Z" fill="#88cb7d" stroke="#88cb7d" stroke-width="1.51"/><path d="M1171,1432L1185,1702L1703,1515Z" fill="#86cb7d" stroke="#86cb7d" stroke-width="1.51"/><path d="M-628,-471L118,-366L460,-430Z" fill="#f5fbc6" stroke="#f5fbc6" stroke-width="1.51"/><path d="M1192,-482L1255,-123L1439,-585Z" fill="#bae1a6" stroke="#bae1a6" stroke-width="1.51"/><path d="M1571,3171L1134,3435L1617,3494Z" fill="#439e58" stroke="#439e58" stroke-width="1.51"/><path d="M1258,4081L1156,4292L1642,4159Z" fill="#3d8c51" stroke="#3d8c51" stroke-width="1.51"/><path d="M1263,908L1431,1260L1644,951Z" fill="#94d182" stroke="#94d182" stroke-width="1.51"/><path d="M1134,3435L1379,3643L1617,3494Z" fill="#449c57" stroke="#449c57" stroke-width="1.51"/><path d="M1255,-123L1224,369L1475,349Z" fill="#b3de94" stroke="#b3de94" stroke-width="1.51"/><path d="M1185,1702L1292,1871L1544,1840Z" fill="#7cc779" stroke="#7cc779" stroke-width="1.51"/><path d="M1174,2905L1134,3435L1571,3171Z" fill="#50a75f" stroke="#50a75f" stroke-width="1.51"/><path d="M1097,549L1263,908L1511,511Z" fill="#a9db8e" stroke="#a9db8e" stroke-width="1.51"/><path d="M1475,349L1224,369L1511,511Z" fill="#a9da8e" stroke="#a9da8e" stroke-width="1.51"/><path d="M1224,369L1097,549L1511,511Z" fill="#aedc91" stroke="#aedc91" stroke-width="1.51"/><path d="M987,147L1224,369L1255,-123Z" fill="#bce39a" stroke="#bce39a" stroke-width="1.51"/><path d="M949,2183L1123,2386L1292,1871Z" fill="#7ac679" stroke="#7ac679" stroke-width="1.51"/><path d="M896,3870L1258,4081L1379,3643Z" fill="#4a9959" stroke="#4a9959" stroke-width="1.51"/><path d="M1263,908L1004,1357L1431,1260Z" fill="#9ad587" stroke="#9ad587" stroke-width="1.51"/><path d="M1004,1357L1171,1432L1431,1260Z" fill="#96d384" stroke="#96d384" stroke-width="1.51"/><path d="M1024,2921L1134,3435L1174,2905Z" fill="#5dae64" stroke="#5dae64" stroke-width="1.51"/><path d="M1134,3435L896,3870L1379,3643Z" fill="#519f5c" stroke="#519f5c" stroke-width="1.51"/><path d="M1024,2921L791,3321L1134,3435Z" fill="#62ad65" stroke="#62ad65" stroke-width="1.51"/><path d="M460,-430L813,-316L1192,-482Z" fill="#d3edb2" stroke="#d3edb2" stroke-width="1.51"/><path d="M1192,-482L813,-316L1255,-123Z" fill="#c4e6a8" stroke="#c4e6a8" stroke-width="1.51"/><path d="M1097,549L1009,592L1263,908Z" fill="#b1de91" stroke="#b1de91" stroke-width="1.51"/><path d="M1009,592L936,890L1263,908Z" fill="#b0de90" stroke="#b0de90" stroke-width="1.51"/><path d="M936,890L1004,1357L1263,908Z" fill="#a8db8c" stroke="#a8db8c" stroke-width="1.51"/><path d="M1185,1702L949,2183L1292,1871Z" fill="#82ca7d" stroke="#82ca7d" stroke-width="1.51"/><path d="M832,4173L1156,4292L1258,4081Z" fill="#4d9357" stroke="#4d9357" stroke-width="1.51"/><path d="M896,3870L832,4173L1258,4081Z" fill="#53985b" stroke="#53985b" stroke-width="1.51"/><path d="M789,21L987,147L1255,-123Z" fill="#c6e7a0" stroke="#c6e7a0" stroke-width="1.51"/><path d="M813,-316L789,21L1255,-123Z" fill="#cae9a6" stroke="#cae9a6" stroke-width="1.51"/><path d="M1144,2665L1024,2921L1174,2905Z" fill="#63b66a" stroke="#63b66a" stroke-width="1.51"/><path d="M816,2161L949,2183L1185,1702Z" fill="#87cc7e" stroke="#87cc7e" stroke-width="1.51"/><path d="M889,1553L816,2161L1185,1702Z" fill="#91d182" stroke="#91d182" stroke-width="1.51"/><path d="M1171,1432L889,1553L1185,1702Z" fill="#94d283" stroke="#94d283" stroke-width="1.51"/><path d="M987,147L1097,549L1224,369Z" fill="#bae297" stroke="#bae297" stroke-width="1.51"/><path d="M703,3724L896,3870L1134,3435Z" fill="#5ea361" stroke="#5ea361" stroke-width="1.51"/><path d="M1123,2386L825,2650L1144,2665Z" fill="#6fbf71" stroke="#6fbf71" stroke-width="1.51"/><path d="M1004,1357L889,1553L1171,1432Z" fill="#9cd687" stroke="#9cd687" stroke-width="1.51"/><path d="M987,147L1009,592L1097,549Z" fill="#bce397" stroke="#bce397" stroke-width="1.51"/><path d="M832,4173L707,4414L1156,4292Z" fill="#56945a" stroke="#56945a" stroke-width="1.51"/><path d="M735,4265L707,4414L832,4173Z" fill="#5e975d" stroke="#5e975d" stroke-width="1.51"/><path d="M791,3321L703,3724L1134,3435Z" fill="#63a963" stroke="#63a963" stroke-width="1.51"/><path d="M825,2650L1024,2921L1144,2665Z" fill="#6cbb6e" stroke="#6cbb6e" stroke-width="1.51"/><path d="M936,890L666,1188L1004,1357Z" fill="#afde8f" stroke="#afde8f" stroke-width="1.51"/><path d="M949,2183L825,2650L1123,2386Z" fill="#79c576" stroke="#79c576" stroke-width="1.51"/><path d="M622,3440L703,3724L791,3321Z" fill="#6cad67" stroke="#6cad67" stroke-width="1.51"/><path d="M493,2022L816,2161L889,1553Z" fill="#99d486" stroke="#99d486" stroke-width="1.51"/><path d="M816,2161L825,2650L949,2183Z" fill="#81c97a" stroke="#81c97a" stroke-width="1.51"/><path d="M789,21L491,200L987,147Z" fill="#d2eda3" stroke="#d2eda3" stroke-width="1.51"/><path d="M987,147L491,200L1009,592Z" fill="#c9e99e" stroke="#c9e99e" stroke-width="1.51"/><path d="M491,200L663,748L1009,592Z" fill="#caea9d" stroke="#caea9d" stroke-width="1.51"/><path d="M663,748L936,890L1009,592Z" fill="#bde496" stroke="#bde496" stroke-width="1.51"/><path d="M825,2650L608,2973L1024,2921Z" fill="#74bd70" stroke="#74bd70" stroke-width="1.51"/><path d="M608,2973L791,3321L1024,2921Z" fill="#70b66c" stroke="#70b66c" stroke-width="1.51"/><path d="M666,1188L889,1553L1004,1357Z" fill="#a9db8c" stroke="#a9db8c" stroke-width="1.51"/><path d="M582,1498L493,2022L889,1553Z" fill="#a5da8b" stroke="#a5da8b" stroke-width="1.51"/><path d="M619,-90L789,21L813,-316Z" fill="#d5eeab" stroke="#d5eeab" stroke-width="1.51"/><path d="M816,2161L455,2262L825,2650Z" fill="#89cc7d" stroke="#89cc7d" stroke-width="1.51"/><path d="M666,1188L582,1498L889,1553Z" fill="#aede8e" stroke="#aede8e" stroke-width="1.51"/><path d="M618,4088L832,4173L896,3870Z" fill="#5f9e60" stroke="#5f9e60" stroke-width="1.51"/><path d="M663,748L666,1188L936,890Z" fill="#bce495" stroke="#bce495" stroke-width="1.51"/><path d="M663,748L529,816L666,1188Z" fill="#c4e798" stroke="#c4e798" stroke-width="1.51"/><path d="M703,3724L618,4088L896,3870Z" fill="#64a362" stroke="#64a362" stroke-width="1.51"/><path d="M428,2849L608,2973L825,2650Z" fill="#7fc175" stroke="#7fc175" stroke-width="1.51"/><path d="M455,2262L428,2849L825,2650Z" fill="#87c97b" stroke="#87c97b" stroke-width="1.51"/><path d="M618,4088L735,4265L832,4173Z" fill="#609b5f" stroke="#609b5f" stroke-width="1.51"/><path d="M608,2973L622,3440L791,3321Z" fill="#73b36a" stroke="#73b36a" stroke-width="1.51"/><path d="M493,2022L455,2262L816,2161Z" fill="#97d384" stroke="#97d384" stroke-width="1.51"/><path d="M460,-430L619,-90L813,-316Z" fill="#dcf1b2" stroke="#dcf1b2" stroke-width="1.51"/><path d="M619,-90L491,200L789,21Z" fill="#d9f0a7" stroke="#d9f0a7" stroke-width="1.51"/><path d="M491,200L208,280L529,816Z" fill="#dbf1a5" stroke="#dbf1a5" stroke-width="1.51"/><path d="M208,280L144,669L529,816Z" fill="#dcf1a5" stroke="#dcf1a5" stroke-width="1.51"/><path d="M379,2013L493,2022L582,1498Z" fill="#a7db8c" stroke="#a7db8c" stroke-width="1.51"/><path d="M491,200L529,816L663,748Z" fill="#d0ec9f" stroke="#d0ec9f" stroke-width="1.51"/><path d="M301,3806L618,4088L703,3724Z" fill="#6ea766" stroke="#6ea766" stroke-width="1.51"/><path d="M340,4373L707,4414L735,4265Z" fill="#65985f" stroke="#65985f" stroke-width="1.51"/><path d="M618,4088L340,4373L735,4265Z" fill="#689b61" stroke="#689b61" stroke-width="1.51"/><path d="M374,2264L428,2849L455,2262Z" fill="#93cf81" stroke="#93cf81" stroke-width="1.51"/><path d="M292,1490L379,2013L582,1498Z" fill="#b1df91" stroke="#b1df91" stroke-width="1.51"/><path d="M608,2973L155,3123L622,3440Z" fill="#7eba71" stroke="#7eba71" stroke-width="1.51"/><path d="M622,3440L301,3806L703,3724Z" fill="#71ac68" stroke="#71ac68" stroke-width="1.51"/><path d="M529,816L204,1039L666,1188Z" fill="#c7e89a" stroke="#c7e89a" stroke-width="1.51"/><path d="M155,3123L182,3406L622,3440Z" fill="#82b870" stroke="#82b870" stroke-width="1.51"/><path d="M292,1490L582,1498L666,1188Z" fill="#b8e293" stroke="#b8e293" stroke-width="1.51"/><path d="M172,1216L292,1490L666,1188Z" fill="#c2e698" stroke="#c2e698" stroke-width="1.51"/><path d="M204,1039L172,1216L666,1188Z" fill="#c8e99b" stroke="#c8e99b" stroke-width="1.51"/><path d="M428,2849L155,3123L608,2973Z" fill="#86c176" stroke="#86c176" stroke-width="1.51"/><path d="M144,4197L340,4373L618,4088Z" fill="#71a066" stroke="#71a066" stroke-width="1.51"/><path d="M185,-72L491,200L619,-90Z" fill="#e3f4ac" stroke="#e3f4ac" stroke-width="1.51"/><path d="M460,-430L185,-72L619,-90Z" fill="#e4f4b4" stroke="#e4f4b4" stroke-width="1.51"/><path d="M182,3406L301,3806L622,3440Z" fill="#7cb26d" stroke="#7cb26d" stroke-width="1.51"/><path d="M301,3806L144,4197L618,4088Z" fill="#74a768" stroke="#74a768" stroke-width="1.51"/><path d="M374,2264L118,2851L428,2849Z" fill="#92ce7f" stroke="#92ce7f" stroke-width="1.51"/><path d="M-227,4258L-419,4363L340,4373Z" fill="#7fa36f" stroke="#7fa36f" stroke-width="1.51"/><path d="M-64,2510L118,2851L374,2264Z" fill="#9bd285" stroke="#9bd285" stroke-width="1.51"/><path d="M379,2013L374,2264L455,2262Z" fill="#9ed587" stroke="#9ed587" stroke-width="1.51"/><path d="M118,-366L185,-72L460,-430Z" fill="#ecf8bb" stroke="#ecf8bb" stroke-width="1.51"/><path d="M379,2013L455,2262L493,2022Z" fill="#9fd689" stroke="#9fd689" stroke-width="1.51"/><path d="M144,669L204,1039L529,816Z" fill="#d5eea1" stroke="#d5eea1" stroke-width="1.51"/><path d="M292,1490L-78,1752L379,2013Z" fill="#b7e194" stroke="#b7e194" stroke-width="1.51"/><path d="M185,-72L208,280L491,200Z" fill="#e6f6ac" stroke="#e6f6ac" stroke-width="1.51"/><path d="M118,2851L155,3123L428,2849Z" fill="#8dc57a" stroke="#8dc57a" stroke-width="1.51"/><path d="M144,669L18,812L204,1039Z" fill="#daf1a5" stroke="#daf1a5" stroke-width="1.51"/><path d="M6,3845L144,4197L301,3806Z" fill="#7dac6e" stroke="#7dac6e" stroke-width="1.51"/><path d="M144,4197L-227,4258L340,4373Z" fill="#7aa36b" stroke="#7aa36b" stroke-width="1.51"/><path d="M-201,2025L374,2264L379,2013Z" fill="#aadb8e" stroke="#aadb8e" stroke-width="1.51"/><path d="M-78,1752L-201,2025L379,2013Z" fill="#b5e095" stroke="#b5e095" stroke-width="1.51"/><path d="M-5,412L144,669L208,280Z" fill="#e5f5ac" stroke="#e5f5ac" stroke-width="1.51"/><path d="M-201,2025L-64,2510L374,2264Z" fill="#a9d98d" stroke="#a9d98d" stroke-width="1.51"/><path d="M182,3406L6,3845L301,3806Z" fill="#81b270" stroke="#81b270" stroke-width="1.51"/><path d="M155,3123L42,3237L182,3406Z" fill="#8abc76" stroke="#8abc76" stroke-width="1.51"/><path d="M172,1216L-78,1752L292,1490Z" fill="#c3e69a" stroke="#c3e69a" stroke-width="1.51"/><path d="M-154,1149L-380,1349L-78,1752Z" fill="#d0eca4" stroke="#d0eca4" stroke-width="1.51"/><path d="M-291,-225L-40,-248L118,-366Z" fill="#f7fcc2" stroke="#f7fcc2" stroke-width="1.51"/><path d="M-628,-471L-291,-225L118,-366Z" fill="#fbfdcc" stroke="#fbfdcc" stroke-width="1.51"/><path d="M-154,1149L-78,1752L172,1216Z" fill="#ccea9f" stroke="#ccea9f" stroke-width="1.51"/><path d="M-425,236L-5,412L185,-72Z" fill="#f1fab5" stroke="#f1fab5" stroke-width="1.51"/><path d="M-40,-248L-425,236L185,-72Z" fill="#f5fbba" stroke="#f5fbba" stroke-width="1.51"/><path d="M118,-366L-40,-248L185,-72Z" fill="#f1f9bd" stroke="#f1f9bd" stroke-width="1.51"/><path d="M-154,1149L172,1216L204,1039Z" fill="#d2eda1" stroke="#d2eda1" stroke-width="1.51"/><path d="M185,-72L-5,412L208,280Z" fill="#eaf7af" stroke="#eaf7af" stroke-width="1.51"/><path d="M42,3237L6,3845L182,3406Z" fill="#87b774" stroke="#87b774" stroke-width="1.51"/><path d="M18,812L-154,1149L204,1039Z" fill="#d8efa4" stroke="#d8efa4" stroke-width="1.51"/><path d="M-291,-225L-425,236L-40,-248Z" fill="#f9fcc1" stroke="#f9fcc1" stroke-width="1.51"/><path d="M6,3845L-201,4178L144,4197Z" fill="#80aa70" stroke="#80aa70" stroke-width="1.51"/><path d="M118,2851L-234,2926L155,3123Z" fill="#94c77f" stroke="#94c77f" stroke-width="1.51"/><path d="M-353,3189L6,3845L42,3237Z" fill="#8dbb79" stroke="#8dbb79" stroke-width="1.51"/><path d="M-64,2510L-236,2728L118,2851Z" fill="#9dd186" stroke="#9dd186" stroke-width="1.51"/><path d="M-234,2926L42,3237L155,3123Z" fill="#92c47d" stroke="#92c47d" stroke-width="1.51"/><path d="M-201,4178L-227,4258L144,4197Z" fill="#80a76f" stroke="#80a76f" stroke-width="1.51"/><path d="M-5,412L-220,552L144,669Z" fill="#e8f6ad" stroke="#e8f6ad" stroke-width="1.51"/><path d="M-220,552L18,812L144,669Z" fill="#e4f5ab" stroke="#e4f5ab" stroke-width="1.51"/><path d="M-470,3243L-630,3634L-353,3189Z" fill="#94bf89" stroke="#94bf89" stroke-width="1.51"/><path d="M-353,3189L-630,3634L6,3845Z" fill="#8fba80" stroke="#8fba80" stroke-width="1.51"/><path d="M-236,2728L-234,2926L118,2851Z" fill="#9bcd84" stroke="#9bcd84" stroke-width="1.51"/><path d="M-399,908L-154,1149L18,812Z" fill="#e0f3aa" stroke="#e0f3aa" stroke-width="1.51"/><path d="M-234,2926L-353,3189L42,3237Z" fill="#96c580" stroke="#96c580" stroke-width="1.51"/><path d="M-220,552L-399,908L18,812Z" fill="#e7f6ae" stroke="#e7f6ae" stroke-width="1.51"/><path d="M-380,1349L-482,1648L-78,1752Z" fill="#cbe9a6" stroke="#cbe9a6" stroke-width="1.51"/><path d="M-425,236L-220,552L-5,412Z" fill="#f0f9b5" stroke="#f0f9b5" stroke-width="1.51"/><path d="M-624,3981L-201,4178L6,3845Z" fill="#87af78" stroke="#87af78" stroke-width="1.51"/><path d="M-630,3634L-624,3981L6,3845Z" fill="#8bb481" stroke="#8bb481" stroke-width="1.51"/><path d="M-201,2025L-603,2237L-64,2510Z" fill="#b1dc98" stroke="#b1dc98" stroke-width="1.51"/><path d="M-512,-83L-425,236L-291,-225Z" fill="#fafcc7" stroke="#fafcc7" stroke-width="1.51"/><path d="M-603,2237L-236,2728L-64,2510Z" fill="#a8d793" stroke="#a8d793" stroke-width="1.51"/><path d="M-482,1648L-201,2025L-78,1752Z" fill="#c1e5a0" stroke="#c1e5a0" stroke-width="1.51"/><path d="M-603,2237L-617,2687L-236,2728Z" fill="#a8d79a" stroke="#a8d79a" stroke-width="1.51"/><path d="M-399,908L-380,1349L-154,1149Z" fill="#dbf0ad" stroke="#dbf0ad" stroke-width="1.51"/><path d="M-569,664L-399,908L-220,552Z" fill="#eaf7b8" stroke="#eaf7b8" stroke-width="1.51"/><path d="M-419,4363L-227,4258L-201,4178Z" fill="#83a775" stroke="#83a775" stroke-width="1.51"/><path d="M-624,3981L-419,4363L-201,4178Z" fill="#85aa7c" stroke="#85aa7c" stroke-width="1.51"/><path d="M-482,1648L-604,2064L-201,2025Z" fill="#bfe4a6" stroke="#bfe4a6" stroke-width="1.51"/><path d="M-604,2064L-603,2237L-201,2025Z" fill="#b7e0a4" stroke="#b7e0a4" stroke-width="1.51"/><path d="M-236,2728L-617,2687L-234,2926Z" fill="#a0d090" stroke="#a0d090" stroke-width="1.51"/><path d="M-425,236L-569,664L-220,552Z" fill="#eff9bd" stroke="#eff9bd" stroke-width="1.51"/><path d="M-617,2687L-353,3189L-234,2926Z" fill="#9dcb8e" stroke="#9dcb8e" stroke-width="1.51"/><path d="M-617,2687L-470,3243L-353,3189Z" fill="#9bc88f" stroke="#9bc88f" stroke-width="1.51"/><path d="M-628,-471L-512,-83L-291,-225Z" fill="#fcfdd2" stroke="#fcfdd2" stroke-width="1.51"/><path d="M-399,908L-569,664L-380,1349Z" fill="#e2f3b6" stroke="#e2f3b6" stroke-width="1.51"/><path d="M-569,664L-482,1648L-380,1349Z" fill="#d9f0b3" stroke="#d9f0b3" stroke-width="1.51"/><path d="M-512,-83L-569,664L-425,236Z" fill="#f5fbc5" stroke="#f5fbc5" stroke-width="1.51"/><path d="M-569,664L-604,2064L-482,1648Z" fill="#d2ecb3" stroke="#d2ecb3" stroke-width="1.51"/><path d="M-617,2687L-630,3634L-470,3243Z" fill="#98c490" stroke="#98c490" stroke-width="1.51"/><path d="M-628,-471L-569,664L-512,-83Z" fill="#fbfdcd" stroke="#fbfdcd" stroke-width="1.51"/><path d="M-628,-471L-604,2064L-569,664Z" fill="#eaf7c1" stroke="#eaf7c1" stroke-width="1.51"/><path d="M-604,2064L-617,2687L-603,2237Z" fill="#b1dca5" stroke="#b1dca5" stroke-width="1.51"/></svg>