<svg xmlns="http://www.w3.org/2000/svg" width="2500" height="800"><path d="M1823,1158L1443,1110L2124,1236Z" fill="#92c9e6" stroke="#92c9e6" stroke-width="1.51"/><path d="M1443,1110L785,1132L2124,1236Z" fill="#84bcdd" stroke="#84bcdd" stroke-width="1.51"/><path d="M2124,1236L785,1132L2275,1271Z" fill="#8ac4e3" stroke="#8ac4e3" stroke-width="1.51"/><path d="M2275,1271L785,1132L2503,1308Z" fill="#92c5e3" stroke="#92c5e3" stroke-width="1.51"/><path d="M785,1132L294,1119L2503,1308Z" fill="#7dadce" stroke="#7dadce" stroke-width="1.51"/><path d="M1456,-412L2216,-406L2656,-505Z" fill="#80bde2" stroke="#80bde2" stroke-width="1.51"/><path d="M-69,-487L1456,-412L2656,-505Z" fill="#51a0d1" stroke="#51a0d1" stroke-width="1.51"/><path d="M-441,-511L-69,-487L2656,-505Z" fill="#4f91c0" stroke="#4f91c0" stroke-width="1.51"/><path d="M2941,-182L2637,223L2976,255Z" fill="#80abca" stroke="#80abca" stroke-width="1.51"/><path d="M2600,445L2582,891L3020,404Z" fill="#88c5e6" stroke="#88c5e6" stroke-width="1.51"/><path d="M2941,-182L2976,255L3020,404Z" fill="#769fc1" stroke="#769fc1" stroke-width="1.51"/><path d="M2947,-271L2941,-182L3020,404Z" fill="#86b6d1" stroke="#86b6d1" stroke-width="1.51"/><path d="M2582,891L2503,1308L3028,1282Z" fill="#abcae0" stroke="#abcae0" stroke-width="1.51"/><path d="M2582,891L3028,1282L3045,999Z" fill="#accbe1" stroke="#accbe1" stroke-width="1.51"/><path d="M3020,404L2582,891L3045,999Z" fill="#9cc9e4" stroke="#9cc9e4" stroke-width="1.51"/><path d="M2976,255L2600,445L3020,404Z" fill="#7babcd" stroke="#7babcd" stroke-width="1.51"/><path d="M2492,23L2637,223L2941,-182Z" fill="#8dbad4" stroke="#8dbad4" stroke-width="1.51"/><path d="M2637,223L2600,445L2976,255Z" fill="#7da9ca" stroke="#7da9ca" stroke-width="1.51"/><path d="M2656,-505L2941,-182L2947,-271Z" fill="#89bcdc" stroke="#89bcdc" stroke-width="1.51"/><path d="M2656,-505L2428,-129L2941,-182Z" fill="#93c7e1" stroke="#93c7e1" stroke-width="1.51"/><path d="M2428,-129L2492,23L2941,-182Z" fill="#9acde1" stroke="#9acde1" stroke-width="1.51"/><path d="M-69,-487L875,-296L1456,-412Z" fill="#5797c2" stroke="#5797c2" stroke-width="1.51"/><path d="M2275,1271L2503,1308L2582,891Z" fill="#b4d3e7" stroke="#b4d3e7" stroke-width="1.51"/><path d="M2298,753L2582,891L2600,445Z" fill="#a0d4ed" stroke="#a0d4ed" stroke-width="1.51"/><path d="M2430,347L2600,445L2637,223Z" fill="#85b2d1" stroke="#85b2d1" stroke-width="1.51"/><path d="M2216,-406L2428,-129L2656,-505Z" fill="#96c8e5" stroke="#96c8e5" stroke-width="1.51"/><path d="M2217,577L2298,753L2600,445Z" fill="#96d3ef" stroke="#96d3ef" stroke-width="1.51"/><path d="M2492,23L2430,347L2637,223Z" fill="#83aac8" stroke="#83aac8" stroke-width="1.51"/><path d="M2298,753L2275,1271L2582,891Z" fill="#c3e3f1" stroke="#c3e3f1" stroke-width="1.51"/><path d="M2430,347L2217,577L2600,445Z" fill="#8ec4e1" stroke="#8ec4e1" stroke-width="1.51"/><path d="M2124,1236L2275,1271L2298,753Z" fill="#b5d9ec" stroke="#b5d9ec" stroke-width="1.51"/><path d="M2034,275L2430,347L2492,23Z" fill="#85acca" stroke="#85acca" stroke-width="1.51"/><path d="M2428,-129L2034,275L2492,23Z" fill="#93c1d9" stroke="#93c1d9" stroke-width="1.51"/><path d="M1880,47L2034,275L2428,-129Z" fill="#85bbd7" stroke="#85bbd7" stroke-width="1.51"/><path d="M1963,-251L1880,47L2428,-129Z" fill="#93d2e7" stroke="#93d2e7" stroke-width="1.51"/><path d="M2216,-406L1963,-251L2428,-129Z" fill="#96cfe8" stroke="#96cfe8" stroke-width="1.51"/><path d="M2034,275L2217,577L2430,347Z" fill="#86bddc" stroke="#86bddc" stroke-width="1.51"/><path d="M1878,756L1813,918L2050,666Z" fill="#93d2ef" stroke="#93d2ef" stroke-width="1.51"/><path d="M1456,-412L1963,-251L2216,-406Z" fill="#76bfe3" stroke="#76bfe3" stroke-width="1.51"/><path d="M1813,918L2124,1236L2298,753Z" fill="#b3ddf1" stroke="#b3ddf1" stroke-width="1.51"/><path d="M2050,666L1813,918L2298,753Z" fill="#9dd6f0" stroke="#9dd6f0" stroke-width="1.51"/><path d="M2217,577L2050,666L2298,753Z" fill="#96d3ef" stroke="#96d3ef" stroke-width="1.51"/><path d="M1813,918L1823,1158L2124,1236Z" fill="#9fd0ea" stroke="#9fd0ea" stroke-width="1.51"/><path d="M2034,275L2050,666L2217,577Z" fill="#81c5e6" stroke="#81c5e6" stroke-width="1.51"/><path d="M2034,275L1815,541L2050,666Z" fill="#76c0e4" stroke="#76c0e4" stroke-width="1.51"/><path d="M995,1075L785,1132L1443,1110Z" fill="#80accc" stroke="#80accc" stroke-width="1.51"/><path d="M1456,-412L1642,-213L1963,-251Z" fill="#6bc0e4" stroke="#6bc0e4" stroke-width="1.51"/><path d="M1811,-157L1880,47L1963,-251Z" fill="#85cee7" stroke="#85cee7" stroke-width="1.51"/><path d="M1857,260L1815,541L2034,275Z" fill="#6db1d6" stroke="#6db1d6" stroke-width="1.51"/><path d="M1880,47L1857,260L2034,275Z" fill="#6ca6c9" stroke="#6ca6c9" stroke-width="1.51"/><path d="M1815,541L1878,756L2050,666Z" fill="#80ccee" stroke="#80ccee" stroke-width="1.51"/><path d="M1642,-213L1811,-157L1963,-251Z" fill="#7dcae7" stroke="#7dcae7" stroke-width="1.51"/><path d="M875,-296L1122,-296L1456,-412Z" fill="#5ba2cb" stroke="#5ba2cb" stroke-width="1.51"/><path d="M1444,203L1815,541L1857,260Z" fill="#5ba9d2" stroke="#5ba9d2" stroke-width="1.51"/><path d="M1815,541L1344,785L1878,756Z" fill="#74c8ed" stroke="#74c8ed" stroke-width="1.51"/><path d="M1811,-157L1642,-213L1880,47Z" fill="#7cc9e5" stroke="#7cc9e5" stroke-width="1.51"/><path d="M1642,-213L1444,203L1880,47Z" fill="#67b6d9" stroke="#67b6d9" stroke-width="1.51"/><path d="M1444,203L1857,260L1880,47Z" fill="#5ea4cb" stroke="#5ea4cb" stroke-width="1.51"/><path d="M1344,785L1813,918L1878,756Z" fill="#88ceee" stroke="#88ceee" stroke-width="1.51"/><path d="M1444,203L1274,504L1815,541Z" fill="#54aad4" stroke="#54aad4" stroke-width="1.51"/><path d="M1813,918L1443,1110L1823,1158Z" fill="#93ceea" stroke="#93ceea" stroke-width="1.51"/><path d="M1274,504L1344,785L1815,541Z" fill="#5dbbe4" stroke="#5dbbe4" stroke-width="1.51"/><path d="M1344,785L1443,1110L1813,918Z" fill="#93ceeb" stroke="#93ceeb" stroke-width="1.51"/><path d="M1456,-412L1279,63L1642,-213Z" fill="#6cbfe0" stroke="#6cbfe0" stroke-width="1.51"/><path d="M1279,63L1444,203L1642,-213Z" fill="#61acd1" stroke="#61acd1" stroke-width="1.51"/><path d="M-69,-487L353,-274L875,-296Z" fill="#6cb3d5" stroke="#6cb3d5" stroke-width="1.51"/><path d="M1344,785L995,1075L1443,1110Z" fill="#8cbddb" stroke="#8cbddb" stroke-width="1.51"/><path d="M1171,418L1274,504L1444,203Z" fill="#509bc6" stroke="#509bc6" stroke-width="1.51"/><path d="M1182,191L1171,418L1444,203Z" fill="#4d8fb9" stroke="#4d8fb9" stroke-width="1.51"/><path d="M1176,-7L1279,63L1456,-412Z" fill="#6bb7d6" stroke="#6bb7d6" stroke-width="1.51"/><path d="M1122,-296L1176,-7L1456,-412Z" fill="#65b0d3" stroke="#65b0d3" stroke-width="1.51"/><path d="M1279,63L1182,191L1444,203Z" fill="#5293bc" stroke="#5293bc" stroke-width="1.51"/><path d="M1274,504L1084,764L1344,785Z" fill="#67b2d8" stroke="#67b2d8" stroke-width="1.51"/><path d="M1084,764L995,1075L1344,785Z" fill="#82b6d6" stroke="#82b6d6" stroke-width="1.51"/><path d="M1171,418L1084,764L1274,504Z" fill="#53a8d3" stroke="#53a8d3" stroke-width="1.51"/><path d="M1176,-7L1182,191L1279,63Z" fill="#5797bf" stroke="#5797bf" stroke-width="1.51"/><path d="M715,649L1084,764L1171,418Z" fill="#57a2cc" stroke="#57a2cc" stroke-width="1.51"/><path d="M1122,-296L875,-296L1176,-7Z" fill="#65a9cb" stroke="#65a9cb" stroke-width="1.51"/><path d="M875,-296L845,128L1176,-7Z" fill="#609dbf" stroke="#609dbf" stroke-width="1.51"/><path d="M1176,-7L845,128L1182,191Z" fill="#538eb6" stroke="#538eb6" stroke-width="1.51"/><path d="M845,128L1171,418L1182,191Z" fill="#4a83ae" stroke="#4a83ae" stroke-width="1.51"/><path d="M715,-90L845,128L875,-296Z" fill="#65a1c1" stroke="#65a1c1" stroke-width="1.51"/><path d="M845,128L715,649L1171,418Z" fill="#4c8ab5" stroke="#4c8ab5" stroke-width="1.51"/><path d="M-147,1012L-478,1026L294,1119Z" fill="#97cae4" stroke="#97cae4" stroke-width="1.51"/><path d="M722,801L995,1075L1084,764Z" fill="#7faccc" stroke="#7faccc" stroke-width="1.51"/><path d="M715,649L722,801L1084,764Z" fill="#6ca5c9" stroke="#6ca5c9" stroke-width="1.51"/><path d="M722,801L785,1132L995,1075Z" fill="#86acca" stroke="#86acca" stroke-width="1.51"/><path d="M584,72L360,514L715,649Z" fill="#5b9fc4" stroke="#5b9fc4" stroke-width="1.51"/><path d="M722,801L575,1022L785,1132Z" fill="#8db7d1" stroke="#8db7d1" stroke-width="1.51"/><path d="M584,72L715,649L845,128Z" fill="#5088b0" stroke="#5088b0" stroke-width="1.51"/><path d="M353,-274L715,-90L875,-296Z" fill="#6baecd" stroke="#6baecd" stroke-width="1.51"/><path d="M386,152L360,514L584,72Z" fill="#5b95b9" stroke="#5b95b9" stroke-width="1.51"/><path d="M575,1022L294,1119L785,1132Z" fill="#8cb9d3" stroke="#8cb9d3" stroke-width="1.51"/><path d="M715,-90L584,72L845,128Z" fill="#5e98ba" stroke="#5e98ba" stroke-width="1.51"/><path d="M298,373L360,514L386,152Z" fill="#62a5c7" stroke="#62a5c7" stroke-width="1.51"/><path d="M544,908L575,1022L722,801Z" fill="#8ebdd6" stroke="#8ebdd6" stroke-width="1.51"/><path d="M715,649L544,908L722,801Z" fill="#7bb3d3" stroke="#7bb3d3" stroke-width="1.51"/><path d="M360,514L544,908L715,649Z" fill="#72b7d7" stroke="#72b7d7" stroke-width="1.51"/><path d="M353,-274L584,72L715,-90Z" fill="#71b4ce" stroke="#71b4ce" stroke-width="1.51"/><path d="M-69,-487L225,-260L353,-274Z" fill="#76c2df" stroke="#76c2df" stroke-width="1.51"/><path d="M353,-274L200,-161L386,152Z" fill="#7bc2d9" stroke="#7bc2d9" stroke-width="1.51"/><path d="M353,-274L386,152L584,72Z" fill="#6fb0cc" stroke="#6fb0cc" stroke-width="1.51"/><path d="M360,514L104,946L544,908Z" fill="#8ac9e2" stroke="#8ac9e2" stroke-width="1.51"/><path d="M544,908L294,1119L575,1022Z" fill="#95c3da" stroke="#95c3da" stroke-width="1.51"/><path d="M104,946L294,1119L544,908Z" fill="#9ecfe3" stroke="#9ecfe3" stroke-width="1.51"/><path d="M225,-260L200,-161L353,-274Z" fill="#7cc6df" stroke="#7cc6df" stroke-width="1.51"/><path d="M64,455L104,946L360,514Z" fill="#7acce8" stroke="#7acce8" stroke-width="1.51"/><path d="M-124,187L298,373L386,152Z" fill="#66a4c4" stroke="#66a4c4" stroke-width="1.51"/><path d="M200,-161L-124,187L386,152Z" fill="#75b9d2" stroke="#75b9d2" stroke-width="1.51"/><path d="M298,373L64,455L360,514Z" fill="#6ab7d7" stroke="#6ab7d7" stroke-width="1.51"/><path d="M104,946L-147,1012L294,1119Z" fill="#a0d5e8" stroke="#a0d5e8" stroke-width="1.51"/><path d="M-124,187L64,455L298,373Z" fill="#68aecf" stroke="#68aecf" stroke-width="1.51"/><path d="M-223,-30L-124,187L200,-161Z" fill="#72b8d5" stroke="#72b8d5" stroke-width="1.51"/><path d="M-69,-487L200,-161L225,-260Z" fill="#79c5e1" stroke="#79c5e1" stroke-width="1.51"/><path d="M64,455L-265,511L104,946Z" fill="#73c5e6" stroke="#73c5e6" stroke-width="1.51"/><path d="M-265,511L-268,936L104,946Z" fill="#88c8e6" stroke="#88c8e6" stroke-width="1.51"/><path d="M-69,-487L-223,-30L200,-161Z" fill="#7ac5e1" stroke="#7ac5e1" stroke-width="1.51"/><path d="M-279,-72L-223,-30L-69,-487Z" fill="#75c1df" stroke="#75c1df" stroke-width="1.51"/><path d="M-268,936L-147,1012L104,946Z" fill="#9dd1e8" stroke="#9dd1e8" stroke-width="1.51"/><path d="M-124,187L-265,511L64,455Z" fill="#61aad0" stroke="#61aad0" stroke-width="1.51"/><path d="M-416,849L-268,936L-265,511Z" fill="#7cbfe3" stroke="#7cbfe3" stroke-width="1.51"/><path d="M-441,-511L-279,-72L-69,-487Z" fill="#64b0d9" stroke="#64b0d9" stroke-width="1.51"/><path d="M-409,564L-416,849L-265,511Z" fill="#65b7e1" stroke="#65b7e1" stroke-width="1.51"/><path d="M-268,936L-478,1026L-147,1012Z" fill="#94c6e4" stroke="#94c6e4" stroke-width="1.51"/><path d="M-223,-30L-564,302L-124,187Z" fill="#5999c3" stroke="#5999c3" stroke-width="1.51"/><path d="M-564,302L-265,511L-124,187Z" fill="#569cc8" stroke="#569cc8" stroke-width="1.51"/><path d="M-564,302L-409,564L-265,511Z" fill="#55a5d3" stroke="#55a5d3" stroke-width="1.51"/><path d="M-279,-72L-564,302L-223,-30Z" fill="#5ea1ca" stroke="#5ea1ca" stroke-width="1.51"/><path d="M-416,849L-478,1026L-268,936Z" fill="#91c4e4" stroke="#91c4e4" stroke-width="1.51"/><path d="M-441,-511L-564,302L-279,-72Z" fill="#6ab3d8" stroke="#6ab3d8" stroke-width="1.51"/><path d="M-564,302L-478,1026L-416,849Z" fill="#6eb5e0" stroke="#6eb5e0" stroke-width="1.51"/><path d="M-564,302L-416,849L-409,564Z" fill="#55aede" stroke="#55aede" stroke-width="1.51"/></svg>