<svg xmlns="http://www.w3.org/2000/svg" width="1920" height="1080"><path d="M725,1287L128,1307L846,1309Z" fill="#58514b" stroke="#58514b" stroke-width="1.51"/><path d="M472,-211L692,-206L875,-225Z" fill="#4e4740" stroke="#4e4740" stroke-width="1.51"/><path d="M261,-240L472,-211L875,-225Z" fill="#635b53" stroke="#635b53" stroke-width="1.51"/><path d="M846,1309L128,1307L1141,1341Z" fill="#3f3935" stroke="#3f3935" stroke-width="1.51"/><path d="M128,1307L-222,1336L1141,1341Z" fill="#4f4944" stroke="#4f4944" stroke-width="1.51"/><path d="M1465,1241L1283,1303L1669,1236Z" fill="#75716c" stroke="#75716c" stroke-width="1.51"/><path d="M1669,1236L1283,1303L1750,1251Z" fill="#7b7875" stroke="#7b7875" stroke-width="1.51"/><path d="M261,-240L875,-225L1800,-258Z" fill="#655d54" stroke="#655d54" stroke-width="1.51"/><path d="M15,-252L261,-240L1800,-258Z" fill="#514a44" stroke="#514a44" stroke-width="1.51"/><path d="M875,-225L1161,-220L1800,-258Z" fill="#797168" stroke="#797168" stroke-width="1.51"/><path d="M1382,-202L1437,-199L1800,-258Z" fill="#716d68" stroke="#716d68" stroke-width="1.51"/><path d="M1161,-220L1382,-202L1800,-258Z" fill="#6e6963" stroke="#6e6963" stroke-width="1.51"/><path d="M1750,1251L1283,1303L1979,1305Z" fill="#7c7977" stroke="#7c7977" stroke-width="1.51"/><path d="M1283,1303L1141,1341L1979,1305Z" fill="#605c58" stroke="#605c58" stroke-width="1.51"/><path d="M1800,-258L1959,-218L2049,-196Z" fill="#6b6966" stroke="#6b6966" stroke-width="1.51"/><path d="M1907,245L1888,385L2085,420Z" fill="#635c57" stroke="#635c57" stroke-width="1.51"/><path d="M1923,974L1935,1114L2091,1127Z" fill="#93908d" stroke="#93908d" stroke-width="1.51"/><path d="M1979,1305L2082,1284L2091,1127Z" fill="#5f5d5b" stroke="#5f5d5b" stroke-width="1.51"/><path d="M1907,245L2085,420L2099,220Z" fill="#5c554f" stroke="#5c554f" stroke-width="1.51"/><path d="M1917,573L2053,695L2110,541Z" fill="#756b63" stroke="#756b63" stroke-width="1.51"/><path d="M2099,220L2085,420L2110,541Z" fill="#38332f" stroke="#38332f" stroke-width="1.51"/><path d="M1923,974L2091,1127L2114,953Z" fill="#7c7975" stroke="#7c7975" stroke-width="1.51"/><path d="M2056,829L1923,974L2114,953Z" fill="#726e6a" stroke="#726e6a" stroke-width="1.51"/><path d="M2091,1127L2082,1284L2114,953Z" fill="#7b7976" stroke="#7b7976" stroke-width="1.51"/><path d="M2110,541L2053,695L2114,953Z" fill="#6d645d" stroke="#6d645d" stroke-width="1.51"/><path d="M2053,695L2056,829L2114,953Z" fill="#69635e" stroke="#69635e" stroke-width="1.51"/><path d="M1936,-100L2063,77L2118,-81Z" fill="#3b3938" stroke="#3b3938" stroke-width="1.51"/><path d="M2049,-196L1936,-100L2118,-81Z" fill="#444240" stroke="#444240" stroke-width="1.51"/><path d="M2063,77L2099,220L2118,-81Z" fill="#46423d" stroke="#46423d" stroke-width="1.51"/><path d="M2099,220L2110,541L2118,-81Z" fill="#564f48" stroke="#564f48" stroke-width="1.51"/><path d="M1935,1114L1979,1305L2091,1127Z" fill="#807f7c" stroke="#807f7c" stroke-width="1.51"/><path d="M2085,420L1917,573L2110,541Z" fill="#58524b" stroke="#58524b" stroke-width="1.51"/><path d="M2063,77L1907,245L2099,220Z" fill="#746b62" stroke="#746b62" stroke-width="1.51"/><path d="M2053,695L1964,789L2056,829Z" fill="#7b736c" stroke="#7b736c" stroke-width="1.51"/><path d="M1917,573L1976,708L2053,695Z" fill="#91867b" stroke="#91867b" stroke-width="1.51"/><path d="M1976,708L1964,789L2053,695Z" fill="#867d74" stroke="#867d74" stroke-width="1.51"/><path d="M1936,-100L1883,44L2063,77Z" fill="#585451" stroke="#585451" stroke-width="1.51"/><path d="M1888,385L1917,573L2085,420Z" fill="#5d5751" stroke="#5d5751" stroke-width="1.51"/><path d="M1959,-218L1936,-100L2049,-196Z" fill="#575553" stroke="#575553" stroke-width="1.51"/><path d="M1964,789L1923,974L2056,829Z" fill="#7e7974" stroke="#7e7974" stroke-width="1.51"/><path d="M1883,44L1907,245L2063,77Z" fill="#777069" stroke="#777069" stroke-width="1.51"/><path d="M1888,385L1799,504L1917,573Z" fill="#7e7770" stroke="#7e7770" stroke-width="1.51"/><path d="M1745,872L1923,974L1964,789Z" fill="#99948f" stroke="#99948f" stroke-width="1.51"/><path d="M1791,717L1964,789L1976,708Z" fill="#9d948b" stroke="#9d948b" stroke-width="1.51"/><path d="M1917,573L1791,717L1976,708Z" fill="#a89c91" stroke="#a89c91" stroke-width="1.51"/><path d="M1935,1114L1750,1251L1979,1305Z" fill="#8f8d8a" stroke="#8f8d8a" stroke-width="1.51"/><path d="M1883,44L1751,125L1907,245Z" fill="#989087" stroke="#989087" stroke-width="1.51"/><path d="M1818,-60L1883,44L1936,-100Z" fill="#615f5c" stroke="#615f5c" stroke-width="1.51"/><path d="M1800,-258L1936,-100L1959,-218Z" fill="#706e6b" stroke="#706e6b" stroke-width="1.51"/><path d="M1791,717L1745,872L1964,789Z" fill="#ada69e" stroke="#ada69e" stroke-width="1.51"/><path d="M1823,404L1799,504L1888,385Z" fill="#76706a" stroke="#76706a" stroke-width="1.51"/><path d="M1745,872L1794,985L1923,974Z" fill="#afaaa5" stroke="#afaaa5" stroke-width="1.51"/><path d="M1923,974L1794,985L1935,1114Z" fill="#a8a4a0" stroke="#a8a4a0" stroke-width="1.51"/><path d="M1798,277L1888,385L1907,245Z" fill="#867f77" stroke="#867f77" stroke-width="1.51"/><path d="M1794,985L1761,1098L1935,1114Z" fill="#bdbab5" stroke="#bdbab5" stroke-width="1.51"/><path d="M1761,1098L1750,1251L1935,1114Z" fill="#bfbcb9" stroke="#bfbcb9" stroke-width="1.51"/><path d="M1800,-258L1818,-60L1936,-100Z" fill="#74716f" stroke="#74716f" stroke-width="1.51"/><path d="M1751,125L1798,277L1907,245Z" fill="#a69d93" stroke="#a69d93" stroke-width="1.51"/><path d="M1799,504L1791,717L1917,573Z" fill="#a79d93" stroke="#a79d93" stroke-width="1.51"/><path d="M1798,277L1823,404L1888,385Z" fill="#827b74" stroke="#827b74" stroke-width="1.51"/><path d="M1800,-258L1687,-164L1818,-60Z" fill="#7c7975" stroke="#7c7975" stroke-width="1.51"/><path d="M1668,594L1791,717L1799,504Z" fill="#a89e93" stroke="#a89e93" stroke-width="1.51"/><path d="M1818,-60L1751,125L1883,44Z" fill="#85807a" stroke="#85807a" stroke-width="1.51"/><path d="M247,1282L128,1307L725,1287Z" fill="#5f5852" stroke="#5f5852" stroke-width="1.51"/><path d="M1682,794L1745,872L1791,717Z" fill="#aaa29a" stroke="#aaa29a" stroke-width="1.51"/><path d="M1437,-199L1687,-164L1800,-258Z" fill="#787470" stroke="#787470" stroke-width="1.51"/><path d="M1631,63L1751,125L1818,-60Z" fill="#7e7974" stroke="#7e7974" stroke-width="1.51"/><path d="M1671,-87L1631,63L1818,-60Z" fill="#6a6763" stroke="#6a6763" stroke-width="1.51"/><path d="M1687,-164L1671,-87L1818,-60Z" fill="#6f6c69" stroke="#6f6c69" stroke-width="1.51"/><path d="M1640,386L1799,504L1823,404Z" fill="#766f69" stroke="#766f69" stroke-width="1.51"/><path d="M1798,277L1640,386L1823,404Z" fill="#817a73" stroke="#817a73" stroke-width="1.51"/><path d="M1751,125L1629,185L1798,277Z" fill="#a3988e" stroke="#a3988e" stroke-width="1.51"/><path d="M1669,1236L1750,1251L1761,1098Z" fill="#a6a29f" stroke="#a6a29f" stroke-width="1.51"/><path d="M1674,730L1682,794L1791,717Z" fill="#ada399" stroke="#ada399" stroke-width="1.51"/><path d="M1668,594L1674,730L1791,717Z" fill="#b2a69a" stroke="#b2a69a" stroke-width="1.51"/><path d="M1640,386L1668,594L1799,504Z" fill="#837b73" stroke="#837b73" stroke-width="1.51"/><path d="M1583,985L1761,1098L1794,985Z" fill="#b0aca7" stroke="#b0aca7" stroke-width="1.51"/><path d="M1629,185L1640,386L1798,277Z" fill="#8b837a" stroke="#8b837a" stroke-width="1.51"/><path d="M1745,872L1583,985L1794,985Z" fill="#a5a09b" stroke="#a5a09b" stroke-width="1.51"/><path d="M1625,1162L1669,1236L1761,1098Z" fill="#aeaaa7" stroke="#aeaaa7" stroke-width="1.51"/><path d="M1583,985L1625,1162L1761,1098Z" fill="#b3afaa" stroke="#b3afaa" stroke-width="1.51"/><path d="M1631,63L1629,185L1751,125Z" fill="#8f867d" stroke="#8f867d" stroke-width="1.51"/><path d="M1682,794L1583,985L1745,872Z" fill="#9b968f" stroke="#9b968f" stroke-width="1.51"/><path d="M1583,985L1515,1096L1625,1162Z" fill="#aba7a1" stroke="#aba7a1" stroke-width="1.51"/><path d="M1640,386L1460,486L1668,594Z" fill="#776f66" stroke="#776f66" stroke-width="1.51"/><path d="M1537,39L1631,63L1671,-87Z" fill="#6a6660" stroke="#6a6660" stroke-width="1.51"/><path d="M1505,-54L1537,39L1671,-87Z" fill="#5c5955" stroke="#5c5955" stroke-width="1.51"/><path d="M1668,594L1463,701L1674,730Z" fill="#a89c90" stroke="#a89c90" stroke-width="1.51"/><path d="M1533,796L1583,985L1682,794Z" fill="#979089" stroke="#979089" stroke-width="1.51"/><path d="M1505,-54L1671,-87L1687,-164Z" fill="#65625f" stroke="#65625f" stroke-width="1.51"/><path d="M1437,-199L1505,-54L1687,-164Z" fill="#65615d" stroke="#65615d" stroke-width="1.51"/><path d="M1629,185L1437,276L1640,386Z" fill="#80776e" stroke="#80776e" stroke-width="1.51"/><path d="M1674,730L1533,796L1682,794Z" fill="#a2998f" stroke="#a2998f" stroke-width="1.51"/><path d="M1463,701L1533,796L1674,730Z" fill="#9d9389" stroke="#9d9389" stroke-width="1.51"/><path d="M1625,1162L1465,1241L1669,1236Z" fill="#918d89" stroke="#918d89" stroke-width="1.51"/><path d="M1460,486L1463,701L1668,594Z" fill="#908479" stroke="#908479" stroke-width="1.51"/><path d="M1523,1011L1515,1096L1583,985Z" fill="#a19c96" stroke="#a19c96" stroke-width="1.51"/><path d="M1537,39L1629,185L1631,63Z" fill="#807871" stroke="#807871" stroke-width="1.51"/><path d="M1458,427L1460,486L1640,386Z" fill="#615a53" stroke="#615a53" stroke-width="1.51"/><path d="M1437,276L1458,427L1640,386Z" fill="#6a625a" stroke="#6a625a" stroke-width="1.51"/><path d="M398,1262L247,1282L725,1287Z" fill="#716860" stroke="#716860" stroke-width="1.51"/><path d="M1537,39L1385,190L1629,185Z" fill="#847a71" stroke="#847a71" stroke-width="1.51"/><path d="M1385,190L1437,276L1629,185Z" fill="#877c71" stroke="#877c71" stroke-width="1.51"/><path d="M1515,1096L1465,1241L1625,1162Z" fill="#9f9b96" stroke="#9f9b96" stroke-width="1.51"/><path d="M1368,820L1523,1011L1533,796Z" fill="#89837c" stroke="#89837c" stroke-width="1.51"/><path d="M1533,796L1523,1011L1583,985Z" fill="#938e88" stroke="#938e88" stroke-width="1.51"/><path d="M1460,486L1339,571L1463,701Z" fill="#8c7f73" stroke="#8c7f73" stroke-width="1.51"/><path d="M1375,1138L1465,1241L1515,1096Z" fill="#9e9993" stroke="#9e9993" stroke-width="1.51"/><path d="M1368,820L1342,1024L1523,1011Z" fill="#948c85" stroke="#948c85" stroke-width="1.51"/><path d="M1505,-54L1354,56L1537,39Z" fill="#615b55" stroke="#615b55" stroke-width="1.51"/><path d="M1354,56L1385,190L1537,39Z" fill="#786f65" stroke="#786f65" stroke-width="1.51"/><path d="M1463,701L1368,820L1533,796Z" fill="#948a7f" stroke="#948a7f" stroke-width="1.51"/><path d="M1342,1024L1515,1096L1523,1011Z" fill="#9e9892" stroke="#9e9892" stroke-width="1.51"/><path d="M1342,1024L1375,1138L1515,1096Z" fill="#a7a099" stroke="#a7a099" stroke-width="1.51"/><path d="M1382,-202L1300,-82L1437,-199Z" fill="#68625b" stroke="#68625b" stroke-width="1.51"/><path d="M1437,-199L1300,-82L1505,-54Z" fill="#5e5954" stroke="#5e5954" stroke-width="1.51"/><path d="M1300,-82L1354,56L1505,-54Z" fill="#5b554f" stroke="#5b554f" stroke-width="1.51"/><path d="M1437,276L1317,333L1458,427Z" fill="#6f655b" stroke="#6f655b" stroke-width="1.51"/><path d="M1348,690L1368,820L1463,701Z" fill="#9b8f82" stroke="#9b8f82" stroke-width="1.51"/><path d="M1339,571L1348,690L1463,701Z" fill="#a29384" stroke="#a29384" stroke-width="1.51"/><path d="M1375,1138L1283,1303L1465,1241Z" fill="#87817b" stroke="#87817b" stroke-width="1.51"/><path d="M1458,427L1339,571L1460,486Z" fill="#71685e" stroke="#71685e" stroke-width="1.51"/><path d="M1317,333L1339,571L1458,427Z" fill="#665d54" stroke="#665d54" stroke-width="1.51"/><path d="M1385,190L1317,333L1437,276Z" fill="#81756a" stroke="#81756a" stroke-width="1.51"/><path d="M1317,333L1156,367L1339,571Z" fill="#665c51" stroke="#665c51" stroke-width="1.51"/><path d="M1197,859L1213,997L1342,1024Z" fill="#9f958a" stroke="#9f958a" stroke-width="1.51"/><path d="M1197,859L1342,1024L1368,820Z" fill="#938a80" stroke="#938a80" stroke-width="1.51"/><path d="M1354,56L1228,213L1385,190Z" fill="#8d8073" stroke="#8d8073" stroke-width="1.51"/><path d="M1228,213L1317,333L1385,190Z" fill="#897d6f" stroke="#897d6f" stroke-width="1.51"/><path d="M1348,690L1239,683L1368,820Z" fill="#a09284" stroke="#a09284" stroke-width="1.51"/><path d="M1142,1129L1283,1303L1375,1138Z" fill="#9d948c" stroke="#9d948c" stroke-width="1.51"/><path d="M1212,-116L1300,-82L1382,-202Z" fill="#686159" stroke="#686159" stroke-width="1.51"/><path d="M1161,-220L1212,-116L1382,-202Z" fill="#726a60" stroke="#726a60" stroke-width="1.51"/><path d="M1156,367L1174,591L1339,571Z" fill="#817466" stroke="#817466" stroke-width="1.51"/><path d="M1213,997L1142,1129L1342,1024Z" fill="#ada298" stroke="#ada298" stroke-width="1.51"/><path d="M1342,1024L1142,1129L1375,1138Z" fill="#b0a79e" stroke="#b0a79e" stroke-width="1.51"/><path d="M1339,571L1239,683L1348,690Z" fill="#a59585" stroke="#a59585" stroke-width="1.51"/><path d="M1239,683L1197,859L1368,820Z" fill="#9e9183" stroke="#9e9183" stroke-width="1.51"/><path d="M1300,-82L1160,43L1354,56Z" fill="#6a6158" stroke="#6a6158" stroke-width="1.51"/><path d="M1160,43L1228,213L1354,56Z" fill="#84786b" stroke="#84786b" stroke-width="1.51"/><path d="M1174,591L1239,683L1339,571Z" fill="#9e8e7d" stroke="#9e8e7d" stroke-width="1.51"/><path d="M1212,-116L1160,43L1300,-82Z" fill="#5f574f" stroke="#5f574f" stroke-width="1.51"/><path d="M1228,213L1156,367L1317,333Z" fill="#817466" stroke="#817466" stroke-width="1.51"/><path d="M1142,1129L1089,1266L1283,1303Z" fill="#92887d" stroke="#92887d" stroke-width="1.51"/><path d="M1089,1266L1141,1341L1283,1303Z" fill="#766d63" stroke="#766d63" stroke-width="1.51"/><path d="M1068,396L1085,571L1156,367Z" fill="#6f6154" stroke="#6f6154" stroke-width="1.51"/><path d="M1156,367L1085,571L1174,591Z" fill="#867767" stroke="#867767" stroke-width="1.51"/><path d="M1197,859L1090,957L1213,997Z" fill="#a29589" stroke="#a29589" stroke-width="1.51"/><path d="M1160,43L1029,200L1228,213Z" fill="#988777" stroke="#988777" stroke-width="1.51"/><path d="M1174,591L1013,652L1239,683Z" fill="#ad9a87" stroke="#ad9a87" stroke-width="1.51"/><path d="M1013,652L1058,843L1239,683Z" fill="#a79684" stroke="#a79684" stroke-width="1.51"/><path d="M1058,843L1197,859L1239,683Z" fill="#a49586" stroke="#a49586" stroke-width="1.51"/><path d="M1029,200L1156,367L1228,213Z" fill="#918070" stroke="#918070" stroke-width="1.51"/><path d="M1005,-34L1160,43L1212,-116Z" fill="#675c52" stroke="#675c52" stroke-width="1.51"/><path d="M1034,-155L1005,-34L1212,-116Z" fill="#635a51" stroke="#635a51" stroke-width="1.51"/><path d="M1161,-220L1034,-155L1212,-116Z" fill="#766c61" stroke="#766c61" stroke-width="1.51"/><path d="M1090,957L1142,1129L1213,997Z" fill="#afa396" stroke="#afa396" stroke-width="1.51"/><path d="M1090,957L1085,1132L1142,1129Z" fill="#b1a599" stroke="#b1a599" stroke-width="1.51"/><path d="M875,-225L1034,-155L1161,-220Z" fill="#685e55" stroke="#685e55" stroke-width="1.51"/><path d="M1085,571L1013,652L1174,591Z" fill="#9a8977" stroke="#9a8977" stroke-width="1.51"/><path d="M1058,843L1090,957L1197,859Z" fill="#9a8e80" stroke="#9a8e80" stroke-width="1.51"/><path d="M1085,1132L1089,1266L1142,1129Z" fill="#a69b90" stroke="#a69b90" stroke-width="1.51"/><path d="M1029,200L1068,396L1156,367Z" fill="#7a6c5e" stroke="#7a6c5e" stroke-width="1.51"/><path d="M985,75L1029,200L1160,43Z" fill="#7e7062" stroke="#7e7062" stroke-width="1.51"/><path d="M603,1258L398,1262L725,1287Z" fill="#635b55" stroke="#635b55" stroke-width="1.51"/><path d="M1005,-34L985,75L1160,43Z" fill="#685d53" stroke="#685d53" stroke-width="1.51"/><path d="M1089,1266L846,1309L1141,1341Z" fill="#645b53" stroke="#645b53" stroke-width="1.51"/><path d="M903,207L858,359L1029,200Z" fill="#6b5e51" stroke="#6b5e51" stroke-width="1.51"/><path d="M1013,652L891,786L1058,843Z" fill="#8c7e70" stroke="#8c7e70" stroke-width="1.51"/><path d="M1029,200L858,359L1068,396Z" fill="#685b4f" stroke="#685b4f" stroke-width="1.51"/><path d="M1068,396L887,553L1085,571Z" fill="#6f6254" stroke="#6f6254" stroke-width="1.51"/><path d="M1085,1132L901,1116L1089,1266Z" fill="#978e84" stroke="#978e84" stroke-width="1.51"/><path d="M901,1116L846,1309L1089,1266Z" fill="#706961" stroke="#706961" stroke-width="1.51"/><path d="M1058,843L860,953L1090,957Z" fill="#877c71" stroke="#877c71" stroke-width="1.51"/><path d="M901,1116L1085,1132L1090,957Z" fill="#a0968b" stroke="#a0968b" stroke-width="1.51"/><path d="M860,953L901,1116L1090,957Z" fill="#897f76" stroke="#897f76" stroke-width="1.51"/><path d="M887,553L1013,652L1085,571Z" fill="#847464" stroke="#847464" stroke-width="1.51"/><path d="M858,359L887,553L1068,396Z" fill="#4d4339" stroke="#4d4339" stroke-width="1.51"/><path d="M891,786L860,953L1058,843Z" fill="#796f64" stroke="#796f64" stroke-width="1.51"/><path d="M898,644L891,786L1013,652Z" fill="#87786a" stroke="#87786a" stroke-width="1.51"/><path d="M887,553L898,644L1013,652Z" fill="#7e6f61" stroke="#7e6f61" stroke-width="1.51"/><path d="M985,75L903,207L1029,200Z" fill="#7b6d5f" stroke="#7b6d5f" stroke-width="1.51"/><path d="M898,-22L1005,-34L1034,-155Z" fill="#4b443c" stroke="#4b443c" stroke-width="1.51"/><path d="M875,-225L898,-22L1034,-155Z" fill="#4d463f" stroke="#4d463f" stroke-width="1.51"/><path d="M898,-22L985,75L1005,-34Z" fill="#524a41" stroke="#524a41" stroke-width="1.51"/><path d="M874,75L903,207L985,75Z" fill="#665a4f" stroke="#665a4f" stroke-width="1.51"/><path d="M898,-22L874,75L985,75Z" fill="#534a41" stroke="#534a41" stroke-width="1.51"/><path d="M858,359L787,353L887,553Z" fill="#393129" stroke="#393129" stroke-width="1.51"/><path d="M787,353L751,569L887,553Z" fill="#453c32" stroke="#453c32" stroke-width="1.51"/><path d="M703,656L784,850L891,786Z" fill="#665b51" stroke="#665b51" stroke-width="1.51"/><path d="M784,850L860,953L891,786Z" fill="#675f56" stroke="#675f56" stroke-width="1.51"/><path d="M887,553L751,569L898,644Z" fill="#665a4d" stroke="#665a4d" stroke-width="1.51"/><path d="M703,656L891,786L898,644Z" fill="#736659" stroke="#736659" stroke-width="1.51"/><path d="M875,-225L692,-206L898,-22Z" fill="#3b3631" stroke="#3b3631" stroke-width="1.51"/><path d="M692,-206L683,-14L898,-22Z" fill="#302b27" stroke="#302b27" stroke-width="1.51"/><path d="M758,1174L846,1309L901,1116Z" fill="#67615b" stroke="#67615b" stroke-width="1.51"/><path d="M860,953L751,991L901,1116Z" fill="#746c65" stroke="#746c65" stroke-width="1.51"/><path d="M751,991L758,1174L901,1116Z" fill="#77706a" stroke="#77706a" stroke-width="1.51"/><path d="M787,353L858,359L903,207Z" fill="#51473d" stroke="#51473d" stroke-width="1.51"/><path d="M782,144L787,353L903,207Z" fill="#5b5045" stroke="#5b5045" stroke-width="1.51"/><path d="M874,75L782,144L903,207Z" fill="#5f5449" stroke="#5f5449" stroke-width="1.51"/><path d="M751,569L703,656L898,644Z" fill="#65594c" stroke="#65594c" stroke-width="1.51"/><path d="M683,-14L874,75L898,-22Z" fill="#3a342d" stroke="#3a342d" stroke-width="1.51"/><path d="M782,144L689,229L787,353Z" fill="#584d43" stroke="#584d43" stroke-width="1.51"/><path d="M758,1174L725,1287L846,1309Z" fill="#4b4642" stroke="#4b4642" stroke-width="1.51"/><path d="M683,-14L782,144L874,75Z" fill="#433c34" stroke="#433c34" stroke-width="1.51"/><path d="M784,850L751,991L860,953Z" fill="#615a53" stroke="#615a53" stroke-width="1.51"/><path d="M634,400L751,569L787,353Z" fill="#3d342c" stroke="#3d342c" stroke-width="1.51"/><path d="M634,400L628,552L751,569Z" fill="#554a40" stroke="#554a40" stroke-width="1.51"/><path d="M751,991L632,1023L758,1174Z" fill="#7b746d" stroke="#7b746d" stroke-width="1.51"/><path d="M683,-14L602,36L782,144Z" fill="#4c443b" stroke="#4c443b" stroke-width="1.51"/><path d="M703,656L627,696L784,850Z" fill="#74685b" stroke="#74685b" stroke-width="1.51"/><path d="M627,696L621,831L784,850Z" fill="#72685d" stroke="#72685d" stroke-width="1.51"/><path d="M621,831L751,991L784,850Z" fill="#645d55" stroke="#645d55" stroke-width="1.51"/><path d="M689,229L634,400L787,353Z" fill="#4d433a" stroke="#4d433a" stroke-width="1.51"/><path d="M602,36L689,229L782,144Z" fill="#60554a" stroke="#60554a" stroke-width="1.51"/><path d="M590,-165L683,-14L692,-206Z" fill="#443e38" stroke="#443e38" stroke-width="1.51"/><path d="M621,831L632,1023L751,991Z" fill="#736b62" stroke="#736b62" stroke-width="1.51"/><path d="M632,1023L531,1192L758,1174Z" fill="#8f8780" stroke="#8f8780" stroke-width="1.51"/><path d="M531,1192L603,1258L758,1174Z" fill="#716a64" stroke="#716a64" stroke-width="1.51"/><path d="M603,1258L725,1287L758,1174Z" fill="#5d5651" stroke="#5d5651" stroke-width="1.51"/><path d="M602,36L576,204L689,229Z" fill="#6f6255" stroke="#6f6255" stroke-width="1.51"/><path d="M628,552L703,656L751,569Z" fill="#6a5d50" stroke="#6a5d50" stroke-width="1.51"/><path d="M590,-165L551,-97L683,-14Z" fill="#453e39" stroke="#453e39" stroke-width="1.51"/><path d="M472,-211L590,-165L692,-206Z" fill="#585048" stroke="#585048" stroke-width="1.51"/><path d="M576,204L634,400L689,229Z" fill="#61564a" stroke="#61564a" stroke-width="1.51"/><path d="M628,552L627,696L703,656Z" fill="#7b6d5f" stroke="#7b6d5f" stroke-width="1.51"/><path d="M551,-97L602,36L683,-14Z" fill="#443d37" stroke="#443d37" stroke-width="1.51"/><path d="M461,849L454,959L621,831Z" fill="#84796e" stroke="#84796e" stroke-width="1.51"/><path d="M461,849L621,831L627,696Z" fill="#83766a" stroke="#83766a" stroke-width="1.51"/><path d="M401,713L461,849L627,696Z" fill="#928374" stroke="#928374" stroke-width="1.51"/><path d="M401,713L627,696L628,552Z" fill="#90806f" stroke="#90806f" stroke-width="1.51"/><path d="M394,495L401,713L628,552Z" fill="#89796a" stroke="#89796a" stroke-width="1.51"/><path d="M621,831L454,959L632,1023Z" fill="#80776d" stroke="#80776d" stroke-width="1.51"/><path d="M454,959L531,1192L632,1023Z" fill="#958c82" stroke="#958c82" stroke-width="1.51"/><path d="M576,204L442,352L634,400Z" fill="#64594d" stroke="#64594d" stroke-width="1.51"/><path d="M394,495L628,552L634,400Z" fill="#605448" stroke="#605448" stroke-width="1.51"/><path d="M442,352L394,495L634,400Z" fill="#594e44" stroke="#594e44" stroke-width="1.51"/><path d="M454,959L386,1093L531,1192Z" fill="#a59b90" stroke="#a59b90" stroke-width="1.51"/><path d="M405,137L576,204L602,36Z" fill="#74685b" stroke="#74685b" stroke-width="1.51"/><path d="M551,-97L385,-37L602,36Z" fill="#504840" stroke="#504840" stroke-width="1.51"/><path d="M531,1192L398,1262L603,1258Z" fill="#787068" stroke="#787068" stroke-width="1.51"/><path d="M385,-37L405,137L602,36Z" fill="#6a5f54" stroke="#6a5f54" stroke-width="1.51"/><path d="M407,192L442,352L576,204Z" fill="#7e7062" stroke="#7e7062" stroke-width="1.51"/><path d="M472,-211L551,-97L590,-165Z" fill="#585149" stroke="#585149" stroke-width="1.51"/><path d="M405,137L407,192L576,204Z" fill="#8c7d6d" stroke="#8c7d6d" stroke-width="1.51"/><path d="M472,-211L385,-37L551,-97Z" fill="#5c534b" stroke="#5c534b" stroke-width="1.51"/><path d="M386,1093L398,1262L531,1192Z" fill="#968d83" stroke="#968d83" stroke-width="1.51"/><path d="M394,495L275,538L401,713Z" fill="#7b6d60" stroke="#7b6d60" stroke-width="1.51"/><path d="M313,400L394,495L442,352Z" fill="#554b41" stroke="#554b41" stroke-width="1.51"/><path d="M310,1018L386,1093L454,959Z" fill="#938981" stroke="#938981" stroke-width="1.51"/><path d="M335,860L454,959L461,849Z" fill="#887d72" stroke="#887d72" stroke-width="1.51"/><path d="M401,713L335,860L461,849Z" fill="#8c7f73" stroke="#8c7f73" stroke-width="1.51"/><path d="M261,-240L385,-37L472,-211Z" fill="#5a524c" stroke="#5a524c" stroke-width="1.51"/><path d="M386,1093L291,1172L398,1262Z" fill="#8a837b" stroke="#8a837b" stroke-width="1.51"/><path d="M385,-37L301,86L405,137Z" fill="#62584e" stroke="#62584e" stroke-width="1.51"/><path d="M407,192L247,249L442,352Z" fill="#716558" stroke="#716558" stroke-width="1.51"/><path d="M247,249L313,400L442,352Z" fill="#5d5349" stroke="#5d5349" stroke-width="1.51"/><path d="M335,860L310,1018L454,959Z" fill="#857c73" stroke="#857c73" stroke-width="1.51"/><path d="M261,-240L304,-27L385,-37Z" fill="#47423c" stroke="#47423c" stroke-width="1.51"/><path d="M275,538L242,663L401,713Z" fill="#827466" stroke="#827466" stroke-width="1.51"/><path d="M304,-27L301,86L385,-37Z" fill="#4f4841" stroke="#4f4841" stroke-width="1.51"/><path d="M242,663L335,860L401,713Z" fill="#84776b" stroke="#84776b" stroke-width="1.51"/><path d="M405,137L301,86L407,192Z" fill="#776b5e" stroke="#776b5e" stroke-width="1.51"/><path d="M301,86L247,249L407,192Z" fill="#776b5e" stroke="#776b5e" stroke-width="1.51"/><path d="M291,1172L247,1282L398,1262Z" fill="#6a645e" stroke="#6a645e" stroke-width="1.51"/><path d="M313,400L275,538L394,495Z" fill="#594f45" stroke="#594f45" stroke-width="1.51"/><path d="M310,1018L291,1172L386,1093Z" fill="#928b84" stroke="#928b84" stroke-width="1.51"/><path d="M261,-240L159,-113L304,-27Z" fill="#3f3a36" stroke="#3f3a36" stroke-width="1.51"/><path d="M174,876L139,946L310,1018Z" fill="#69645e" stroke="#69645e" stroke-width="1.51"/><path d="M247,249L185,342L313,400Z" fill="#50473f" stroke="#50473f" stroke-width="1.51"/><path d="M174,876L310,1018L335,860Z" fill="#716a63" stroke="#716a63" stroke-width="1.51"/><path d="M242,663L174,876L335,860Z" fill="#72685f" stroke="#72685f" stroke-width="1.51"/><path d="M107,145L247,249L301,86Z" fill="#62584e" stroke="#62584e" stroke-width="1.51"/><path d="M107,145L301,86L304,-27Z" fill="#4e4740" stroke="#4e4740" stroke-width="1.51"/><path d="M159,-113L107,145L304,-27Z" fill="#37332f" stroke="#37332f" stroke-width="1.51"/><path d="M132,1131L291,1172L310,1018Z" fill="#857f7a" stroke="#857f7a" stroke-width="1.51"/><path d="M185,342L275,538L313,400Z" fill="#403932" stroke="#403932" stroke-width="1.51"/><path d="M139,946L132,1131L310,1018Z" fill="#716d68" stroke="#716d68" stroke-width="1.51"/><path d="M-28,1270L-222,1336L128,1307Z" fill="#3e3c3a" stroke="#3e3c3a" stroke-width="1.51"/><path d="M100,704L174,876L242,663Z" fill="#696056" stroke="#696056" stroke-width="1.51"/><path d="M185,342L90,577L275,538Z" fill="#433c35" stroke="#433c35" stroke-width="1.51"/><path d="M132,1131L247,1282L291,1172Z" fill="#6b6662" stroke="#6b6662" stroke-width="1.51"/><path d="M90,577L242,663L275,538Z" fill="#63594f" stroke="#63594f" stroke-width="1.51"/><path d="M132,1131L128,1307L247,1282Z" fill="#514e4b" stroke="#514e4b" stroke-width="1.51"/><path d="M107,145L133,278L247,249Z" fill="#574e46" stroke="#574e46" stroke-width="1.51"/><path d="M99,-161L159,-113L261,-240Z" fill="#3a3734" stroke="#3a3734" stroke-width="1.51"/><path d="M15,-252L99,-161L261,-240Z" fill="#393735" stroke="#393735" stroke-width="1.51"/><path d="M-5,432L90,577L185,342Z" fill="#2f2b26" stroke="#2f2b26" stroke-width="1.51"/><path d="M133,278L185,342L247,249Z" fill="#4e463e" stroke="#4e463e" stroke-width="1.51"/><path d="M90,577L100,704L242,663Z" fill="#685e54" stroke="#685e54" stroke-width="1.51"/><path d="M-37,-38L107,145L159,-113Z" fill="#2c2926" stroke="#2c2926" stroke-width="1.51"/><path d="M133,278L-5,432L185,342Z" fill="#342f2a" stroke="#342f2a" stroke-width="1.51"/><path d="M-28,1270L128,1307L132,1131Z" fill="#4a4847" stroke="#4a4847" stroke-width="1.51"/><path d="M-52,993L132,1131L139,946Z" fill="#64615e" stroke="#64615e" stroke-width="1.51"/><path d="M100,704L21,702L174,876Z" fill="#5c554e" stroke="#5c554e" stroke-width="1.51"/><path d="M21,702L-65,886L174,876Z" fill="#5d5851" stroke="#5d5851" stroke-width="1.51"/><path d="M-65,886L139,946L174,876Z" fill="#54514c" stroke="#54514c" stroke-width="1.51"/><path d="M-37,-38L-61,87L107,145Z" fill="#423d38" stroke="#423d38" stroke-width="1.51"/><path d="M107,145L10,234L133,278Z" fill="#514841" stroke="#514841" stroke-width="1.51"/><path d="M99,-161L-37,-38L159,-113Z" fill="#292726" stroke="#292726" stroke-width="1.51"/><path d="M-52,993L-46,1146L132,1131Z" fill="#73706e" stroke="#73706e" stroke-width="1.51"/><path d="M-46,1146L-28,1270L132,1131Z" fill="#64615f" stroke="#64615f" stroke-width="1.51"/><path d="M10,234L-5,432L133,278Z" fill="#413b35" stroke="#413b35" stroke-width="1.51"/><path d="M-65,886L-52,993L139,946Z" fill="#615d59" stroke="#615d59" stroke-width="1.51"/><path d="M90,577L21,702L100,704Z" fill="#675e54" stroke="#675e54" stroke-width="1.51"/><path d="M-25,593L21,702L90,577Z" fill="#635a51" stroke="#635a51" stroke-width="1.51"/><path d="M-5,432L-25,593L90,577Z" fill="#4c453e" stroke="#4c453e" stroke-width="1.51"/><path d="M-61,87L10,234L107,145Z" fill="#564f47" stroke="#564f47" stroke-width="1.51"/><path d="M15,-252L-37,-38L99,-161Z" fill="#343230" stroke="#343230" stroke-width="1.51"/><path d="M-140,206L-218,353L-5,432Z" fill="#504942" stroke="#504942" stroke-width="1.51"/><path d="M-124,513L-25,593L-5,432Z" fill="#4d463f" stroke="#4d463f" stroke-width="1.51"/><path d="M-140,206L-5,432L10,234Z" fill="#4f4841" stroke="#4f4841" stroke-width="1.51"/><path d="M-61,87L-140,206L10,234Z" fill="#645c53" stroke="#645c53" stroke-width="1.51"/><path d="M-196,-230L-37,-38L15,-252Z" fill="#413e3c" stroke="#413e3c" stroke-width="1.51"/><path d="M-165,837L-65,886L21,702Z" fill="#6a645d" stroke="#6a645d" stroke-width="1.51"/><path d="M-25,593L-208,716L21,702Z" fill="#766c62" stroke="#766c62" stroke-width="1.51"/><path d="M-208,716L-165,837L21,702Z" fill="#756c64" stroke="#756c64" stroke-width="1.51"/><path d="M-52,993L-155,1023L-46,1146Z" fill="#797672" stroke="#797672" stroke-width="1.51"/><path d="M-196,-230L-210,-32L-37,-38Z" fill="#3e3c3a" stroke="#3e3c3a" stroke-width="1.51"/><path d="M-218,353L-124,513L-5,432Z" fill="#3f3a35" stroke="#3f3a35" stroke-width="1.51"/><path d="M-155,120L-140,206L-61,87Z" fill="#605951" stroke="#605951" stroke-width="1.51"/><path d="M-155,1023L-186,1099L-46,1146Z" fill="#83807c" stroke="#83807c" stroke-width="1.51"/><path d="M-210,-32L-61,87L-37,-38Z" fill="#3f3b38" stroke="#3f3b38" stroke-width="1.51"/><path d="M-46,1146L-186,1099L-28,1270Z" fill="#74716d" stroke="#74716d" stroke-width="1.51"/><path d="M-186,1099L-222,1336L-28,1270Z" fill="#625f5d" stroke="#625f5d" stroke-width="1.51"/><path d="M-124,513L-208,716L-25,593Z" fill="#6f655c" stroke="#6f655c" stroke-width="1.51"/><path d="M-210,-32L-155,120L-61,87Z" fill="#504a45" stroke="#504a45" stroke-width="1.51"/><path d="M-65,886L-155,1023L-52,993Z" fill="#6e6b67" stroke="#6e6b67" stroke-width="1.51"/><path d="M-165,837L-155,1023L-65,886Z" fill="#6c6863" stroke="#6c6863" stroke-width="1.51"/><path d="M-218,353L-208,716L-124,513Z" fill="#605750" stroke="#605750" stroke-width="1.51"/><path d="M-155,120L-218,353L-140,206Z" fill="#6a6158" stroke="#6a6158" stroke-width="1.51"/><path d="M-165,837L-186,1099L-155,1023Z" fill="#7a7671" stroke="#7a7671" stroke-width="1.51"/><path d="M-210,-32L-218,353L-155,120Z" fill="#6b635a" stroke="#6b635a" stroke-width="1.51"/><path d="M-208,716L-186,1099L-165,837Z" fill="#716c66" stroke="#716c66" stroke-width="1.51"/><path d="M-208,716L-222,1336L-186,1099Z" fill="#86837e" stroke="#86837e" stroke-width="1.51"/><path d="M-218,353L-222,1336L-208,716Z" fill="#7b746c" stroke="#7b746c" stroke-width="1.51"/></svg>