<?xml version="1.0" standalone="no"?>
<!DOCTYPE svg PUBLIC "-//W3C//DTD SVG 20010904//EN"
 "http://www.w3.org/TR/2001/REC-SVG-20010904/DTD/svg10.dtd">
<svg version="1.0" xmlns="http://www.w3.org/2000/svg"
 width="256.000000pt" height="256.000000pt" viewBox="0 0 256.000000 256.000000"
 preserveAspectRatio="xMidYMid meet">

<g transform="translate(0.000000,256.000000) scale(0.100000,-0.100000)"
fill="#000000" stroke="none">
<path d="M0 1280 l0 -1280 1280 0 1280 0 0 1280 0 1280 -1280 0 -1280 0 0
-1280z m1407 1109 c116 -13 242 -48 343 -95 93 -44 223 -130 272 -181 l37 -38
-175 -115 c-96 -63 -181 -120 -187 -126 -7 -6 -17 -13 -22 -15 -6 -2 -104 -66
-218 -142 -114 -76 -213 -140 -220 -142 -7 -2 -106 139 -232 331 -121 185
-225 341 -231 347 -32 36 -26 47 49 82 126 60 296 99 445 104 23 0 86 -4 139
-10z m-640 -275 c37 -58 73 -111 79 -118 6 -6 13 -16 15 -21 5 -13 141 -218
148 -225 4 -3 11 -13 16 -22 6 -9 42 -67 82 -127 70 -108 71 -111 51 -122 -12
-7 -27 -16 -32 -21 -15 -12 -694 -460 -733 -483 -18 -11 -33 -23 -33 -27 0 -4
-5 -8 -11 -8 -6 0 -26 -12 -45 -27 -21 -15 -39 -22 -44 -17 -19 19 -59 185
-69 289 -32 322 73 631 294 864 66 69 188 171 206 171 4 0 38 -48 76 -106z
m1401 -160 c67 -88 144 -244 176 -354 90 -316 30 -671 -158 -939 -48 -69 -203
-231 -221 -231 -5 0 -20 15 -31 33 -12 17 -154 232 -316 477 -312 472 -348
527 -348 535 0 3 26 22 58 42 31 21 59 41 62 44 3 3 10 8 15 10 12 5 474 310
600 396 49 34 95 61 100 59 6 -1 34 -33 63 -72z m-883 -621 c38 -60 73 -109
77 -111 5 -2 8 -10 8 -17 0 -7 3 -15 8 -17 4 -1 36 -48 72 -103 35 -55 67
-101 72 -103 4 -2 8 -7 8 -11 0 -5 78 -125 173 -267 94 -142 174 -263 176
-269 2 -5 10 -16 18 -23 7 -7 13 -17 13 -21 0 -11 -135 -86 -207 -116 -514
-209 -1108 -1 -1379 482 -20 35 -33 67 -30 72 5 7 316 219 337 229 4 1 134 88
290 192 156 104 286 189 289 189 3 1 37 -47 75 -106z"/>
<path d="M1340 2259 c-14 -5 -30 -17 -36 -25 -10 -12 -19 -13 -59 -3 -33 8
-49 9 -57 1 -16 -16 6 -39 44 -48 18 -3 46 -20 63 -38 17 -17 53 -47 80 -66
57 -41 81 -72 90 -117 l7 -33 -55 0 c-30 0 -94 11 -141 25 -139 40 -196 29
-196 -37 0 -60 131 -148 219 -148 53 0 149 41 189 79 29 29 51 40 85 45 28 4
48 13 51 23 11 27 -8 35 -54 24 -24 -5 -47 -8 -51 -6 -4 3 -10 25 -13 50 -6
34 -17 55 -45 83 -48 47 -72 67 -95 75 -24 9 -19 14 19 20 53 9 65 18 65 47 0
47 -53 71 -110 49z m53 -46 c-7 -2 -21 -2 -30 0 -10 3 -4 5 12 5 17 0 24 -2
18 -5z m-130 -305 c38 -11 97 -23 130 -27 l62 -8 -55 -26 c-88 -43 -178 -32
-242 30 -30 29 -36 49 -15 56 14 4 29 2 120 -25z"/>
<path d="M492 1842 c-50 -19 -84 -64 -64 -84 9 -9 16 -8 30 5 10 9 23 17 29
17 18 0 36 -166 30 -276 -5 -101 -32 -194 -56 -194 -14 0 -14 -37 -1 -45 6 -4
26 7 45 24 48 42 72 46 186 31 84 -11 104 -11 136 1 22 9 39 23 41 33 4 17 0
18 -39 11 -24 -4 -48 -7 -54 -7 -136 7 -225 17 -224 26 0 6 6 47 12 91 l12 80
55 5 c47 4 55 8 55 25 0 18 -7 20 -60 20 l-60 0 -7 65 c-4 36 -9 83 -13 104
l-6 39 108 -7 c116 -7 177 4 171 31 -5 23 -268 27 -326 5z"/>
<path d="M1895 1586 c-38 -17 -117 -101 -144 -154 -25 -48 -66 -203 -76 -285
-7 -58 -7 -59 16 -55 21 3 25 11 36 78 14 89 33 160 42 160 3 0 12 -10 20 -21
12 -20 18 -21 101 -16 104 8 100 13 100 -130 0 -86 2 -93 20 -93 14 0 20 9 24
33 6 33 26 206 26 220 0 4 7 7 15 7 9 0 34 9 56 21 64 32 38 54 -42 34 -25 -7
-25 -6 -26 52 -1 126 -74 190 -168 149z m79 -42 c26 -10 38 -42 43 -116 4 -57
2 -68 -11 -68 -9 0 -16 4 -16 9 0 17 -68 41 -114 41 -26 0 -58 -7 -71 -16 -34
-22 -31 -12 11 52 57 86 108 117 158 98z m-44 -195 c0 -5 -26 -9 -57 -9 -34 0
-53 4 -47 9 19 19 104 19 104 0z"/>
<path d="M1124 1020 c-33 -16 -74 -44 -92 -61 l-33 -32 -45 21 c-24 12 -44 26
-44 32 0 16 -30 12 -37 -5 -7 -21 19 -48 67 -70 l39 -18 -14 -35 c-20 -45 -19
-126 1 -168 10 -21 31 -40 58 -54 53 -25 77 -25 126 0 44 22 44 22 30 -15 -7
-19 -32 -36 -102 -69 -51 -23 -99 -50 -106 -59 -8 -9 -16 -34 -19 -55 -5 -34
-2 -42 23 -61 32 -26 80 -22 124 9 39 28 51 45 81 114 33 74 87 116 163 127
96 13 136 28 136 51 0 22 -5 22 -97 3 -29 -7 -31 -5 -26 14 9 36 -29 25 -71
-19 -21 -23 -41 -39 -43 -36 -6 6 26 96 39 111 4 5 8 17 8 27 0 34 -43 20 -75
-25 -61 -84 -138 -110 -190 -64 -33 28 -42 86 -22 142 l14 40 57 -3 c107 -7
216 57 216 127 0 65 -71 79 -166 31z m126 -26 c0 -40 -78 -84 -151 -84 -46 0
-50 2 -38 16 26 31 113 74 152 74 20 0 37 -3 37 -6z m-110 -484 c0 -6 -11 -28
-25 -49 -28 -45 -85 -71 -110 -51 -25 21 2 56 64 84 64 28 71 30 71 16z"/>
</g>
</svg>
